{"glyphs":{"0":{"ha":452,"x_min":32,"x_max":420,"o":"m 97 32 l 129 32 l 129 0 l 97 0 l 97 32 m 129 32 l 161 32 l 161 0 l 129 0 l 129 32 m 129 65 l 161 65 l 161 32 l 129 32 l 129 65 m 97 65 l 129 65 l 129 32 l 97 32 l 97 65 m 161 65 l 194 65 l 194 32 l 161 32 l 161 65 m 194 65 l 226 65 l 226 32 l 194 32 l 194 65 m 161 32 l 194 32 l 194 0 l 161 0 l 161 32 m 194 32 l 226 32 l 226 0 l 194 0 l 194 32 m 226 65 l 258 65 l 258 32 l 226 32 l 226 65 m 258 65 l 291 65 l 291 32 l 258 32 l 258 65 m 258 32 l 291 32 l 291 0 l 258 0 l 258 32 m 226 32 l 258 32 l 258 0 l 226 0 l 226 32 m 291 97 l 323 97 l 323 65 l 291 65 l 291 97 m 291 129 l 323 129 l 323 97 l 291 97 l 291 129 m 323 129 l 355 129 l 355 97 l 323 97 l 323 129 m 323 97 l 355 97 l 355 65 l 323 65 l 323 97 m 291 161 l 323 161 l 323 129 l 291 129 l 291 161 m 291 194 l 323 194 l 323 161 l 291 161 l 291 194 m 323 194 l 355 194 l 355 161 l 323 161 l 323 194 m 355 194 l 388 194 l 388 161 l 355 161 l 355 194 m 388 194 l 420 194 l 420 161 l 388 161 l 388 194 m 388 161 l 420 161 l 420 129 l 388 129 l 388 161 m 355 161 l 388 161 l 388 129 l 355 129 l 355 161 m 323 161 l 355 161 l 355 129 l 323 129 l 323 161 m 129 97 l 161 97 l 161 65 l 129 65 l 129 97 m 129 129 l 161 129 l 161 97 l 129 97 l 129 129 m 97 129 l 129 129 l 129 97 l 97 97 l 97 129 m 97 97 l 129 97 l 129 65 l 97 65 l 97 97 m 65 129 l 97 129 l 97 97 l 65 97 l 65 129 m 32 129 l 65 129 l 65 97 l 32 97 l 32 129 m 32 97 l 65 97 l 65 65 l 32 65 l 32 97 m 65 97 l 97 97 l 97 65 l 65 65 l 65 97 m 161 129 l 194 129 l 194 97 l 161 97 l 161 129 m 194 97 l 226 97 l 226 65 l 194 65 l 194 97 m 161 97 l 194 97 l 194 65 l 161 65 l 161 97 m 97 161 l 129 161 l 129 129 l 97 129 l 97 161 m 129 161 l 161 161 l 161 129 l 129 129 l 129 161 m 129 194 l 161 194 l 161 161 l 129 161 l 129 194 m 97 194 l 129 194 l 129 161 l 97 161 l 97 194 m 65 161 l 97 161 l 97 129 l 65 129 l 65 161 m 32 161 l 65 161 l 65 129 l 32 129 l 32 161 m 32 194 l 65 194 l 65 161 l 32 161 l 32 194 m 65 194 l 97 194 l 97 161 l 65 161 l 65 194 m 291 226 l 323 226 l 323 194 l 291 194 l 291 226 m 323 226 l 355 226 l 355 194 l 323 194 l 323 226 m 323 258 l 355 258 l 355 226 l 323 226 l 323 258 m 291 258 l 323 258 l 323 226 l 291 226 l 291 258 m 355 258 l 388 258 l 388 226 l 355 226 l 355 258 m 388 258 l 420 258 l 420 226 l 388 226 l 388 258 m 388 226 l 420 226 l 420 194 l 388 194 l 388 226 m 355 226 l 388 226 l 388 194 l 355 194 l 355 226 m 129 226 l 161 226 l 161 194 l 129 194 l 129 226 m 129 258 l 161 258 l 161 226 l 129 226 l 129 258 m 97 258 l 129 258 l 129 226 l 97 226 l 97 258 m 65 258 l 97 258 l 97 226 l 65 226 l 65 258 m 32 258 l 65 258 l 65 226 l 32 226 l 32 258 m 32 226 l 65 226 l 65 194 l 32 194 l 32 226 m 65 226 l 97 226 l 97 194 l 65 194 l 65 226 m 97 226 l 129 226 l 129 194 l 97 194 l 97 226 m 129 484 l 161 484 l 161 452 l 129 452 l 129 484 m 97 484 l 129 484 l 129 452 l 97 452 l 97 484 m 97 452 l 129 452 l 129 420 l 97 420 l 97 452 m 129 452 l 161 452 l 161 420 l 129 420 l 129 452 m 161 517 l 194 517 l 194 484 l 161 484 l 161 517 m 161 549 l 194 549 l 194 517 l 161 517 l 161 549 m 194 549 l 226 549 l 226 517 l 194 517 l 194 549 m 194 517 l 226 517 l 226 484 l 194 484 l 194 517 m 226 517 l 258 517 l 258 484 l 226 484 l 226 517 m 226 549 l 258 549 l 258 517 l 226 517 l 226 549 m 258 549 l 291 549 l 291 517 l 258 517 l 258 549 m 258 517 l 291 517 l 291 484 l 258 484 l 258 517 m 291 549 l 323 549 l 323 517 l 291 517 l 291 549 m 323 549 l 355 549 l 355 517 l 323 517 l 323 549 m 323 517 l 355 517 l 355 484 l 323 484 l 323 517 m 291 517 l 323 517 l 323 484 l 291 484 l 291 517 m 291 484 l 323 484 l 323 452 l 291 452 l 291 484 m 291 452 l 323 452 l 323 420 l 291 420 l 291 452 m 291 420 l 323 420 l 323 388 l 291 388 l 291 420 m 291 388 l 323 388 l 323 355 l 291 355 l 291 388 m 291 355 l 323 355 l 323 323 l 291 323 l 291 355 m 291 323 l 323 323 l 323 291 l 291 291 l 291 323 m 291 291 l 323 291 l 323 258 l 291 258 l 291 291 m 323 291 l 355 291 l 355 258 l 323 258 l 323 291 m 355 291 l 388 291 l 388 258 l 355 258 l 355 291 m 388 291 l 420 291 l 420 258 l 388 258 l 388 291 m 388 323 l 420 323 l 420 291 l 388 291 l 388 323 m 388 355 l 420 355 l 420 323 l 388 323 l 388 355 m 388 388 l 420 388 l 420 355 l 388 355 l 388 388 m 388 420 l 420 420 l 420 388 l 388 388 l 388 420 m 388 452 l 420 452 l 420 420 l 388 420 l 388 452 m 388 484 l 420 484 l 420 452 l 388 452 l 388 484 m 355 484 l 388 484 l 388 452 l 355 452 l 355 484 m 323 484 l 355 484 l 355 452 l 323 452 l 323 484 m 323 452 l 355 452 l 355 420 l 323 420 l 323 452 m 323 420 l 355 420 l 355 388 l 323 388 l 323 420 m 323 388 l 355 388 l 355 355 l 323 355 l 323 388 m 323 355 l 355 355 l 355 323 l 323 323 l 323 355 m 323 323 l 355 323 l 355 291 l 323 291 l 323 323 m 355 323 l 388 323 l 388 291 l 355 291 l 355 323 m 355 355 l 388 355 l 388 323 l 355 323 l 355 355 m 355 388 l 388 388 l 388 355 l 355 355 l 355 388 m 355 420 l 388 420 l 388 388 l 355 388 l 355 420 m 355 452 l 388 452 l 388 420 l 355 420 l 355 452 m 258 484 l 291 484 l 291 452 l 258 452 l 258 484 m 226 484 l 258 484 l 258 452 l 226 452 l 226 484 m 258 452 l 291 452 l 291 420 l 258 420 l 258 452 m 129 420 l 161 420 l 161 388 l 129 388 l 129 420 m 97 420 l 129 420 l 129 388 l 97 388 l 97 420 m 65 420 l 97 420 l 97 388 l 65 388 l 65 420 m 32 420 l 65 420 l 65 388 l 32 388 l 32 420 m 32 388 l 65 388 l 65 355 l 32 355 l 32 388 m 65 355 l 97 355 l 97 323 l 65 323 l 65 355 m 65 323 l 97 323 l 97 291 l 65 291 l 65 323 m 65 291 l 97 291 l 97 258 l 65 258 l 65 291 m 97 291 l 129 291 l 129 258 l 97 258 l 97 291 m 129 291 l 161 291 l 161 258 l 129 258 l 129 291 m 129 323 l 161 323 l 161 291 l 129 291 l 129 323 m 129 355 l 161 355 l 161 323 l 129 323 l 129 355 m 129 388 l 161 388 l 161 355 l 129 355 l 129 388 m 97 388 l 129 388 l 129 355 l 97 355 l 97 388 m 97 355 l 129 355 l 129 323 l 97 323 l 97 355 m 97 323 l 129 323 l 129 291 l 97 291 l 97 323 m 65 388 l 97 388 l 97 355 l 65 355 l 65 388 m 32 355 l 65 355 l 65 323 l 32 323 l 32 355 m 32 323 l 65 323 l 65 291 l 32 291 l 32 323 m 32 291 l 65 291 l 65 258 l 32 258 l 32 291 m 65 452 l 97 452 l 97 420 l 65 420 l 65 452 m 355 517 l 388 517 l 388 484 l 355 484 l 355 517 m 65 65 l 97 65 l 97 32 l 65 32 l 65 65 m 355 129 l 388 129 l 388 97 l 355 97 l 355 129 m 291 65 l 323 65 l 323 32 l 291 32 l 291 65 m 129 517 l 161 517 l 161 484 l 129 484 l 129 517 z "},"1":{"ha":258,"x_min":32,"x_max":226,"o":"m 129 65 l 161 65 l 161 32 l 129 32 l 129 65 m 97 65 l 129 65 l 129 32 l 97 32 l 97 65 m 97 32 l 129 32 l 129 0 l 97 0 l 97 32 m 194 129 l 226 129 l 226 97 l 194 97 l 194 129 m 161 129 l 194 129 l 194 97 l 161 97 l 161 129 m 129 129 l 161 129 l 161 97 l 129 97 l 129 129 m 97 129 l 129 129 l 129 97 l 97 97 l 97 129 m 97 97 l 129 97 l 129 65 l 97 65 l 97 97 m 129 97 l 161 97 l 161 65 l 129 65 l 129 97 m 161 97 l 194 97 l 194 65 l 161 65 l 161 97 m 194 161 l 226 161 l 226 129 l 194 129 l 194 161 m 161 161 l 194 161 l 194 129 l 161 129 l 161 161 m 161 194 l 194 194 l 194 161 l 161 161 l 161 194 m 129 194 l 161 194 l 161 161 l 129 161 l 129 194 m 129 161 l 161 161 l 161 129 l 129 129 l 129 161 m 97 161 l 129 161 l 129 129 l 97 129 l 97 161 m 97 194 l 129 194 l 129 161 l 97 161 l 97 194 m 194 194 l 226 194 l 226 161 l 194 161 l 194 194 m 194 226 l 226 226 l 226 194 l 194 194 l 194 226 m 194 258 l 226 258 l 226 226 l 194 226 l 194 258 m 161 258 l 194 258 l 194 226 l 161 226 l 161 258 m 129 258 l 161 258 l 161 226 l 129 226 l 129 258 m 97 258 l 129 258 l 129 226 l 97 226 l 97 258 m 97 226 l 129 226 l 129 194 l 97 194 l 97 226 m 129 226 l 161 226 l 161 194 l 129 194 l 129 226 m 161 226 l 194 226 l 194 194 l 161 194 l 161 226 m 97 549 l 129 549 l 129 517 l 97 517 l 97 549 m 129 549 l 161 549 l 161 517 l 129 517 l 129 549 m 161 549 l 194 549 l 194 517 l 161 517 l 161 549 m 194 549 l 226 549 l 226 517 l 194 517 l 194 549 m 194 517 l 226 517 l 226 484 l 194 484 l 194 517 m 194 484 l 226 484 l 226 452 l 194 452 l 194 484 m 194 452 l 226 452 l 226 420 l 194 420 l 194 452 m 194 420 l 226 420 l 226 388 l 194 388 l 194 420 m 194 388 l 226 388 l 226 355 l 194 355 l 194 388 m 194 355 l 226 355 l 226 323 l 194 323 l 194 355 m 194 323 l 226 323 l 226 291 l 194 291 l 194 323 m 194 291 l 226 291 l 226 258 l 194 258 l 194 291 m 161 291 l 194 291 l 194 258 l 161 258 l 161 291 m 129 291 l 161 291 l 161 258 l 129 258 l 129 291 m 97 291 l 129 291 l 129 258 l 97 258 l 97 291 m 97 323 l 129 323 l 129 291 l 97 291 l 97 323 m 97 355 l 129 355 l 129 323 l 97 323 l 97 355 m 97 388 l 129 388 l 129 355 l 97 355 l 97 388 m 97 420 l 129 420 l 129 388 l 97 388 l 97 420 m 97 452 l 129 452 l 129 420 l 97 420 l 97 452 m 97 484 l 129 484 l 129 452 l 97 452 l 97 484 m 97 517 l 129 517 l 129 484 l 97 484 l 97 517 m 129 517 l 161 517 l 161 484 l 129 484 l 129 517 m 161 517 l 194 517 l 194 484 l 161 484 l 161 517 m 161 484 l 194 484 l 194 452 l 161 452 l 161 484 m 161 452 l 194 452 l 194 420 l 161 420 l 161 452 m 161 420 l 194 420 l 194 388 l 161 388 l 161 420 m 161 388 l 194 388 l 194 355 l 161 355 l 161 388 m 161 355 l 194 355 l 194 323 l 161 323 l 161 355 m 129 355 l 161 355 l 161 323 l 129 323 l 129 355 m 129 323 l 161 323 l 161 291 l 129 291 l 129 323 m 129 388 l 161 388 l 161 355 l 129 355 l 129 388 m 129 420 l 161 420 l 161 388 l 129 388 l 129 420 m 129 452 l 161 452 l 161 420 l 129 420 l 129 452 m 129 484 l 161 484 l 161 452 l 129 452 l 129 484 m 161 323 l 194 323 l 194 291 l 161 291 l 161 323 m 65 484 l 97 484 l 97 452 l 65 452 l 65 484 m 32 484 l 65 484 l 65 452 l 32 452 l 32 484 m 32 452 l 65 452 l 65 420 l 32 420 l 32 452 m 65 452 l 97 452 l 97 420 l 65 420 l 65 452 m 65 517 l 97 517 l 97 484 l 65 484 l 65 517 z "},"2":{"ha":452,"x_min":32,"x_max":420,"o":"m 32 32 l 65 32 l 65 0 l 32 0 l 32 32 m 32 65 l 65 65 l 65 32 l 32 32 l 32 65 m 65 65 l 97 65 l 97 32 l 65 32 l 65 65 m 65 32 l 97 32 l 97 0 l 65 0 l 65 32 m 97 97 l 129 97 l 129 65 l 97 65 l 97 97 m 97 129 l 129 129 l 129 97 l 97 97 l 97 129 m 129 129 l 161 129 l 161 97 l 129 97 l 129 129 m 129 97 l 161 97 l 161 65 l 129 65 l 129 97 m 161 161 l 194 161 l 194 129 l 161 129 l 161 161 m 161 194 l 194 194 l 194 161 l 161 161 l 161 194 m 194 194 l 226 194 l 226 161 l 194 161 l 194 194 m 194 161 l 226 161 l 226 129 l 194 129 l 194 161 m 161 97 l 194 97 l 194 65 l 161 65 l 161 97 m 161 129 l 194 129 l 194 97 l 161 97 l 161 129 m 194 129 l 226 129 l 226 97 l 194 97 l 194 129 m 194 97 l 226 97 l 226 65 l 194 65 l 194 97 m 226 226 l 258 226 l 258 194 l 226 194 l 226 226 m 226 258 l 258 258 l 258 226 l 226 226 l 226 258 m 258 258 l 291 258 l 291 226 l 258 226 l 258 258 m 258 226 l 291 226 l 291 194 l 258 194 l 258 226 m 258 291 l 291 291 l 291 258 l 258 258 l 258 291 m 226 452 l 258 452 l 258 420 l 226 420 l 226 452 m 226 484 l 258 484 l 258 452 l 226 452 l 226 484 m 258 484 l 291 484 l 291 452 l 258 452 l 258 484 m 258 452 l 291 452 l 291 420 l 258 420 l 258 452 m 291 484 l 323 484 l 323 452 l 291 452 l 291 484 m 323 484 l 355 484 l 355 452 l 323 452 l 323 484 m 323 452 l 355 452 l 355 420 l 323 420 l 323 452 m 291 452 l 323 452 l 323 420 l 291 420 l 291 452 m 291 420 l 323 420 l 323 388 l 291 388 l 291 420 m 291 388 l 323 388 l 323 355 l 291 355 l 291 388 m 291 323 l 323 323 l 323 291 l 291 291 l 291 323 m 291 291 l 323 291 l 323 258 l 291 258 l 291 291 m 323 291 l 355 291 l 355 258 l 323 258 l 323 291 m 323 323 l 355 323 l 355 291 l 323 291 l 323 323 m 323 388 l 355 388 l 355 355 l 323 355 l 323 388 m 323 420 l 355 420 l 355 388 l 323 388 l 323 420 m 258 517 l 291 517 l 291 484 l 258 484 l 258 517 m 258 549 l 291 549 l 291 517 l 258 517 l 258 549 m 226 549 l 258 549 l 258 517 l 226 517 l 226 549 m 226 517 l 258 517 l 258 484 l 226 484 l 226 517 m 194 549 l 226 549 l 226 517 l 194 517 l 194 549 m 161 549 l 194 549 l 194 517 l 161 517 l 161 549 m 161 517 l 194 517 l 194 484 l 161 484 l 161 517 m 194 517 l 226 517 l 226 484 l 194 484 l 194 517 m 129 484 l 161 484 l 161 452 l 129 452 l 129 484 m 97 484 l 129 484 l 129 452 l 97 452 l 97 484 m 97 452 l 129 452 l 129 420 l 97 420 l 97 452 m 129 452 l 161 452 l 161 420 l 129 420 l 129 452 m 65 420 l 97 420 l 97 388 l 65 388 l 65 420 m 32 420 l 65 420 l 65 388 l 32 388 l 32 420 m 32 388 l 65 388 l 65 355 l 32 355 l 32 388 m 65 388 l 97 388 l 97 355 l 65 355 l 65 388 m 194 484 l 226 484 l 226 452 l 194 452 l 194 484 m 161 484 l 194 484 l 194 452 l 161 452 l 161 484 m 97 65 l 129 65 l 129 32 l 97 32 l 97 65 m 129 65 l 161 65 l 161 32 l 129 32 l 129 65 m 161 65 l 194 65 l 194 32 l 161 32 l 161 65 m 194 65 l 226 65 l 226 32 l 194 32 l 194 65 m 226 65 l 258 65 l 258 32 l 226 32 l 226 65 m 226 32 l 258 32 l 258 0 l 226 0 l 226 32 m 194 32 l 226 32 l 226 0 l 194 0 l 194 32 m 161 32 l 194 32 l 194 0 l 161 0 l 161 32 m 129 32 l 161 32 l 161 0 l 129 0 l 129 32 m 97 32 l 129 32 l 129 0 l 97 0 l 97 32 m 226 129 l 258 129 l 258 97 l 226 97 l 226 129 m 258 129 l 291 129 l 291 97 l 258 97 l 258 129 m 291 129 l 323 129 l 323 97 l 291 97 l 291 129 m 323 129 l 355 129 l 355 97 l 323 97 l 323 129 m 355 129 l 388 129 l 388 97 l 355 97 l 355 129 m 355 97 l 388 97 l 388 65 l 355 65 l 355 97 m 323 97 l 355 97 l 355 65 l 323 65 l 323 97 m 291 97 l 323 97 l 323 65 l 291 65 l 291 97 m 258 97 l 291 97 l 291 65 l 258 65 l 258 97 m 226 97 l 258 97 l 258 65 l 226 65 l 226 97 m 388 129 l 420 129 l 420 97 l 388 97 l 388 129 m 323 65 l 355 65 l 355 32 l 323 32 l 323 65 m 291 65 l 323 65 l 323 32 l 291 32 l 291 65 m 291 32 l 323 32 l 323 0 l 291 0 l 291 32 m 258 65 l 291 65 l 291 32 l 258 32 l 258 65 m 258 32 l 291 32 l 291 0 l 258 0 l 258 32 m 291 355 l 323 355 l 323 323 l 291 323 l 291 355 m 323 355 l 355 355 l 355 323 l 323 323 l 323 355 m 355 452 l 388 452 l 388 420 l 355 420 l 355 452 m 355 420 l 388 420 l 388 388 l 355 388 l 355 420 m 355 388 l 388 388 l 388 355 l 355 355 l 355 388 m 355 355 l 388 355 l 388 323 l 355 323 l 355 355 m 355 323 l 388 323 l 388 291 l 355 291 l 355 323 m 194 226 l 226 226 l 226 194 l 194 194 l 194 226 m 226 194 l 258 194 l 258 161 l 226 161 l 226 194 m 129 161 l 161 161 l 161 129 l 129 129 l 129 161 m 65 97 l 97 97 l 97 65 l 65 65 l 65 97 m 291 258 l 323 258 l 323 226 l 291 226 l 291 258 m 291 517 l 323 517 l 323 484 l 291 484 l 291 517 m 129 517 l 161 517 l 161 484 l 129 484 l 129 517 m 65 452 l 97 452 l 97 420 l 65 420 l 65 452 m 97 420 l 129 420 l 129 388 l 97 388 l 97 420 m 258 420 l 291 420 l 291 388 l 258 388 l 258 420 m 291 549 l 323 549 l 323 517 l 291 517 l 291 549 m 323 517 l 355 517 l 355 484 l 323 484 l 323 517 m 355 484 l 388 484 l 388 452 l 355 452 l 355 484 z "},"3":{"ha":388,"x_min":32,"x_max":355,"o":"m 65 484 l 97 484 l 97 452 l 65 452 l 65 484 m 32 484 l 65 484 l 65 452 l 32 452 l 32 484 m 32 452 l 65 452 l 65 420 l 32 420 l 32 452 m 65 452 l 97 452 l 97 420 l 65 420 l 65 452 m 97 517 l 129 517 l 129 484 l 97 484 l 97 517 m 97 549 l 129 549 l 129 517 l 97 517 l 97 549 m 129 549 l 161 549 l 161 517 l 129 517 l 129 549 m 129 517 l 161 517 l 161 484 l 129 484 l 129 517 m 161 549 l 194 549 l 194 517 l 161 517 l 161 549 m 194 549 l 226 549 l 226 517 l 194 517 l 194 549 m 194 517 l 226 517 l 226 484 l 194 484 l 194 517 m 161 517 l 194 517 l 194 484 l 161 484 l 161 517 m 226 484 l 258 484 l 258 452 l 226 452 l 226 484 m 258 484 l 291 484 l 291 452 l 258 452 l 258 484 m 258 452 l 291 452 l 291 420 l 258 420 l 258 452 m 226 452 l 258 452 l 258 420 l 226 420 l 226 452 m 291 484 l 323 484 l 323 452 l 291 452 l 291 484 m 291 452 l 323 452 l 323 420 l 291 420 l 291 452 m 323 484 l 355 484 l 355 452 l 323 452 l 323 484 m 258 420 l 291 420 l 291 388 l 258 388 l 258 420 m 226 420 l 258 420 l 258 388 l 226 388 l 226 420 m 226 388 l 258 388 l 258 355 l 226 355 l 226 388 m 194 388 l 226 388 l 226 355 l 194 355 l 194 388 m 194 484 l 226 484 l 226 452 l 194 452 l 194 484 m 161 484 l 194 484 l 194 452 l 161 452 l 161 484 m 129 484 l 161 484 l 161 452 l 129 452 l 129 484 m 97 484 l 129 484 l 129 452 l 97 452 l 97 484 m 97 452 l 129 452 l 129 420 l 97 420 l 97 452 m 129 452 l 161 452 l 161 420 l 129 420 l 129 452 m 161 452 l 194 452 l 194 420 l 161 420 l 161 452 m 194 452 l 226 452 l 226 420 l 194 420 l 194 452 m 194 355 l 226 355 l 226 323 l 194 323 l 194 355 m 161 355 l 194 355 l 194 323 l 161 323 l 161 355 m 194 323 l 226 323 l 226 291 l 194 291 l 194 323 m 161 323 l 194 323 l 194 291 l 161 291 l 161 323 m 129 291 l 161 291 l 161 258 l 129 258 l 129 291 m 97 291 l 129 291 l 129 258 l 97 258 l 97 291 m 129 258 l 161 258 l 161 226 l 129 226 l 129 258 m 161 291 l 194 291 l 194 258 l 161 258 l 161 291 m 194 291 l 226 291 l 226 258 l 194 258 l 194 291 m 226 291 l 258 291 l 258 258 l 226 258 l 226 291 m 258 258 l 291 258 l 291 226 l 258 226 l 258 258 m 226 258 l 258 258 l 258 226 l 226 226 l 226 258 m 194 258 l 226 258 l 226 226 l 194 226 l 194 258 m 161 258 l 194 258 l 194 226 l 161 226 l 161 258 m 161 226 l 194 226 l 194 194 l 161 194 l 161 226 m 194 226 l 226 226 l 226 194 l 194 194 l 194 226 m 194 194 l 226 194 l 226 161 l 194 161 l 194 194 m 226 226 l 258 226 l 258 194 l 226 194 l 226 226 m 258 226 l 291 226 l 291 194 l 258 194 l 258 226 m 291 226 l 323 226 l 323 194 l 291 194 l 291 226 m 323 194 l 355 194 l 355 161 l 323 161 l 323 194 m 291 194 l 323 194 l 323 161 l 291 161 l 291 194 m 258 194 l 291 194 l 291 161 l 258 161 l 258 194 m 226 194 l 258 194 l 258 161 l 226 161 l 226 194 m 323 161 l 355 161 l 355 129 l 323 129 l 323 161 m 291 161 l 323 161 l 323 129 l 291 129 l 291 161 m 291 129 l 323 129 l 323 97 l 291 97 l 291 129 m 323 129 l 355 129 l 355 97 l 323 97 l 323 129 m 323 97 l 355 97 l 355 65 l 323 65 l 323 97 m 291 97 l 323 97 l 323 65 l 291 65 l 291 97 m 323 65 l 355 65 l 355 32 l 323 32 l 323 65 m 291 65 l 323 65 l 323 32 l 291 32 l 291 65 m 258 161 l 291 161 l 291 129 l 258 129 l 258 161 m 226 161 l 258 161 l 258 129 l 226 129 l 226 161 m 226 129 l 258 129 l 258 97 l 226 97 l 226 129 m 258 129 l 291 129 l 291 97 l 258 97 l 258 129 m 258 97 l 291 97 l 291 65 l 258 65 l 258 97 m 258 65 l 291 65 l 291 32 l 258 32 l 258 65 m 226 97 l 258 97 l 258 65 l 226 65 l 226 97 m 226 65 l 258 65 l 258 32 l 226 32 l 226 65 m 226 32 l 258 32 l 258 0 l 226 0 l 226 32 m 258 32 l 291 32 l 291 0 l 258 0 l 258 32 m 258 0 l 291 0 l 291 -32 l 258 -32 l 258 0 m 226 0 l 258 0 l 258 -32 l 226 -32 l 226 0 m 291 32 l 323 32 l 323 0 l 291 0 l 291 32 m 323 32 l 355 32 l 355 0 l 323 0 l 323 32 m 258 -32 l 291 -32 l 291 -65 l 258 -65 l 258 -32 m 226 -32 l 258 -32 l 258 -65 l 226 -65 l 226 -32 m 161 -65 l 194 -65 l 194 -97 l 161 -97 l 161 -65 m 161 -97 l 194 -97 l 194 -129 l 161 -129 l 161 -97 m 194 -97 l 226 -97 l 226 -129 l 194 -129 l 194 -97 m 129 -32 l 161 -32 l 161 -65 l 129 -65 l 129 -32 m 97 0 l 129 0 l 129 -32 l 97 -32 l 97 0 m 97 -32 l 129 -32 l 129 -65 l 97 -65 l 97 -32 m 129 -65 l 161 -65 l 161 -97 l 129 -97 l 129 -65 m 65 -32 l 97 -32 l 97 -65 l 65 -65 l 65 -32 m 97 -65 l 129 -65 l 129 -97 l 97 -97 l 97 -65 m 129 -97 l 161 -97 l 161 -129 l 129 -129 l 129 -97 m 161 -129 l 194 -129 l 194 -161 l 161 -161 l 161 -129 m 226 -65 l 258 -65 l 258 -97 l 226 -97 l 226 -65 m 291 0 l 323 0 l 323 -32 l 291 -32 l 291 0 m 32 -65 l 65 -65 l 65 -97 l 32 -97 l 32 -65 m 65 -65 l 97 -65 l 97 -97 l 65 -97 l 65 -65 m 65 -97 l 97 -97 l 97 -129 l 65 -129 l 65 -97 m 97 -97 l 129 -97 l 129 -129 l 97 -129 l 97 -97 m 97 -129 l 129 -129 l 129 -161 l 97 -161 l 97 -129 m 129 -129 l 161 -129 l 161 -161 l 129 -161 l 129 -129 m 129 -161 l 161 -161 l 161 -194 l 129 -194 l 129 -161 m 129 323 l 161 323 l 161 291 l 129 291 l 129 323 m 65 517 l 97 517 l 97 484 l 65 484 l 65 517 m 226 517 l 258 517 l 258 484 l 226 484 l 226 517 m 258 517 l 291 517 l 291 484 l 258 484 l 258 517 z "},"4":{"ha":517,"x_min":32,"x_max":484,"o":"m 323 -129 l 355 -129 l 355 -161 l 323 -161 l 323 -129 m 291 -129 l 323 -129 l 323 -161 l 291 -161 l 291 -129 m 291 -161 l 323 -161 l 323 -194 l 291 -194 l 291 -161 m 388 -65 l 420 -65 l 420 -97 l 388 -97 l 388 -65 m 355 -65 l 388 -65 l 388 -97 l 355 -97 l 355 -65 m 323 -65 l 355 -65 l 355 -97 l 323 -97 l 323 -65 m 291 -65 l 323 -65 l 323 -97 l 291 -97 l 291 -65 m 291 -97 l 323 -97 l 323 -129 l 291 -129 l 291 -97 m 323 -97 l 355 -97 l 355 -129 l 323 -129 l 323 -97 m 355 -97 l 388 -97 l 388 -129 l 355 -129 l 355 -97 m 388 -32 l 420 -32 l 420 -65 l 388 -65 l 388 -32 m 355 -32 l 388 -32 l 388 -65 l 355 -65 l 355 -32 m 355 0 l 388 0 l 388 -32 l 355 -32 l 355 0 m 323 0 l 355 0 l 355 -32 l 323 -32 l 323 0 m 323 -32 l 355 -32 l 355 -65 l 323 -65 l 323 -32 m 291 -32 l 323 -32 l 323 -65 l 291 -65 l 291 -32 m 291 0 l 323 0 l 323 -32 l 291 -32 l 291 0 m 388 0 l 420 0 l 420 -32 l 388 -32 l 388 0 m 388 226 l 420 226 l 420 194 l 388 194 l 388 226 m 388 258 l 420 258 l 420 226 l 388 226 l 388 258 m 355 258 l 388 258 l 388 226 l 355 226 l 355 258 m 323 258 l 355 258 l 355 226 l 323 226 l 323 258 m 291 258 l 323 258 l 323 226 l 291 226 l 291 258 m 291 226 l 323 226 l 323 194 l 291 194 l 291 226 m 323 226 l 355 226 l 355 194 l 323 194 l 323 226 m 355 226 l 388 226 l 388 194 l 355 194 l 355 226 m 355 549 l 388 549 l 388 517 l 355 517 l 355 549 m 388 549 l 420 549 l 420 517 l 388 517 l 388 549 m 388 517 l 420 517 l 420 484 l 388 484 l 388 517 m 388 484 l 420 484 l 420 452 l 388 452 l 388 484 m 388 452 l 420 452 l 420 420 l 388 420 l 388 452 m 388 420 l 420 420 l 420 388 l 388 388 l 388 420 m 388 388 l 420 388 l 420 355 l 388 355 l 388 388 m 388 355 l 420 355 l 420 323 l 388 323 l 388 355 m 388 323 l 420 323 l 420 291 l 388 291 l 388 323 m 388 291 l 420 291 l 420 258 l 388 258 l 388 291 m 355 291 l 388 291 l 388 258 l 355 258 l 355 291 m 323 291 l 355 291 l 355 258 l 323 258 l 323 291 m 291 291 l 323 291 l 323 258 l 291 258 l 291 291 m 291 323 l 323 323 l 323 291 l 291 291 l 291 323 m 291 355 l 323 355 l 323 323 l 291 323 l 291 355 m 291 388 l 323 388 l 323 355 l 291 355 l 291 388 m 291 420 l 323 420 l 323 388 l 291 388 l 291 420 m 291 452 l 323 452 l 323 420 l 291 420 l 291 452 m 291 484 l 323 484 l 323 452 l 291 452 l 291 484 m 355 517 l 388 517 l 388 484 l 355 484 l 355 517 m 355 484 l 388 484 l 388 452 l 355 452 l 355 484 m 355 452 l 388 452 l 388 420 l 355 420 l 355 452 m 355 420 l 388 420 l 388 388 l 355 388 l 355 420 m 355 388 l 388 388 l 388 355 l 355 355 l 355 388 m 355 355 l 388 355 l 388 323 l 355 323 l 355 355 m 323 355 l 355 355 l 355 323 l 323 323 l 323 355 m 323 323 l 355 323 l 355 291 l 323 291 l 323 323 m 323 388 l 355 388 l 355 355 l 323 355 l 323 388 m 323 420 l 355 420 l 355 388 l 323 388 l 323 420 m 323 452 l 355 452 l 355 420 l 323 420 l 323 452 m 323 484 l 355 484 l 355 452 l 323 452 l 323 484 m 355 323 l 388 323 l 388 291 l 355 291 l 355 323 m 388 194 l 420 194 l 420 161 l 388 161 l 388 194 m 388 161 l 420 161 l 420 129 l 388 129 l 388 161 m 388 129 l 420 129 l 420 97 l 388 97 l 388 129 m 388 97 l 420 97 l 420 65 l 388 65 l 388 97 m 388 65 l 420 65 l 420 32 l 388 32 l 388 65 m 388 32 l 420 32 l 420 0 l 388 0 l 388 32 m 355 32 l 388 32 l 388 0 l 355 0 l 355 32 m 323 32 l 355 32 l 355 0 l 323 0 l 323 32 m 291 32 l 323 32 l 323 0 l 291 0 l 291 32 m 291 65 l 323 65 l 323 32 l 291 32 l 291 65 m 291 97 l 323 97 l 323 65 l 291 65 l 291 97 m 291 129 l 323 129 l 323 97 l 291 97 l 291 129 m 291 161 l 323 161 l 323 129 l 291 129 l 291 161 m 291 194 l 323 194 l 323 161 l 291 161 l 291 194 m 323 194 l 355 194 l 355 161 l 323 161 l 323 194 m 355 194 l 388 194 l 388 161 l 355 161 l 355 194 m 355 161 l 388 161 l 388 129 l 355 129 l 355 161 m 355 129 l 388 129 l 388 97 l 355 97 l 355 129 m 355 97 l 388 97 l 388 65 l 355 65 l 355 97 m 355 65 l 388 65 l 388 32 l 355 32 l 355 65 m 323 97 l 355 97 l 355 65 l 323 65 l 323 97 m 323 129 l 355 129 l 355 97 l 323 97 l 323 129 m 323 161 l 355 161 l 355 129 l 323 129 l 323 161 m 323 65 l 355 65 l 355 32 l 323 32 l 323 65 m 258 420 l 291 420 l 291 388 l 258 388 l 258 420 m 226 420 l 258 420 l 258 388 l 226 388 l 226 420 m 226 388 l 258 388 l 258 355 l 226 355 l 226 388 m 258 388 l 291 388 l 291 355 l 258 355 l 258 388 m 161 355 l 194 355 l 194 323 l 161 323 l 161 355 m 161 323 l 194 323 l 194 291 l 161 291 l 161 323 m 194 323 l 226 323 l 226 291 l 194 291 l 194 323 m 194 355 l 226 355 l 226 323 l 194 323 l 194 355 m 129 291 l 161 291 l 161 258 l 129 258 l 129 291 m 97 291 l 129 291 l 129 258 l 97 258 l 97 291 m 97 258 l 129 258 l 129 226 l 97 226 l 97 258 m 129 258 l 161 258 l 161 226 l 129 226 l 129 258 m 65 226 l 97 226 l 97 194 l 65 194 l 65 226 m 32 226 l 65 226 l 65 194 l 32 194 l 32 226 m 32 194 l 65 194 l 65 161 l 32 161 l 32 194 m 65 194 l 97 194 l 97 161 l 65 161 l 65 194 m 65 161 l 97 161 l 97 129 l 65 129 l 65 161 m 32 161 l 65 161 l 65 129 l 32 129 l 32 161 m 32 129 l 65 129 l 65 97 l 32 97 l 32 129 m 65 129 l 97 129 l 97 97 l 65 97 l 65 129 m 97 161 l 129 161 l 129 129 l 97 129 l 97 161 m 129 161 l 161 161 l 161 129 l 129 129 l 129 161 m 129 194 l 161 194 l 161 161 l 129 161 l 129 194 m 97 226 l 129 226 l 129 194 l 97 194 l 97 226 m 97 194 l 129 194 l 129 161 l 97 161 l 97 194 m 97 129 l 129 129 l 129 97 l 97 97 l 97 129 m 129 129 l 161 129 l 161 97 l 129 97 l 129 129 m 161 129 l 194 129 l 194 97 l 161 97 l 161 129 m 161 194 l 194 194 l 194 161 l 161 161 l 161 194 m 161 161 l 194 161 l 194 129 l 161 129 l 161 161 m 194 161 l 226 161 l 226 129 l 194 129 l 194 161 m 226 194 l 258 194 l 258 161 l 226 161 l 226 194 m 194 194 l 226 194 l 226 161 l 194 161 l 194 194 m 258 194 l 291 194 l 291 161 l 258 161 l 258 194 m 258 161 l 291 161 l 291 129 l 258 129 l 258 161 m 258 129 l 291 129 l 291 97 l 258 97 l 258 129 m 226 129 l 258 129 l 258 97 l 226 97 l 226 129 m 194 129 l 226 129 l 226 97 l 194 97 l 194 129 m 226 161 l 258 161 l 258 129 l 226 129 l 226 161 m 420 194 l 452 194 l 452 161 l 420 161 l 420 194 m 65 258 l 97 258 l 97 226 l 65 226 l 65 258 m 129 323 l 161 323 l 161 291 l 129 291 l 129 323 m 194 388 l 226 388 l 226 355 l 194 355 l 194 388 m 258 452 l 291 452 l 291 420 l 258 420 l 258 452 m 323 517 l 355 517 l 355 484 l 323 484 l 323 517 m 226 355 l 258 355 l 258 323 l 226 323 l 226 355 m 161 291 l 194 291 l 194 258 l 161 258 l 161 291 m 452 194 l 484 194 l 484 161 l 452 161 l 452 194 m 420 161 l 452 161 l 452 129 l 420 129 l 420 161 z "},"5":{"ha":388,"x_min":32,"x_max":355,"o":"m 323 549 l 355 549 l 355 517 l 323 517 l 323 549 m 291 549 l 323 549 l 323 517 l 291 517 l 291 549 m 291 517 l 323 517 l 323 484 l 291 484 l 291 517 m 258 484 l 291 484 l 291 452 l 258 452 l 258 484 m 226 484 l 258 484 l 258 452 l 226 452 l 226 484 m 226 452 l 258 452 l 258 420 l 226 420 l 226 452 m 258 517 l 291 517 l 291 484 l 258 484 l 258 517 m 258 549 l 291 549 l 291 517 l 258 517 l 258 549 m 226 549 l 258 549 l 258 517 l 226 517 l 226 549 m 226 517 l 258 517 l 258 484 l 226 484 l 226 517 m 194 484 l 226 484 l 226 452 l 194 452 l 194 484 m 161 484 l 194 484 l 194 452 l 161 452 l 161 484 m 161 452 l 194 452 l 194 420 l 161 420 l 161 452 m 194 452 l 226 452 l 226 420 l 194 420 l 194 452 m 129 484 l 161 484 l 161 452 l 129 452 l 129 484 m 97 484 l 129 484 l 129 452 l 97 452 l 97 484 m 129 452 l 161 452 l 161 420 l 129 420 l 129 452 m 194 549 l 226 549 l 226 517 l 194 517 l 194 549 m 194 517 l 226 517 l 226 484 l 194 484 l 194 517 m 161 517 l 194 517 l 194 484 l 161 484 l 161 517 m 129 517 l 161 517 l 161 484 l 129 484 l 129 517 m 65 420 l 97 420 l 97 388 l 65 388 l 65 420 m 32 388 l 65 388 l 65 355 l 32 355 l 32 388 m 65 388 l 97 388 l 97 355 l 65 355 l 65 388 m 32 355 l 65 355 l 65 323 l 32 323 l 32 355 m 65 355 l 97 355 l 97 323 l 65 323 l 65 355 m 65 323 l 97 323 l 97 291 l 65 291 l 65 323 m 32 323 l 65 323 l 65 291 l 32 291 l 32 323 m 32 291 l 65 291 l 65 258 l 32 258 l 32 291 m 65 291 l 97 291 l 97 258 l 65 258 l 65 291 m 65 258 l 97 258 l 97 226 l 65 226 l 65 258 m 97 355 l 129 355 l 129 323 l 97 323 l 97 355 m 129 355 l 161 355 l 161 323 l 129 323 l 129 355 m 161 355 l 194 355 l 194 323 l 161 323 l 161 355 m 194 355 l 226 355 l 226 323 l 194 323 l 194 355 m 226 355 l 258 355 l 258 323 l 226 323 l 226 355 m 258 355 l 291 355 l 291 323 l 258 323 l 258 355 m 258 323 l 291 323 l 291 291 l 258 291 l 258 323 m 258 291 l 291 291 l 291 258 l 258 258 l 258 291 m 226 291 l 258 291 l 258 258 l 226 258 l 226 291 m 194 291 l 226 291 l 226 258 l 194 258 l 194 291 m 161 258 l 194 258 l 194 226 l 161 226 l 161 258 m 129 258 l 161 258 l 161 226 l 129 226 l 129 258 m 129 291 l 161 291 l 161 258 l 129 258 l 129 291 m 97 291 l 129 291 l 129 258 l 97 258 l 97 291 m 97 323 l 129 323 l 129 291 l 97 291 l 97 323 m 129 323 l 161 323 l 161 291 l 129 291 l 129 323 m 161 323 l 194 323 l 194 291 l 161 291 l 161 323 m 194 323 l 226 323 l 226 291 l 194 291 l 194 323 m 226 323 l 258 323 l 258 291 l 226 291 l 226 323 m 226 258 l 258 258 l 258 226 l 226 226 l 226 258 m 194 258 l 226 258 l 226 226 l 194 226 l 194 258 m 97 258 l 129 258 l 129 226 l 97 226 l 97 258 m 161 291 l 194 291 l 194 258 l 161 258 l 161 291 m 258 258 l 291 258 l 291 226 l 258 226 l 258 258 m 291 291 l 323 291 l 323 258 l 291 258 l 291 291 m 323 291 l 355 291 l 355 258 l 323 258 l 323 291 m 323 258 l 355 258 l 355 226 l 323 226 l 323 258 m 291 258 l 323 258 l 323 226 l 291 226 l 291 258 m 323 226 l 355 226 l 355 194 l 323 194 l 323 226 m 291 226 l 323 226 l 323 194 l 291 194 l 291 226 m 258 226 l 291 226 l 291 194 l 258 194 l 258 226 m 226 226 l 258 226 l 258 194 l 226 194 l 226 226 m 226 194 l 258 194 l 258 161 l 226 161 l 226 194 m 226 161 l 258 161 l 258 129 l 226 129 l 226 161 m 258 161 l 291 161 l 291 129 l 258 129 l 258 161 m 291 161 l 323 161 l 323 129 l 291 129 l 291 161 m 323 161 l 355 161 l 355 129 l 323 129 l 323 161 m 323 194 l 355 194 l 355 161 l 323 161 l 323 194 m 291 194 l 323 194 l 323 161 l 291 161 l 291 194 m 258 194 l 291 194 l 291 161 l 258 161 l 258 194 m 32 65 l 65 65 l 65 32 l 32 32 l 32 65 m 65 65 l 97 65 l 97 32 l 65 32 l 65 65 m 65 32 l 97 32 l 97 0 l 65 0 l 65 32 m 32 32 l 65 32 l 65 0 l 32 0 l 32 32 m 97 65 l 129 65 l 129 32 l 97 32 l 97 65 m 129 65 l 161 65 l 161 32 l 129 32 l 129 65 m 129 32 l 161 32 l 161 0 l 129 0 l 129 32 m 97 32 l 129 32 l 129 0 l 97 0 l 97 32 m 226 65 l 258 65 l 258 32 l 226 32 l 226 65 m 226 97 l 258 97 l 258 65 l 226 65 l 226 97 m 226 129 l 258 129 l 258 97 l 226 97 l 226 129 m 258 129 l 291 129 l 291 97 l 258 97 l 258 129 m 291 129 l 323 129 l 323 97 l 291 97 l 291 129 m 323 129 l 355 129 l 355 97 l 323 97 l 323 129 m 323 97 l 355 97 l 355 65 l 323 65 l 323 97 m 323 65 l 355 65 l 355 32 l 323 32 l 323 65 m 323 32 l 355 32 l 355 0 l 323 0 l 323 32 m 291 32 l 323 32 l 323 0 l 291 0 l 291 32 m 258 32 l 291 32 l 291 0 l 258 0 l 258 32 m 226 32 l 258 32 l 258 0 l 226 0 l 226 32 m 258 97 l 291 97 l 291 65 l 258 65 l 258 97 m 291 97 l 323 97 l 323 65 l 291 65 l 291 97 m 291 65 l 323 65 l 323 32 l 291 32 l 291 65 m 258 65 l 291 65 l 291 32 l 258 32 l 258 65 m 226 0 l 258 0 l 258 -32 l 226 -32 l 226 0 m 258 0 l 291 0 l 291 -32 l 258 -32 l 258 0 m 258 -32 l 291 -32 l 291 -65 l 258 -65 l 258 -32 m 226 -32 l 258 -32 l 258 -65 l 226 -65 l 226 -32 m 194 -65 l 226 -65 l 226 -97 l 194 -97 l 194 -65 m 161 -65 l 194 -65 l 194 -97 l 161 -97 l 161 -65 m 161 -97 l 194 -97 l 194 -129 l 161 -129 l 161 -97 m 194 -97 l 226 -97 l 226 -129 l 194 -129 l 194 -97 m 129 -129 l 161 -129 l 161 -161 l 129 -161 l 129 -129 m 97 -129 l 129 -129 l 129 -161 l 97 -161 l 97 -129 m 97 -161 l 129 -161 l 129 -194 l 97 -194 l 97 -161 m 129 -161 l 161 -161 l 161 -194 l 129 -194 l 129 -161 m 129 -97 l 161 -97 l 161 -129 l 129 -129 l 129 -97 m 129 -65 l 161 -65 l 161 -97 l 129 -97 l 129 -65 m 129 -32 l 161 -32 l 161 -65 l 129 -65 l 129 -32 m 129 0 l 161 0 l 161 -32 l 129 -32 l 129 0 m 97 0 l 129 0 l 129 -32 l 97 -32 l 97 0 m 65 0 l 97 0 l 97 -32 l 65 -32 l 65 0 m 32 0 l 65 0 l 65 -32 l 32 -32 l 32 0 m 32 -32 l 65 -32 l 65 -65 l 32 -65 l 32 -32 m 32 -65 l 65 -65 l 65 -97 l 32 -97 l 32 -65 m 32 -97 l 65 -97 l 65 -129 l 32 -129 l 32 -97 m 65 -97 l 97 -97 l 97 -129 l 65 -129 l 65 -97 m 97 -97 l 129 -97 l 129 -129 l 97 -129 l 97 -97 m 97 -65 l 129 -65 l 129 -97 l 97 -97 l 97 -65 m 97 -32 l 129 -32 l 129 -65 l 97 -65 l 97 -32 m 65 -32 l 97 -32 l 97 -65 l 65 -65 l 65 -32 m 65 -65 l 97 -65 l 97 -97 l 65 -97 l 65 -65 m 65 -129 l 97 -129 l 97 -161 l 65 -161 l 65 -129 m 161 -129 l 194 -129 l 194 -161 l 161 -161 l 161 -129 m 226 -65 l 258 -65 l 258 -97 l 226 -97 l 226 -65 m 194 -32 l 226 -32 l 226 -65 l 194 -65 l 194 -32 m 291 0 l 323 0 l 323 -32 l 291 -32 l 291 0 m 291 323 l 323 323 l 323 291 l 291 291 l 291 323 m 97 452 l 129 452 l 129 420 l 97 420 l 97 452 m 161 549 l 194 549 l 194 517 l 161 517 l 161 549 m 32 258 l 65 258 l 65 226 l 32 226 l 32 258 m 65 452 l 97 452 l 97 420 l 65 420 l 65 452 m 32 420 l 65 420 l 65 388 l 32 388 l 32 420 z "},"6":{"ha":420,"x_min":32,"x_max":388,"o":"m 32 549 l 65 549 l 65 517 l 32 517 l 32 549 m 65 549 l 97 549 l 97 517 l 65 517 l 65 549 m 65 517 l 97 517 l 97 484 l 65 484 l 65 517 m 32 517 l 65 517 l 65 484 l 32 484 l 32 517 m 97 549 l 129 549 l 129 517 l 97 517 l 97 549 m 97 517 l 129 517 l 129 484 l 97 484 l 97 517 m 129 549 l 161 549 l 161 517 l 129 517 l 129 549 m 129 517 l 161 517 l 161 484 l 129 484 l 129 517 m 129 484 l 161 484 l 161 452 l 129 452 l 129 484 m 129 452 l 161 452 l 161 420 l 129 420 l 129 452 m 129 420 l 161 420 l 161 388 l 129 388 l 129 420 m 129 388 l 161 388 l 161 355 l 129 355 l 129 388 m 129 355 l 161 355 l 161 323 l 129 323 l 129 355 m 129 129 l 161 129 l 161 97 l 129 97 l 129 129 m 129 97 l 161 97 l 161 65 l 129 65 l 129 97 m 97 97 l 129 97 l 129 65 l 97 65 l 97 97 m 65 97 l 97 97 l 97 65 l 65 65 l 65 97 m 32 97 l 65 97 l 65 65 l 32 65 l 32 97 m 32 129 l 65 129 l 65 97 l 32 97 l 32 129 m 32 161 l 65 161 l 65 129 l 32 129 l 32 161 m 32 194 l 65 194 l 65 161 l 32 161 l 32 194 m 32 226 l 65 226 l 65 194 l 32 194 l 32 226 m 32 258 l 65 258 l 65 226 l 32 226 l 32 258 m 32 291 l 65 291 l 65 258 l 32 258 l 32 291 m 32 323 l 65 323 l 65 291 l 32 291 l 32 323 m 32 355 l 65 355 l 65 323 l 32 323 l 32 355 m 32 388 l 65 388 l 65 355 l 32 355 l 32 388 m 32 420 l 65 420 l 65 388 l 32 388 l 32 420 m 32 452 l 65 452 l 65 420 l 32 420 l 32 452 m 32 484 l 65 484 l 65 452 l 32 452 l 32 484 m 65 484 l 97 484 l 97 452 l 65 452 l 65 484 m 97 484 l 129 484 l 129 452 l 97 452 l 97 484 m 97 452 l 129 452 l 129 420 l 97 420 l 97 452 m 97 420 l 129 420 l 129 388 l 97 388 l 97 420 m 97 388 l 129 388 l 129 355 l 97 355 l 97 388 m 65 388 l 97 388 l 97 355 l 65 355 l 65 388 m 65 355 l 97 355 l 97 323 l 65 323 l 65 355 m 65 323 l 97 323 l 97 291 l 65 291 l 65 323 m 65 291 l 97 291 l 97 258 l 65 258 l 65 291 m 65 258 l 97 258 l 97 226 l 65 226 l 65 258 m 65 226 l 97 226 l 97 194 l 65 194 l 65 226 m 65 194 l 97 194 l 97 161 l 65 161 l 65 194 m 65 161 l 97 161 l 97 129 l 65 129 l 65 161 m 65 129 l 97 129 l 97 97 l 65 97 l 65 129 m 97 129 l 129 129 l 129 97 l 97 97 l 97 129 m 97 161 l 129 161 l 129 129 l 97 129 l 97 161 m 97 194 l 129 194 l 129 161 l 97 161 l 97 194 m 97 226 l 129 226 l 129 194 l 97 194 l 97 226 m 97 258 l 129 258 l 129 226 l 97 226 l 97 258 m 97 291 l 129 291 l 129 258 l 97 258 l 97 291 m 97 323 l 129 323 l 129 291 l 97 291 l 97 323 m 97 355 l 129 355 l 129 323 l 97 323 l 97 355 m 65 452 l 97 452 l 97 420 l 65 420 l 65 452 m 65 420 l 97 420 l 97 388 l 65 388 l 65 420 m 129 65 l 161 65 l 161 32 l 129 32 l 129 65 m 97 65 l 129 65 l 129 32 l 97 32 l 97 65 m 97 32 l 129 32 l 129 0 l 97 0 l 97 32 m 129 32 l 161 32 l 161 0 l 129 0 l 129 32 m 161 65 l 194 65 l 194 32 l 161 32 l 161 65 m 194 65 l 226 65 l 226 32 l 194 32 l 194 65 m 194 32 l 226 32 l 226 0 l 194 0 l 194 32 m 161 32 l 194 32 l 194 0 l 161 0 l 161 32 m 226 97 l 258 97 l 258 65 l 226 65 l 226 97 m 226 129 l 258 129 l 258 97 l 226 97 l 226 129 m 258 129 l 291 129 l 291 97 l 258 97 l 258 129 m 258 97 l 291 97 l 291 65 l 258 65 l 258 97 m 194 97 l 226 97 l 226 65 l 194 65 l 194 97 m 161 97 l 194 97 l 194 65 l 161 65 l 161 97 m 291 161 l 323 161 l 323 129 l 291 129 l 291 161 m 291 194 l 323 194 l 323 161 l 291 161 l 291 194 m 323 194 l 355 194 l 355 161 l 323 161 l 323 194 m 323 161 l 355 161 l 355 129 l 323 129 l 323 161 m 258 161 l 291 161 l 291 129 l 258 129 l 258 161 m 161 388 l 194 388 l 194 355 l 161 355 l 161 388 m 258 388 l 291 388 l 291 355 l 258 355 l 258 388 m 161 452 l 194 452 l 194 420 l 161 420 l 161 452 m 194 452 l 226 452 l 226 420 l 194 420 l 194 452 m 194 420 l 226 420 l 226 388 l 194 388 l 194 420 m 161 420 l 194 420 l 194 388 l 161 388 l 161 420 m 226 452 l 258 452 l 258 420 l 226 420 l 226 452 m 258 452 l 291 452 l 291 420 l 258 420 l 258 452 m 258 420 l 291 420 l 291 388 l 258 388 l 258 420 m 226 420 l 258 420 l 258 388 l 226 388 l 226 420 m 323 388 l 355 388 l 355 355 l 323 355 l 323 388 m 323 355 l 355 355 l 355 323 l 323 323 l 323 355 m 323 323 l 355 323 l 355 291 l 323 291 l 323 323 m 323 291 l 355 291 l 355 258 l 323 258 l 323 291 m 323 258 l 355 258 l 355 226 l 323 226 l 323 258 m 291 258 l 323 258 l 323 226 l 291 226 l 291 258 m 291 291 l 323 291 l 323 258 l 291 258 l 291 291 m 291 323 l 323 323 l 323 291 l 291 291 l 291 323 m 291 355 l 323 355 l 323 323 l 291 323 l 291 355 m 291 388 l 323 388 l 323 355 l 291 355 l 291 388 m 323 226 l 355 226 l 355 194 l 323 194 l 323 226 m 291 226 l 323 226 l 323 194 l 291 194 l 291 226 m 129 581 l 161 581 l 161 549 l 129 549 l 129 581 m 97 581 l 129 581 l 129 549 l 97 549 l 97 581 m 97 614 l 129 614 l 129 581 l 97 581 l 97 614 m 129 614 l 161 614 l 161 581 l 129 581 l 129 614 m 161 646 l 194 646 l 194 614 l 161 614 l 161 646 m 161 678 l 194 678 l 194 646 l 161 646 l 161 678 m 194 678 l 226 678 l 226 646 l 194 646 l 194 678 m 226 743 l 258 743 l 258 711 l 226 711 l 226 743 m 258 711 l 291 711 l 291 678 l 258 678 l 258 711 m 226 711 l 258 711 l 258 678 l 226 678 l 226 711 m 226 678 l 258 678 l 258 646 l 226 646 l 226 678 m 258 678 l 291 678 l 291 646 l 258 646 l 258 678 m 291 678 l 323 678 l 323 646 l 291 646 l 291 678 m 323 678 l 355 678 l 355 646 l 323 646 l 323 678 m 323 646 l 355 646 l 355 614 l 323 614 l 323 646 m 291 646 l 323 646 l 323 614 l 291 614 l 291 646 m 258 646 l 291 646 l 291 614 l 258 614 l 258 646 m 226 646 l 258 646 l 258 614 l 226 614 l 226 646 m 291 614 l 323 614 l 323 581 l 291 581 l 291 614 m 258 614 l 291 614 l 291 581 l 258 581 l 258 614 m 65 581 l 97 581 l 97 549 l 65 549 l 65 581 m 129 646 l 161 646 l 161 614 l 129 614 l 129 646 m 161 614 l 194 614 l 194 581 l 161 581 l 161 614 m 194 711 l 226 711 l 226 678 l 194 678 l 194 711 m 194 646 l 226 646 l 226 614 l 194 614 l 194 646 m 226 614 l 258 614 l 258 581 l 226 581 l 226 614 m 258 581 l 291 581 l 291 549 l 258 549 l 258 581 m 258 743 l 291 743 l 291 711 l 258 711 l 258 743 m 291 711 l 323 711 l 323 678 l 291 678 l 291 711 m 291 420 l 323 420 l 323 388 l 291 388 l 291 420 m 291 129 l 323 129 l 323 97 l 291 97 l 291 129 m 226 65 l 258 65 l 258 32 l 226 32 l 226 65 m 65 65 l 97 65 l 97 32 l 65 32 l 65 65 m 129 323 l 161 323 l 161 291 l 129 291 l 129 323 m 129 291 l 161 291 l 161 258 l 129 258 l 129 291 m 129 258 l 161 258 l 161 226 l 129 226 l 129 258 m 129 226 l 161 226 l 161 194 l 129 194 l 129 226 m 129 194 l 161 194 l 161 161 l 129 161 l 129 194 m 129 161 l 161 161 l 161 129 l 129 129 l 129 161 m 258 355 l 291 355 l 291 323 l 258 323 l 258 355 m 258 323 l 291 323 l 291 291 l 258 291 l 258 323 m 258 291 l 291 291 l 291 258 l 258 258 l 258 291 m 258 226 l 291 226 l 291 194 l 258 194 l 258 226 m 258 194 l 291 194 l 291 161 l 258 161 l 258 194 m 258 258 l 291 258 l 291 226 l 258 226 l 258 258 m 323 129 l 355 129 l 355 97 l 323 97 l 323 129 m 291 97 l 323 97 l 323 65 l 291 65 l 291 97 m 258 65 l 291 65 l 291 32 l 258 32 l 258 65 m 226 32 l 258 32 l 258 0 l 226 0 l 226 32 m 226 388 l 258 388 l 258 355 l 226 355 l 226 388 m 161 129 l 194 129 l 194 97 l 161 97 l 161 129 m 355 355 l 388 355 l 388 323 l 355 323 l 355 355 m 355 323 l 388 323 l 388 291 l 355 291 l 355 323 m 355 291 l 388 291 l 388 258 l 355 258 l 355 291 m 355 258 l 388 258 l 388 226 l 355 226 l 355 258 m 355 226 l 388 226 l 388 194 l 355 194 l 355 226 m 355 194 l 388 194 l 388 161 l 355 161 l 355 194 m 355 161 l 388 161 l 388 129 l 355 129 l 355 161 z "},"7":{"ha":517,"x_min":32,"x_max":484,"o":"m 129 549 l 161 549 l 161 517 l 129 517 l 129 549 m 161 549 l 194 549 l 194 517 l 161 517 l 161 549 m 194 549 l 226 549 l 226 517 l 194 517 l 194 549 m 226 549 l 258 549 l 258 517 l 226 517 l 226 549 m 258 549 l 291 549 l 291 517 l 258 517 l 258 549 m 291 549 l 323 549 l 323 517 l 291 517 l 291 549 m 323 549 l 355 549 l 355 517 l 323 517 l 323 549 m 355 549 l 388 549 l 388 517 l 355 517 l 355 549 m 388 549 l 420 549 l 420 517 l 388 517 l 388 549 m 420 549 l 452 549 l 452 517 l 420 517 l 420 549 m 388 517 l 420 517 l 420 484 l 388 484 l 388 517 m 355 484 l 388 484 l 388 452 l 355 452 l 355 484 m 323 452 l 355 452 l 355 420 l 323 420 l 323 452 m 291 452 l 323 452 l 323 420 l 291 420 l 291 452 m 258 452 l 291 452 l 291 420 l 258 420 l 258 452 m 65 452 l 97 452 l 97 420 l 65 420 l 65 452 m 32 452 l 65 452 l 65 420 l 32 420 l 32 452 m 97 452 l 129 452 l 129 420 l 97 420 l 97 452 m 129 452 l 161 452 l 161 420 l 129 420 l 129 452 m 161 452 l 194 452 l 194 420 l 161 420 l 161 452 m 194 452 l 226 452 l 226 420 l 194 420 l 194 452 m 226 452 l 258 452 l 258 420 l 226 420 l 226 452 m 65 484 l 97 484 l 97 452 l 65 452 l 65 484 m 97 484 l 129 484 l 129 452 l 97 452 l 97 484 m 97 517 l 129 517 l 129 484 l 97 484 l 97 517 m 129 517 l 161 517 l 161 484 l 129 484 l 129 517 m 161 517 l 194 517 l 194 484 l 161 484 l 161 517 m 194 517 l 226 517 l 226 484 l 194 484 l 194 517 m 226 517 l 258 517 l 258 484 l 226 484 l 226 517 m 258 517 l 291 517 l 291 484 l 258 484 l 258 517 m 291 517 l 323 517 l 323 484 l 291 484 l 291 517 m 323 517 l 355 517 l 355 484 l 323 484 l 323 517 m 355 517 l 388 517 l 388 484 l 355 484 l 355 517 m 323 484 l 355 484 l 355 452 l 323 452 l 323 484 m 291 484 l 323 484 l 323 452 l 291 452 l 291 484 m 258 484 l 291 484 l 291 452 l 258 452 l 258 484 m 226 484 l 258 484 l 258 452 l 226 452 l 226 484 m 194 484 l 226 484 l 226 452 l 194 452 l 194 484 m 161 484 l 194 484 l 194 452 l 161 452 l 161 484 m 129 484 l 161 484 l 161 452 l 129 452 l 129 484 m 355 452 l 388 452 l 388 420 l 355 420 l 355 452 m 291 420 l 323 420 l 323 388 l 291 388 l 291 420 m 291 388 l 323 388 l 323 355 l 291 355 l 291 388 m 258 420 l 291 420 l 291 388 l 258 388 l 258 420 m 258 388 l 291 388 l 291 355 l 258 355 l 258 388 m 226 355 l 258 355 l 258 323 l 226 323 l 226 355 m 194 355 l 226 355 l 226 323 l 194 323 l 194 355 m 194 323 l 226 323 l 226 291 l 194 291 l 194 323 m 226 323 l 258 323 l 258 291 l 226 291 l 226 323 m 161 291 l 194 291 l 194 258 l 161 258 l 161 291 m 129 291 l 161 291 l 161 258 l 129 258 l 129 291 m 129 258 l 161 258 l 161 226 l 129 226 l 129 258 m 161 258 l 194 258 l 194 226 l 161 226 l 161 258 m 226 291 l 258 291 l 258 258 l 226 258 l 226 291 m 226 258 l 258 258 l 258 226 l 226 226 l 226 258 m 226 226 l 258 226 l 258 194 l 226 194 l 226 226 m 226 194 l 258 194 l 258 161 l 226 161 l 226 194 m 226 161 l 258 161 l 258 129 l 226 129 l 226 161 m 226 129 l 258 129 l 258 97 l 226 97 l 226 129 m 194 129 l 226 129 l 226 97 l 194 97 l 194 129 m 161 129 l 194 129 l 194 97 l 161 97 l 161 129 m 161 161 l 194 161 l 194 129 l 161 129 l 161 161 m 129 161 l 161 161 l 161 129 l 129 129 l 129 161 m 129 194 l 161 194 l 161 161 l 129 161 l 129 194 m 129 226 l 161 226 l 161 194 l 129 194 l 129 226 m 129 129 l 161 129 l 161 97 l 129 97 l 129 129 m 194 161 l 226 161 l 226 129 l 194 129 l 194 161 m 194 194 l 226 194 l 226 161 l 194 161 l 194 194 m 194 226 l 226 226 l 226 194 l 194 194 l 194 226 m 194 258 l 226 258 l 226 226 l 194 226 l 194 258 m 194 291 l 226 291 l 226 258 l 194 258 l 194 291 m 161 226 l 194 226 l 194 194 l 161 194 l 161 226 m 161 194 l 194 194 l 194 161 l 161 161 l 161 194 m 323 420 l 355 420 l 355 388 l 323 388 l 323 420 m 258 355 l 291 355 l 291 323 l 258 323 l 258 355 m 226 388 l 258 388 l 258 355 l 226 355 l 226 388 m 161 323 l 194 323 l 194 291 l 161 291 l 161 323 m 388 484 l 420 484 l 420 452 l 388 452 l 388 484 m 420 517 l 452 517 l 452 484 l 420 484 l 420 517 m 129 97 l 161 97 l 161 65 l 129 65 l 129 97 m 129 65 l 161 65 l 161 32 l 129 32 l 129 65 m 129 32 l 161 32 l 161 0 l 129 0 l 129 32 m 129 0 l 161 0 l 161 -32 l 129 -32 l 129 0 m 129 -65 l 161 -65 l 161 -97 l 129 -97 l 129 -65 m 129 -97 l 161 -97 l 161 -129 l 129 -129 l 129 -97 m 129 -129 l 161 -129 l 161 -161 l 129 -161 l 129 -129 m 129 -161 l 161 -161 l 161 -194 l 129 -194 l 129 -161 m 161 -129 l 194 -129 l 194 -161 l 161 -161 l 161 -129 m 161 -97 l 194 -97 l 194 -129 l 161 -129 l 161 -97 m 161 -65 l 194 -65 l 194 -97 l 161 -97 l 161 -65 m 161 -32 l 194 -32 l 194 -65 l 161 -65 l 161 -32 m 161 0 l 194 0 l 194 -32 l 161 -32 l 161 0 m 161 32 l 194 32 l 194 0 l 161 0 l 161 32 m 161 65 l 194 65 l 194 32 l 161 32 l 161 65 m 161 97 l 194 97 l 194 65 l 161 65 l 161 97 m 129 -32 l 161 -32 l 161 -65 l 129 -65 l 129 -32 m 194 -97 l 226 -97 l 226 -129 l 194 -129 l 194 -97 m 226 -65 l 258 -65 l 258 -97 l 226 -97 l 226 -65 m 194 -65 l 226 -65 l 226 -97 l 194 -97 l 194 -65 m 194 -32 l 226 -32 l 226 -65 l 194 -65 l 194 -32 m 194 0 l 226 0 l 226 -32 l 194 -32 l 194 0 m 194 32 l 226 32 l 226 0 l 194 0 l 194 32 m 194 65 l 226 65 l 226 32 l 194 32 l 194 65 m 194 97 l 226 97 l 226 65 l 194 65 l 194 97 m 226 97 l 258 97 l 258 65 l 226 65 l 226 97 m 226 65 l 258 65 l 258 32 l 226 32 l 226 65 m 226 32 l 258 32 l 258 0 l 226 0 l 226 32 m 226 0 l 258 0 l 258 -32 l 226 -32 l 226 0 m 226 -32 l 258 -32 l 258 -65 l 226 -65 l 226 -32 m 452 549 l 484 549 l 484 517 l 452 517 l 452 549 z "},"8":{"ha":452,"x_min":32,"x_max":420,"o":"m 161 711 l 194 711 l 194 678 l 161 678 l 161 711 m 194 711 l 226 711 l 226 678 l 194 678 l 194 711 m 194 743 l 226 743 l 226 711 l 194 711 l 194 743 m 226 743 l 258 743 l 258 711 l 226 711 l 226 743 m 258 743 l 291 743 l 291 711 l 258 711 l 258 743 m 226 711 l 258 711 l 258 678 l 226 678 l 226 711 m 129 678 l 161 678 l 161 646 l 129 646 l 129 678 m 97 646 l 129 646 l 129 614 l 97 614 l 97 646 m 129 646 l 161 646 l 161 614 l 129 614 l 129 646 m 161 646 l 194 646 l 194 614 l 161 614 l 161 646 m 161 678 l 194 678 l 194 646 l 161 646 l 161 678 m 194 678 l 226 678 l 226 646 l 194 646 l 194 678 m 226 678 l 258 678 l 258 646 l 226 646 l 226 678 m 258 678 l 291 678 l 291 646 l 258 646 l 258 678 m 291 678 l 323 678 l 323 646 l 291 646 l 291 678 m 291 646 l 323 646 l 323 614 l 291 614 l 291 646 m 323 646 l 355 646 l 355 614 l 323 614 l 323 646 m 323 678 l 355 678 l 355 646 l 323 646 l 323 678 m 258 646 l 291 646 l 291 614 l 258 614 l 258 646 m 226 646 l 258 646 l 258 614 l 226 614 l 226 646 m 65 614 l 97 614 l 97 581 l 65 581 l 65 614 m 32 581 l 65 581 l 65 549 l 32 549 l 32 581 m 65 581 l 97 581 l 97 549 l 65 549 l 65 581 m 355 614 l 388 614 l 388 581 l 355 581 l 355 614 m 388 614 l 420 614 l 420 581 l 388 581 l 388 614 m 388 581 l 420 581 l 420 549 l 388 549 l 388 581 m 355 581 l 388 581 l 388 549 l 355 549 l 355 581 m 97 614 l 129 614 l 129 581 l 97 581 l 97 614 m 129 614 l 161 614 l 161 581 l 129 581 l 129 614 m 97 581 l 129 581 l 129 549 l 97 549 l 97 581 m 323 614 l 355 614 l 355 581 l 323 581 l 323 614 m 323 581 l 355 581 l 355 549 l 323 549 l 323 581 m 291 581 l 323 581 l 323 549 l 291 549 l 291 581 m 291 614 l 323 614 l 323 581 l 291 581 l 291 614 m 161 549 l 194 549 l 194 517 l 161 517 l 161 549 m 194 549 l 226 549 l 226 517 l 194 517 l 194 549 m 194 517 l 226 517 l 226 484 l 194 484 l 194 517 m 161 517 l 194 517 l 194 484 l 161 484 l 161 517 m 129 549 l 161 549 l 161 517 l 129 517 l 129 549 m 97 549 l 129 549 l 129 517 l 97 517 l 97 549 m 65 549 l 97 549 l 97 517 l 65 517 l 65 549 m 32 549 l 65 549 l 65 517 l 32 517 l 32 549 m 32 517 l 65 517 l 65 484 l 32 484 l 32 517 m 65 517 l 97 517 l 97 484 l 65 484 l 65 517 m 97 517 l 129 517 l 129 484 l 97 484 l 97 517 m 129 517 l 161 517 l 161 484 l 129 484 l 129 517 m 388 549 l 420 549 l 420 517 l 388 517 l 388 549 m 355 549 l 388 549 l 388 517 l 355 517 l 355 549 m 323 549 l 355 549 l 355 517 l 323 517 l 323 549 m 291 517 l 323 517 l 323 484 l 291 484 l 291 517 m 323 517 l 355 517 l 355 484 l 323 484 l 323 517 m 355 517 l 388 517 l 388 484 l 355 484 l 355 517 m 97 484 l 129 484 l 129 452 l 97 452 l 97 484 m 129 484 l 161 484 l 161 452 l 129 452 l 129 484 m 129 452 l 161 452 l 161 420 l 129 420 l 129 452 m 323 484 l 355 484 l 355 452 l 323 452 l 323 484 m 291 484 l 323 484 l 323 452 l 291 452 l 291 484 m 291 452 l 323 452 l 323 420 l 291 420 l 291 452 m 258 452 l 291 452 l 291 420 l 258 420 l 258 452 m 258 420 l 291 420 l 291 388 l 258 388 l 258 420 m 226 420 l 258 420 l 258 388 l 226 388 l 226 420 m 194 420 l 226 420 l 226 388 l 194 388 l 194 420 m 161 420 l 194 420 l 194 388 l 161 388 l 161 420 m 161 452 l 194 452 l 194 420 l 161 420 l 161 452 m 161 484 l 194 484 l 194 452 l 161 452 l 161 484 m 194 484 l 226 484 l 226 452 l 194 452 l 194 484 m 226 484 l 258 484 l 258 452 l 226 452 l 226 484 m 258 484 l 291 484 l 291 452 l 258 452 l 258 484 m 226 452 l 258 452 l 258 420 l 226 420 l 226 452 m 194 452 l 226 452 l 226 420 l 194 420 l 194 452 m 129 420 l 161 420 l 161 388 l 129 388 l 129 420 m 291 420 l 323 420 l 323 388 l 291 388 l 291 420 m 291 388 l 323 388 l 323 355 l 291 355 l 291 388 m 323 388 l 355 388 l 355 355 l 323 355 l 323 388 m 258 388 l 291 388 l 291 355 l 258 355 l 258 388 m 226 388 l 258 388 l 258 355 l 226 355 l 226 388 m 194 388 l 226 388 l 226 355 l 194 355 l 194 388 m 161 388 l 194 388 l 194 355 l 161 355 l 161 388 m 129 388 l 161 388 l 161 355 l 129 355 l 129 388 m 97 388 l 129 388 l 129 355 l 97 355 l 97 388 m 65 355 l 97 355 l 97 323 l 65 323 l 65 355 m 32 323 l 65 323 l 65 291 l 32 291 l 32 323 m 65 323 l 97 323 l 97 291 l 65 291 l 65 323 m 97 323 l 129 323 l 129 291 l 97 291 l 97 323 m 97 355 l 129 355 l 129 323 l 97 323 l 97 355 m 129 355 l 161 355 l 161 323 l 129 323 l 129 355 m 355 355 l 388 355 l 388 323 l 355 323 l 355 355 m 388 355 l 420 355 l 420 323 l 388 323 l 388 355 m 388 323 l 420 323 l 420 291 l 388 291 l 388 323 m 355 323 l 388 323 l 388 291 l 355 291 l 355 323 m 323 355 l 355 355 l 355 323 l 323 323 l 323 355 m 291 355 l 323 355 l 323 323 l 291 323 l 291 355 m 291 323 l 323 323 l 323 291 l 291 291 l 291 323 m 323 323 l 355 323 l 355 291 l 323 291 l 323 323 m 258 355 l 291 355 l 291 323 l 258 323 l 258 355 m 226 355 l 258 355 l 258 323 l 226 323 l 226 355 m 258 323 l 291 323 l 291 291 l 258 291 l 258 323 m 388 291 l 420 291 l 420 258 l 388 258 l 388 291 m 355 291 l 388 291 l 388 258 l 355 258 l 355 291 m 323 291 l 355 291 l 355 258 l 323 258 l 323 291 m 291 291 l 323 291 l 323 258 l 291 258 l 291 291 m 291 258 l 323 258 l 323 226 l 291 226 l 291 258 m 323 258 l 355 258 l 355 226 l 323 226 l 323 258 m 355 258 l 388 258 l 388 226 l 355 226 l 355 258 m 388 258 l 420 258 l 420 226 l 388 226 l 388 258 m 32 291 l 65 291 l 65 258 l 32 258 l 32 291 m 65 291 l 97 291 l 97 258 l 65 258 l 65 291 m 97 291 l 129 291 l 129 258 l 97 258 l 97 291 m 97 258 l 129 258 l 129 226 l 97 226 l 97 258 m 65 258 l 97 258 l 97 226 l 65 226 l 65 258 m 32 258 l 65 258 l 65 226 l 32 226 l 32 258 m 161 0 l 161 32 l 194 32 l 194 0 l 161 0 m 161 32 l 161 65 l 194 65 l 194 32 l 161 32 m 194 32 l 194 65 l 226 65 l 226 32 l 194 32 m 194 0 l 194 32 l 226 32 l 226 0 l 194 0 m 226 0 l 226 32 l 258 32 l 258 0 l 226 0 m 258 32 l 258 65 l 291 65 l 291 32 l 258 32 m 226 32 l 226 65 l 258 65 l 258 32 l 226 32 m 129 65 l 129 97 l 161 97 l 161 65 l 129 65 m 97 65 l 97 97 l 129 97 l 129 65 l 97 65 m 97 97 l 97 129 l 129 129 l 129 97 l 97 97 m 129 97 l 129 129 l 161 129 l 161 97 l 129 97 m 161 97 l 161 129 l 194 129 l 194 97 l 161 97 m 161 65 l 161 97 l 194 97 l 194 65 l 161 65 m 194 65 l 194 97 l 226 97 l 226 65 l 194 65 m 226 65 l 226 97 l 258 97 l 258 65 l 226 65 m 258 65 l 258 97 l 291 97 l 291 65 l 258 65 m 291 65 l 291 97 l 323 97 l 323 65 l 291 65 m 291 97 l 291 129 l 323 129 l 323 97 l 291 97 m 323 97 l 323 129 l 355 129 l 355 97 l 323 97 m 258 97 l 258 129 l 291 129 l 291 97 l 258 97 m 226 97 l 226 129 l 258 129 l 258 97 l 226 97 m 194 97 l 194 129 l 226 129 l 226 97 l 194 97 m 65 129 l 65 161 l 97 161 l 97 129 l 65 129 m 32 129 l 32 161 l 65 161 l 65 129 l 32 129 m 32 161 l 32 194 l 65 194 l 65 161 l 32 161 m 65 161 l 65 194 l 97 194 l 97 161 l 65 161 m 355 129 l 355 161 l 388 161 l 388 129 l 355 129 m 388 161 l 388 194 l 420 194 l 420 161 l 388 161 m 355 161 l 355 194 l 388 194 l 388 161 l 355 161 m 97 129 l 97 161 l 129 161 l 129 129 l 97 129 m 129 129 l 129 161 l 161 161 l 161 129 l 129 129 m 129 161 l 129 194 l 161 194 l 161 161 l 129 161 m 97 161 l 97 194 l 129 194 l 129 161 l 97 161 m 323 129 l 323 161 l 355 161 l 355 129 l 323 129 m 323 161 l 323 194 l 355 194 l 355 161 l 323 161 m 291 161 l 291 194 l 323 194 l 323 161 l 291 161 m 291 129 l 291 161 l 323 161 l 323 129 l 291 129 m 32 226 l 65 226 l 65 194 l 32 194 l 32 226 m 65 226 l 97 226 l 97 194 l 65 194 l 65 226 m 97 226 l 129 226 l 129 194 l 97 194 l 97 226 m 129 226 l 161 226 l 161 194 l 129 194 l 129 226 m 388 226 l 420 226 l 420 194 l 388 194 l 388 226 m 355 226 l 388 226 l 388 194 l 355 194 l 355 226 m 323 226 l 355 226 l 355 194 l 323 194 l 323 226 m 291 226 l 323 226 l 323 194 l 291 194 l 291 226 m 161 581 l 194 581 l 194 549 l 161 549 l 161 581 m 129 581 l 161 581 l 161 549 l 129 549 l 129 581 m 226 517 l 258 517 l 258 484 l 226 484 l 226 517 m 323 420 l 355 420 l 355 388 l 323 388 l 323 420 m 355 388 l 388 388 l 388 355 l 355 355 l 355 388 m 65 484 l 97 484 l 97 452 l 65 452 l 65 484 m 97 452 l 129 452 l 129 420 l 97 420 l 97 452 m 194 355 l 226 355 l 226 323 l 194 323 l 194 355 m 226 323 l 258 323 l 258 291 l 226 291 l 226 323 m 258 291 l 291 291 l 291 258 l 258 258 l 258 291 m 65 129 l 97 129 l 97 97 l 65 97 l 65 129 m 129 65 l 161 65 l 161 32 l 129 32 l 129 65 m 161 161 l 194 161 l 194 129 l 161 129 l 161 161 m 161 194 l 194 194 l 194 161 l 161 161 l 161 194 m 194 161 l 226 161 l 226 129 l 194 129 l 194 161 m 258 711 l 291 711 l 291 678 l 258 678 l 258 711 m 291 711 l 323 711 l 323 678 l 291 678 l 291 711 m 355 646 l 388 646 l 388 614 l 355 614 l 355 646 m 258 614 l 291 614 l 291 581 l 258 581 l 258 614 z "},"9":{"ha":420,"x_min":32,"x_max":388,"o":"m 388 0 l 355 0 l 355 32 l 388 32 l 388 0 m 355 0 l 323 0 l 323 32 l 355 32 l 355 0 m 355 32 l 323 32 l 323 65 l 355 65 l 355 32 m 388 32 l 355 32 l 355 65 l 388 65 l 388 32 m 323 0 l 291 0 l 291 32 l 323 32 l 323 0 m 323 32 l 291 32 l 291 65 l 323 65 l 323 32 m 291 0 l 258 0 l 258 32 l 291 32 l 291 0 m 291 32 l 258 32 l 258 65 l 291 65 l 291 32 m 291 65 l 258 65 l 258 97 l 291 97 l 291 65 m 291 97 l 258 97 l 258 129 l 291 129 l 291 97 m 291 129 l 258 129 l 258 161 l 291 161 l 291 129 m 291 161 l 258 161 l 258 194 l 291 194 l 291 161 m 291 194 l 258 194 l 258 226 l 291 226 l 291 194 m 291 420 l 258 420 l 258 452 l 291 452 l 291 420 m 291 452 l 258 452 l 258 484 l 291 484 l 291 452 m 323 452 l 291 452 l 291 484 l 323 484 l 323 452 m 355 452 l 323 452 l 323 484 l 355 484 l 355 452 m 388 452 l 355 452 l 355 484 l 388 484 l 388 452 m 388 420 l 355 420 l 355 452 l 388 452 l 388 420 m 388 388 l 355 388 l 355 420 l 388 420 l 388 388 m 388 355 l 355 355 l 355 388 l 388 388 l 388 355 m 388 323 l 355 323 l 355 355 l 388 355 l 388 323 m 388 291 l 355 291 l 355 323 l 388 323 l 388 291 m 388 258 l 355 258 l 355 291 l 388 291 l 388 258 m 388 226 l 355 226 l 355 258 l 388 258 l 388 226 m 388 194 l 355 194 l 355 226 l 388 226 l 388 194 m 388 161 l 355 161 l 355 194 l 388 194 l 388 161 m 388 129 l 355 129 l 355 161 l 388 161 l 388 129 m 388 97 l 355 97 l 355 129 l 388 129 l 388 97 m 388 65 l 355 65 l 355 97 l 388 97 l 388 65 m 355 65 l 323 65 l 323 97 l 355 97 l 355 65 m 323 65 l 291 65 l 291 97 l 323 97 l 323 65 m 323 97 l 291 97 l 291 129 l 323 129 l 323 97 m 323 129 l 291 129 l 291 161 l 323 161 l 323 129 m 323 161 l 291 161 l 291 194 l 323 194 l 323 161 m 355 161 l 323 161 l 323 194 l 355 194 l 355 161 m 355 194 l 323 194 l 323 226 l 355 226 l 355 194 m 355 226 l 323 226 l 323 258 l 355 258 l 355 226 m 355 258 l 323 258 l 323 291 l 355 291 l 355 258 m 355 291 l 323 291 l 323 323 l 355 323 l 355 291 m 355 323 l 323 323 l 323 355 l 355 355 l 355 323 m 355 355 l 323 355 l 323 388 l 355 388 l 355 355 m 355 388 l 323 388 l 323 420 l 355 420 l 355 388 m 355 420 l 323 420 l 323 452 l 355 452 l 355 420 m 323 420 l 291 420 l 291 452 l 323 452 l 323 420 m 323 388 l 291 388 l 291 420 l 323 420 l 323 388 m 323 355 l 291 355 l 291 388 l 323 388 l 323 355 m 323 323 l 291 323 l 291 355 l 323 355 l 323 323 m 323 291 l 291 291 l 291 323 l 323 323 l 323 291 m 323 258 l 291 258 l 291 291 l 323 291 l 323 258 m 323 226 l 291 226 l 291 258 l 323 258 l 323 226 m 323 194 l 291 194 l 291 226 l 323 226 l 323 194 m 355 97 l 323 97 l 323 129 l 355 129 l 355 97 m 355 129 l 323 129 l 323 161 l 355 161 l 355 129 m 291 484 l 258 484 l 258 517 l 291 517 l 291 484 m 323 484 l 291 484 l 291 517 l 323 517 l 323 484 m 323 517 l 291 517 l 291 549 l 323 549 l 323 517 m 291 517 l 258 517 l 258 549 l 291 549 l 291 517 m 258 484 l 226 484 l 226 517 l 258 517 l 258 484 m 226 484 l 194 484 l 194 517 l 226 517 l 226 484 m 226 517 l 194 517 l 194 549 l 226 549 l 226 517 m 258 517 l 226 517 l 226 549 l 258 549 l 258 517 m 194 452 l 161 452 l 161 484 l 194 484 l 194 452 m 194 420 l 161 420 l 161 452 l 194 452 l 194 420 m 161 420 l 129 420 l 129 452 l 161 452 l 161 420 m 161 452 l 129 452 l 129 484 l 161 484 l 161 452 m 226 452 l 194 452 l 194 484 l 226 484 l 226 452 m 258 452 l 226 452 l 226 484 l 258 484 l 258 452 m 129 388 l 97 388 l 97 420 l 129 420 l 129 388 m 129 355 l 97 355 l 97 388 l 129 388 l 129 355 m 97 355 l 65 355 l 65 388 l 97 388 l 97 355 m 97 388 l 65 388 l 65 420 l 97 420 l 97 388 m 161 388 l 129 388 l 129 420 l 161 420 l 161 388 m 258 161 l 226 161 l 226 194 l 258 194 l 258 161 m 161 161 l 129 161 l 129 194 l 161 194 l 161 161 m 258 97 l 226 97 l 226 129 l 258 129 l 258 97 m 226 97 l 194 97 l 194 129 l 226 129 l 226 97 m 226 129 l 194 129 l 194 161 l 226 161 l 226 129 m 258 129 l 226 129 l 226 161 l 258 161 l 258 129 m 194 97 l 161 97 l 161 129 l 194 129 l 194 97 m 161 97 l 129 97 l 129 129 l 161 129 l 161 97 m 161 129 l 129 129 l 129 161 l 161 161 l 161 129 m 194 129 l 161 129 l 161 161 l 194 161 l 194 129 m 97 161 l 65 161 l 65 194 l 97 194 l 97 161 m 97 194 l 65 194 l 65 226 l 97 226 l 97 194 m 97 226 l 65 226 l 65 258 l 97 258 l 97 226 m 97 258 l 65 258 l 65 291 l 97 291 l 97 258 m 97 291 l 65 291 l 65 323 l 97 323 l 97 291 m 129 291 l 97 291 l 97 323 l 129 323 l 129 291 m 129 258 l 97 258 l 97 291 l 129 291 l 129 258 m 129 226 l 97 226 l 97 258 l 129 258 l 129 226 m 129 194 l 97 194 l 97 226 l 129 226 l 129 194 m 129 161 l 97 161 l 97 194 l 129 194 l 129 161 m 97 323 l 65 323 l 65 355 l 97 355 l 97 323 m 129 323 l 97 323 l 97 355 l 129 355 l 129 323 m 291 -32 l 258 -32 l 258 0 l 291 0 l 291 -32 m 323 -32 l 291 -32 l 291 0 l 323 0 l 323 -32 m 323 -65 l 291 -65 l 291 -32 l 323 -32 l 323 -65 m 291 -65 l 258 -65 l 258 -32 l 291 -32 l 291 -65 m 258 -97 l 226 -97 l 226 -65 l 258 -65 l 258 -97 m 258 -129 l 226 -129 l 226 -97 l 258 -97 l 258 -129 m 226 -129 l 194 -129 l 194 -97 l 226 -97 l 226 -129 m 194 -194 l 161 -194 l 161 -161 l 194 -161 l 194 -194 m 161 -161 l 129 -161 l 129 -129 l 161 -129 l 161 -161 m 194 -161 l 161 -161 l 161 -129 l 194 -129 l 194 -161 m 194 -129 l 161 -129 l 161 -97 l 194 -97 l 194 -129 m 161 -129 l 129 -129 l 129 -97 l 161 -97 l 161 -129 m 129 -129 l 97 -129 l 97 -97 l 129 -97 l 129 -129 m 97 -129 l 65 -129 l 65 -97 l 97 -97 l 97 -129 m 97 -97 l 65 -97 l 65 -65 l 97 -65 l 97 -97 m 129 -97 l 97 -97 l 97 -65 l 129 -65 l 129 -97 m 161 -97 l 129 -97 l 129 -65 l 161 -65 l 161 -97 m 194 -97 l 161 -97 l 161 -65 l 194 -65 l 194 -97 m 129 -65 l 97 -65 l 97 -32 l 129 -32 l 129 -65 m 161 -65 l 129 -65 l 129 -32 l 161 -32 l 161 -65 m 355 -32 l 323 -32 l 323 0 l 355 0 l 355 -32 m 291 -97 l 258 -97 l 258 -65 l 291 -65 l 291 -97 m 258 -65 l 226 -65 l 226 -32 l 258 -32 l 258 -65 m 226 -161 l 194 -161 l 194 -129 l 226 -129 l 226 -161 m 226 -97 l 194 -97 l 194 -65 l 226 -65 l 226 -97 m 194 -65 l 161 -65 l 161 -32 l 194 -32 l 194 -65 m 161 -32 l 129 -32 l 129 0 l 161 0 l 161 -32 m 161 -194 l 129 -194 l 129 -161 l 161 -161 l 161 -194 m 129 -161 l 97 -161 l 97 -129 l 129 -129 l 129 -161 m 129 129 l 97 129 l 97 161 l 129 161 l 129 129 m 129 420 l 97 420 l 97 452 l 129 452 l 129 420 m 194 484 l 161 484 l 161 517 l 194 517 l 194 484 m 355 484 l 323 484 l 323 517 l 355 517 l 355 484 m 291 226 l 258 226 l 258 258 l 291 258 l 291 226 m 291 258 l 258 258 l 258 291 l 291 291 l 291 258 m 291 291 l 258 291 l 258 323 l 291 323 l 291 291 m 291 323 l 258 323 l 258 355 l 291 355 l 291 323 m 291 355 l 258 355 l 258 388 l 291 388 l 291 355 m 291 388 l 258 388 l 258 420 l 291 420 l 291 388 m 161 194 l 129 194 l 129 226 l 161 226 l 161 194 m 161 226 l 129 226 l 129 258 l 161 258 l 161 226 m 161 258 l 129 258 l 129 291 l 161 291 l 161 258 m 161 323 l 129 323 l 129 355 l 161 355 l 161 323 m 161 355 l 129 355 l 129 388 l 161 388 l 161 355 m 161 291 l 129 291 l 129 323 l 161 323 l 161 291 m 97 420 l 65 420 l 65 452 l 97 452 l 97 420 m 129 452 l 97 452 l 97 484 l 129 484 l 129 452 m 161 484 l 129 484 l 129 517 l 161 517 l 161 484 m 194 517 l 161 517 l 161 549 l 194 549 l 194 517 m 194 161 l 161 161 l 161 194 l 194 194 l 194 161 m 258 420 l 226 420 l 226 452 l 258 452 l 258 420 m 65 194 l 32 194 l 32 226 l 65 226 l 65 194 m 65 226 l 32 226 l 32 258 l 65 258 l 65 226 m 65 258 l 32 258 l 32 291 l 65 291 l 65 258 m 65 291 l 32 291 l 32 323 l 65 323 l 65 291 m 65 323 l 32 323 l 32 355 l 65 355 l 65 323 m 65 355 l 32 355 l 32 388 l 65 388 l 65 355 m 65 388 l 32 388 l 32 420 l 65 420 l 65 388 z "},"A":{"ha":904,"x_min":32,"x_max":872,"o":"m 97 678 l 129 678 l 129 646 l 97 646 l 97 678 m 65 646 l 97 646 l 97 614 l 65 614 l 65 646 m 129 711 l 161 711 l 161 678 l 129 678 l 129 711 m 161 743 l 194 743 l 194 711 l 161 711 l 161 743 m 226 807 l 258 807 l 258 775 l 226 775 l 226 807 m 226 775 l 258 775 l 258 743 l 226 743 l 226 775 m 291 807 l 323 807 l 323 775 l 291 775 l 291 807 m 291 775 l 323 775 l 323 743 l 291 743 l 291 775 m 258 775 l 291 775 l 291 743 l 258 743 l 258 775 m 258 807 l 291 807 l 291 775 l 258 775 l 258 807 m 323 807 l 355 807 l 355 775 l 323 775 l 323 807 m 355 775 l 388 775 l 388 743 l 355 743 l 355 775 m 323 775 l 355 775 l 355 743 l 323 743 l 323 775 m 420 775 l 452 775 l 452 743 l 420 743 l 420 775 m 388 775 l 420 775 l 420 743 l 388 743 l 388 775 m 484 743 l 517 743 l 517 711 l 484 711 l 484 743 m 484 711 l 517 711 l 517 678 l 484 678 l 484 711 m 484 678 l 517 678 l 517 646 l 484 646 l 484 678 m 452 711 l 484 711 l 484 678 l 452 678 l 452 711 m 452 743 l 484 743 l 484 711 l 452 711 l 452 743 m 452 775 l 484 775 l 484 743 l 452 743 l 452 775 m 678 775 l 711 775 l 711 743 l 678 743 l 678 775 m 711 807 l 743 807 l 743 775 l 711 775 l 711 807 m 743 807 l 775 807 l 775 775 l 743 775 l 743 807 m 743 775 l 775 775 l 775 743 l 743 743 l 743 775 m 711 775 l 743 775 l 743 743 l 711 743 l 711 775 m 807 743 l 840 743 l 840 711 l 807 711 l 807 743 m 517 711 l 549 711 l 549 678 l 517 678 l 517 711 m 517 678 l 549 678 l 549 646 l 517 646 l 517 678 m 549 678 l 581 678 l 581 646 l 549 646 l 549 678 m 581 678 l 614 678 l 614 646 l 581 646 l 581 678 m 614 678 l 646 678 l 646 646 l 614 646 l 614 678 m 614 646 l 646 646 l 646 614 l 614 614 l 614 646 m 581 646 l 614 646 l 614 614 l 581 614 l 581 646 m 549 646 l 581 646 l 581 614 l 549 614 l 549 646 m 388 614 l 420 614 l 420 581 l 388 581 l 388 614 m 388 581 l 420 581 l 420 549 l 388 549 l 388 581 m 549 614 l 581 614 l 581 581 l 549 581 l 549 614 m 581 614 l 614 614 l 614 581 l 581 581 l 581 614 m 614 614 l 646 614 l 646 581 l 614 581 l 614 614 m 614 581 l 646 581 l 646 549 l 614 549 l 614 581 m 581 549 l 614 549 l 614 517 l 581 517 l 581 549 m 549 549 l 581 549 l 581 517 l 549 517 l 549 549 m 581 581 l 614 581 l 614 549 l 581 549 l 581 581 m 549 581 l 581 581 l 581 549 l 549 549 l 549 581 m 517 517 l 549 517 l 549 484 l 517 484 l 517 517 m 517 549 l 549 549 l 549 517 l 517 517 l 517 549 m 549 517 l 581 517 l 581 484 l 549 484 l 549 517 m 581 517 l 614 517 l 614 484 l 581 484 l 581 517 m 355 614 l 388 614 l 388 581 l 355 581 l 355 614 m 355 581 l 388 581 l 388 549 l 355 549 l 355 581 m 355 549 l 388 549 l 388 517 l 355 517 l 355 549 m 355 517 l 388 517 l 388 484 l 355 484 l 355 517 m 388 355 l 420 355 l 420 323 l 388 323 l 388 355 m 420 355 l 452 355 l 452 323 l 420 323 l 420 355 m 517 484 l 549 484 l 549 452 l 517 452 l 517 484 m 517 452 l 549 452 l 549 420 l 517 420 l 517 452 m 517 420 l 549 420 l 549 388 l 517 388 l 517 420 m 517 388 l 549 388 l 549 355 l 517 355 l 517 388 m 549 484 l 581 484 l 581 452 l 549 452 l 549 484 m 549 452 l 581 452 l 581 420 l 549 420 l 549 452 m 549 420 l 581 420 l 581 388 l 549 388 l 549 420 m 549 388 l 581 388 l 581 355 l 549 355 l 549 388 m 517 323 l 549 323 l 549 291 l 517 291 l 517 323 m 549 323 l 581 323 l 581 291 l 549 291 l 549 323 m 581 355 l 614 355 l 614 323 l 581 323 l 581 355 m 581 388 l 614 388 l 614 355 l 581 355 l 581 388 m 581 420 l 614 420 l 614 388 l 581 388 l 581 420 m 581 452 l 614 452 l 614 420 l 581 420 l 581 452 m 581 484 l 614 484 l 614 452 l 581 452 l 581 484 m 581 323 l 614 323 l 614 291 l 581 291 l 581 323 m 614 291 l 646 291 l 646 258 l 614 258 l 614 291 m 614 258 l 646 258 l 646 226 l 614 226 l 614 258 m 581 258 l 614 258 l 614 226 l 581 226 l 581 258 m 549 258 l 581 258 l 581 226 l 549 226 l 549 258 m 517 258 l 549 258 l 549 226 l 517 226 l 517 258 m 517 291 l 549 291 l 549 258 l 517 258 l 517 291 m 549 291 l 581 291 l 581 258 l 549 258 l 549 291 m 581 291 l 614 291 l 614 258 l 581 258 l 581 291 m 194 194 l 226 194 l 226 161 l 194 161 l 194 194 m 161 161 l 194 161 l 194 129 l 161 129 l 161 161 m 129 129 l 161 129 l 161 97 l 129 97 l 129 129 m 517 226 l 549 226 l 549 194 l 517 194 l 517 226 m 549 226 l 581 226 l 581 194 l 549 194 l 549 226 m 581 226 l 614 226 l 614 194 l 581 194 l 581 226 m 614 226 l 646 226 l 646 194 l 614 194 l 614 226 m 161 129 l 194 129 l 194 97 l 161 97 l 161 129 m 194 129 l 226 129 l 226 97 l 194 97 l 194 129 m 194 97 l 226 97 l 226 65 l 194 65 l 194 97 m 161 97 l 194 97 l 194 65 l 161 65 l 161 97 m 226 97 l 258 97 l 258 65 l 226 65 l 226 97 m 388 129 l 420 129 l 420 97 l 388 97 l 388 129 m 388 97 l 420 97 l 420 65 l 388 65 l 388 97 m 355 97 l 388 97 l 388 65 l 355 65 l 355 97 m 420 161 l 452 161 l 452 129 l 420 129 l 420 161 m 517 194 l 549 194 l 549 161 l 517 161 l 517 194 m 549 194 l 581 194 l 581 161 l 549 161 l 549 194 m 581 194 l 614 194 l 614 161 l 581 161 l 581 194 m 614 194 l 646 194 l 646 161 l 614 161 l 614 194 m 614 161 l 646 161 l 646 129 l 614 129 l 614 161 m 581 161 l 614 161 l 614 129 l 581 129 l 581 161 m 549 161 l 581 161 l 581 129 l 549 129 l 549 161 m 517 161 l 549 161 l 549 129 l 517 129 l 517 161 m 517 129 l 549 129 l 549 97 l 517 97 l 517 129 m 517 97 l 549 97 l 549 65 l 517 65 l 517 97 m 549 97 l 581 97 l 581 65 l 549 65 l 549 97 m 581 97 l 614 97 l 614 65 l 581 65 l 581 97 m 581 129 l 614 129 l 614 97 l 581 97 l 581 129 m 614 129 l 646 129 l 646 97 l 614 97 l 614 129 m 549 129 l 581 129 l 581 97 l 549 97 l 549 129 m 614 97 l 646 97 l 646 65 l 614 65 l 614 97 m 581 65 l 614 65 l 614 32 l 581 32 l 581 65 m 581 32 l 614 32 l 614 0 l 581 0 l 581 32 m 614 32 l 646 32 l 646 0 l 614 0 l 614 32 m 614 65 l 646 65 l 646 32 l 614 32 l 614 65 m 678 65 l 711 65 l 711 32 l 678 32 l 678 65 m 678 32 l 711 32 l 711 0 l 678 0 l 678 32 m 646 32 l 678 32 l 678 0 l 646 0 l 646 32 m 743 129 l 775 129 l 775 97 l 743 97 l 743 129 m 743 97 l 775 97 l 775 65 l 743 65 l 743 97 m 711 97 l 743 97 l 743 65 l 711 65 l 711 97 m 711 65 l 743 65 l 743 32 l 711 32 l 711 65 m 549 65 l 581 65 l 581 32 l 549 32 l 549 65 m 323 65 l 355 65 l 355 32 l 323 32 l 323 65 m 291 65 l 323 65 l 323 32 l 291 32 l 291 65 m 291 32 l 323 32 l 323 0 l 291 0 l 291 32 m 323 32 l 355 32 l 355 0 l 323 0 l 323 32 m 258 65 l 291 65 l 291 32 l 258 32 l 258 65 m 226 32 l 258 32 l 258 0 l 226 0 l 226 32 m 258 32 l 291 32 l 291 0 l 258 0 l 258 32 m 226 65 l 258 65 l 258 32 l 226 32 l 226 65 m 355 65 l 388 65 l 388 32 l 355 32 l 355 65 m 420 129 l 452 129 l 452 97 l 420 97 l 420 129 m 775 775 l 807 775 l 807 743 l 775 743 l 775 775 m 97 97 l 129 97 l 129 65 l 97 65 l 97 97 m 194 161 l 226 161 l 226 129 l 194 129 l 194 161 m 646 65 l 678 65 l 678 32 l 646 32 l 646 65 m 65 65 l 97 65 l 97 32 l 65 32 l 65 65 m 355 388 l 388 388 l 388 355 l 355 355 l 355 388 m 355 452 l 388 452 l 388 420 l 355 420 l 355 452 m 355 420 l 388 420 l 388 388 l 355 388 l 355 420 m 355 484 l 388 484 l 388 452 l 355 452 l 355 484 m 388 549 l 420 549 l 420 517 l 388 517 l 388 549 m 388 517 l 420 517 l 420 484 l 388 484 l 388 517 m 258 258 l 291 258 l 291 226 l 258 226 l 258 258 m 420 743 l 452 743 l 452 711 l 420 711 l 420 743 m 614 323 l 646 323 l 646 291 l 614 291 l 614 323 m 194 65 l 226 65 l 226 32 l 194 32 l 194 65 m 291 646 l 323 646 l 323 614 l 291 614 l 291 646 m 323 646 l 355 646 l 355 614 l 323 614 l 323 646 m 355 646 l 388 646 l 388 614 l 355 614 l 355 646 m 355 807 l 388 807 l 388 775 l 355 775 l 355 807 m 323 323 l 355 323 l 355 291 l 323 291 l 323 323 m 775 161 l 807 161 l 807 129 l 775 129 l 775 161 m 226 226 l 258 226 l 258 194 l 226 194 l 226 226 m 291 291 l 323 291 l 323 258 l 291 258 l 291 291 m 291 258 l 323 258 l 323 226 l 291 226 l 291 258 m 258 226 l 291 226 l 291 194 l 258 194 l 258 226 m 226 194 l 258 194 l 258 161 l 226 161 l 226 194 m 226 161 l 258 161 l 258 129 l 226 129 l 226 161 m 355 355 l 388 355 l 388 323 l 355 323 l 355 355 m 452 355 l 484 355 l 484 323 l 452 323 l 452 355 m 355 323 l 388 323 l 388 291 l 355 291 l 355 323 m 388 323 l 420 323 l 420 291 l 388 291 l 388 323 m 420 323 l 452 323 l 452 291 l 420 291 l 420 323 m 388 484 l 420 484 l 420 452 l 388 452 l 388 484 m 775 129 l 807 129 l 807 97 l 775 97 l 775 129 m 646 97 l 678 97 l 678 65 l 646 65 l 646 97 m 646 743 l 678 743 l 678 711 l 646 711 l 646 743 m 840 711 l 872 711 l 872 678 l 840 678 l 840 711 m 388 452 l 420 452 l 420 420 l 388 420 l 388 452 m 388 420 l 420 420 l 420 388 l 388 388 l 388 420 m 388 388 l 420 388 l 420 355 l 388 355 l 388 388 m 549 355 l 581 355 l 581 323 l 549 323 l 549 355 m 517 355 l 549 355 l 549 323 l 517 323 l 517 355 m 678 97 l 711 97 l 711 65 l 678 65 l 678 97 m 258 97 l 291 97 l 291 65 l 258 65 l 258 97 m 291 97 l 323 97 l 323 65 l 291 65 l 291 97 m 323 97 l 355 97 l 355 65 l 323 65 l 323 97 m 32 32 l 65 32 l 65 0 l 32 0 l 32 32 m 388 807 l 420 807 l 420 775 l 388 775 l 388 807 m 97 129 l 129 129 l 129 97 l 97 97 l 97 129 m 65 97 l 97 97 l 97 65 l 65 65 l 65 97 m 32 65 l 65 65 l 65 32 l 32 32 l 32 65 m 129 97 l 161 97 l 161 65 l 129 65 l 129 97 m 484 355 l 517 355 l 517 323 l 484 323 l 484 355 m 452 323 l 484 323 l 484 291 l 452 291 l 452 323 m 517 646 l 549 646 l 549 614 l 517 614 l 517 646 m 581 711 l 614 711 l 614 678 l 581 678 l 581 711 m 614 711 l 646 711 l 646 678 l 614 678 l 614 711 m 549 711 l 581 711 l 581 678 l 549 678 l 549 711 m 517 743 l 549 743 l 549 711 l 517 711 l 517 743 m 388 743 l 420 743 l 420 711 l 388 711 l 388 743 m 517 614 l 549 614 l 549 581 l 517 581 l 517 614 m 129 161 l 161 161 l 161 129 l 129 129 l 129 161 m 226 129 l 258 129 l 258 97 l 226 97 l 226 129 m 258 129 l 291 129 l 291 97 l 258 97 l 258 129 m 323 678 l 355 678 l 355 646 l 323 646 l 323 678 m 420 711 l 452 711 l 452 678 l 420 678 l 420 711 m 452 678 l 484 678 l 484 646 l 452 646 l 452 678 m 484 646 l 517 646 l 517 614 l 484 614 l 484 646 m 517 581 l 549 581 l 549 549 l 517 549 l 517 581 m 420 581 l 452 581 l 452 549 l 420 549 l 420 581 m 420 549 l 452 549 l 452 517 l 420 517 l 420 549 m 420 517 l 452 517 l 452 484 l 420 484 l 420 517 m 420 484 l 452 484 l 452 452 l 420 452 l 420 484 m 420 452 l 452 452 l 452 420 l 420 420 l 420 452 m 420 420 l 452 420 l 452 388 l 420 388 l 420 420 m 420 388 l 452 388 l 452 355 l 420 355 l 420 388 m 258 614 l 291 614 l 291 581 l 258 581 l 258 614 m 226 581 l 258 581 l 258 549 l 226 549 l 226 581 m 194 549 l 226 549 l 226 517 l 194 517 l 194 549 m 291 614 l 323 614 l 323 581 l 291 581 l 291 614 m 258 581 l 291 581 l 291 549 l 258 549 l 258 581 m 226 549 l 258 549 l 258 517 l 226 517 l 226 549 m 194 517 l 226 517 l 226 484 l 194 484 l 194 517 m 323 614 l 355 614 l 355 581 l 323 581 l 323 614 m 323 581 l 355 581 l 355 549 l 323 549 l 323 581 m 678 743 l 711 743 l 711 711 l 678 711 l 678 743 m 646 711 l 678 711 l 678 678 l 646 678 l 646 711 m 775 743 l 807 743 l 807 711 l 775 711 l 775 743 m 743 743 l 775 743 l 775 711 l 743 711 l 743 743 m 775 711 l 807 711 l 807 678 l 775 678 l 775 711 m 807 711 l 840 711 l 840 678 l 807 678 l 807 711 m 711 743 l 743 743 l 743 711 l 711 711 l 711 743 m 743 711 l 775 711 l 775 678 l 743 678 l 743 711 m 775 678 l 807 678 l 807 646 l 775 646 l 775 678 m 807 678 l 840 678 l 840 646 l 807 646 l 807 678 m 711 711 l 743 711 l 743 678 l 711 678 l 711 711 m 743 678 l 775 678 l 775 646 l 743 646 l 743 678 m 775 646 l 807 646 l 807 614 l 775 614 l 775 646 m 65 614 l 97 614 l 97 581 l 65 581 l 65 614 m 97 646 l 129 646 l 129 614 l 97 614 l 97 646 m 129 678 l 161 678 l 161 646 l 129 646 l 129 678 m 161 711 l 194 711 l 194 678 l 161 678 l 161 711 m 194 743 l 226 743 l 226 711 l 194 711 l 194 743 m 194 775 l 226 775 l 226 743 l 194 743 l 194 775 m 420 807 l 452 807 l 452 775 l 420 775 l 420 807 m 484 775 l 517 775 l 517 743 l 484 743 l 484 775 m 549 743 l 581 743 l 581 711 l 549 711 l 549 743 m 517 775 l 549 775 l 549 743 l 517 743 l 517 775 m 484 807 l 517 807 l 517 775 l 484 775 l 484 807 m 452 807 l 484 807 l 484 775 l 452 775 l 452 807 m 291 581 l 323 581 l 323 549 l 291 549 l 291 581 m 323 549 l 355 549 l 355 517 l 323 517 l 323 549 m 291 549 l 323 549 l 323 517 l 291 517 l 291 549 m 323 517 l 355 517 l 355 484 l 323 484 l 323 517 m 355 291 l 388 291 l 388 258 l 355 258 l 355 291 m 323 291 l 355 291 l 355 258 l 323 258 l 323 291 m 323 258 l 355 258 l 355 226 l 323 226 l 323 258 m 291 226 l 323 226 l 323 194 l 291 194 l 291 226 m 258 194 l 291 194 l 291 161 l 258 161 l 258 194 m 614 355 l 646 355 l 646 323 l 614 323 l 614 355 m 614 388 l 646 388 l 646 355 l 614 355 l 614 388 m 614 420 l 646 420 l 646 388 l 614 388 l 614 420 m 614 452 l 646 452 l 646 420 l 614 420 l 614 452 m 614 484 l 646 484 l 646 452 l 614 452 l 614 484 m 614 517 l 646 517 l 646 484 l 614 484 l 614 517 m 614 549 l 646 549 l 646 517 l 614 517 l 614 549 z "},"":{"ha":904,"x_min":32,"x_max":872,"o":"m 97 678 l 129 678 l 129 646 l 97 646 l 97 678 m 65 646 l 97 646 l 97 614 l 65 614 l 65 646 m 129 711 l 161 711 l 161 678 l 129 678 l 129 711 m 161 743 l 194 743 l 194 711 l 161 711 l 161 743 m 226 807 l 258 807 l 258 775 l 226 775 l 226 807 m 226 775 l 258 775 l 258 743 l 226 743 l 226 775 m 291 807 l 323 807 l 323 775 l 291 775 l 291 807 m 291 775 l 323 775 l 323 743 l 291 743 l 291 775 m 258 775 l 291 775 l 291 743 l 258 743 l 258 775 m 258 807 l 291 807 l 291 775 l 258 775 l 258 807 m 323 807 l 355 807 l 355 775 l 323 775 l 323 807 m 355 775 l 388 775 l 388 743 l 355 743 l 355 775 m 323 775 l 355 775 l 355 743 l 323 743 l 323 775 m 420 775 l 452 775 l 452 743 l 420 743 l 420 775 m 388 775 l 420 775 l 420 743 l 388 743 l 388 775 m 484 743 l 517 743 l 517 711 l 484 711 l 484 743 m 484 711 l 517 711 l 517 678 l 484 678 l 484 711 m 484 678 l 517 678 l 517 646 l 484 646 l 484 678 m 452 711 l 484 711 l 484 678 l 452 678 l 452 711 m 452 743 l 484 743 l 484 711 l 452 711 l 452 743 m 452 775 l 484 775 l 484 743 l 452 743 l 452 775 m 678 775 l 711 775 l 711 743 l 678 743 l 678 775 m 711 807 l 743 807 l 743 775 l 711 775 l 711 807 m 743 807 l 775 807 l 775 775 l 743 775 l 743 807 m 743 775 l 775 775 l 775 743 l 743 743 l 743 775 m 711 775 l 743 775 l 743 743 l 711 743 l 711 775 m 807 743 l 840 743 l 840 711 l 807 711 l 807 743 m 517 711 l 549 711 l 549 678 l 517 678 l 517 711 m 517 678 l 549 678 l 549 646 l 517 646 l 517 678 m 549 678 l 581 678 l 581 646 l 549 646 l 549 678 m 581 678 l 614 678 l 614 646 l 581 646 l 581 678 m 614 678 l 646 678 l 646 646 l 614 646 l 614 678 m 614 646 l 646 646 l 646 614 l 614 614 l 614 646 m 581 646 l 614 646 l 614 614 l 581 614 l 581 646 m 549 646 l 581 646 l 581 614 l 549 614 l 549 646 m 388 614 l 420 614 l 420 581 l 388 581 l 388 614 m 388 581 l 420 581 l 420 549 l 388 549 l 388 581 m 549 614 l 581 614 l 581 581 l 549 581 l 549 614 m 581 614 l 614 614 l 614 581 l 581 581 l 581 614 m 614 614 l 646 614 l 646 581 l 614 581 l 614 614 m 614 581 l 646 581 l 646 549 l 614 549 l 614 581 m 581 549 l 614 549 l 614 517 l 581 517 l 581 549 m 549 549 l 581 549 l 581 517 l 549 517 l 549 549 m 581 581 l 614 581 l 614 549 l 581 549 l 581 581 m 549 581 l 581 581 l 581 549 l 549 549 l 549 581 m 517 517 l 549 517 l 549 484 l 517 484 l 517 517 m 517 549 l 549 549 l 549 517 l 517 517 l 517 549 m 549 517 l 581 517 l 581 484 l 549 484 l 549 517 m 581 517 l 614 517 l 614 484 l 581 484 l 581 517 m 355 614 l 388 614 l 388 581 l 355 581 l 355 614 m 355 581 l 388 581 l 388 549 l 355 549 l 355 581 m 355 549 l 388 549 l 388 517 l 355 517 l 355 549 m 355 517 l 388 517 l 388 484 l 355 484 l 355 517 m 388 355 l 420 355 l 420 323 l 388 323 l 388 355 m 420 355 l 452 355 l 452 323 l 420 323 l 420 355 m 517 484 l 549 484 l 549 452 l 517 452 l 517 484 m 517 452 l 549 452 l 549 420 l 517 420 l 517 452 m 517 420 l 549 420 l 549 388 l 517 388 l 517 420 m 517 388 l 549 388 l 549 355 l 517 355 l 517 388 m 549 484 l 581 484 l 581 452 l 549 452 l 549 484 m 549 452 l 581 452 l 581 420 l 549 420 l 549 452 m 549 420 l 581 420 l 581 388 l 549 388 l 549 420 m 549 388 l 581 388 l 581 355 l 549 355 l 549 388 m 517 323 l 549 323 l 549 291 l 517 291 l 517 323 m 549 323 l 581 323 l 581 291 l 549 291 l 549 323 m 581 355 l 614 355 l 614 323 l 581 323 l 581 355 m 581 388 l 614 388 l 614 355 l 581 355 l 581 388 m 581 420 l 614 420 l 614 388 l 581 388 l 581 420 m 581 452 l 614 452 l 614 420 l 581 420 l 581 452 m 581 484 l 614 484 l 614 452 l 581 452 l 581 484 m 581 323 l 614 323 l 614 291 l 581 291 l 581 323 m 614 291 l 646 291 l 646 258 l 614 258 l 614 291 m 614 258 l 646 258 l 646 226 l 614 226 l 614 258 m 581 258 l 614 258 l 614 226 l 581 226 l 581 258 m 549 258 l 581 258 l 581 226 l 549 226 l 549 258 m 517 258 l 549 258 l 549 226 l 517 226 l 517 258 m 517 291 l 549 291 l 549 258 l 517 258 l 517 291 m 549 291 l 581 291 l 581 258 l 549 258 l 549 291 m 581 291 l 614 291 l 614 258 l 581 258 l 581 291 m 194 194 l 226 194 l 226 161 l 194 161 l 194 194 m 161 161 l 194 161 l 194 129 l 161 129 l 161 161 m 129 129 l 161 129 l 161 97 l 129 97 l 129 129 m 517 226 l 549 226 l 549 194 l 517 194 l 517 226 m 549 226 l 581 226 l 581 194 l 549 194 l 549 226 m 581 226 l 614 226 l 614 194 l 581 194 l 581 226 m 614 226 l 646 226 l 646 194 l 614 194 l 614 226 m 161 129 l 194 129 l 194 97 l 161 97 l 161 129 m 194 129 l 226 129 l 226 97 l 194 97 l 194 129 m 194 97 l 226 97 l 226 65 l 194 65 l 194 97 m 161 97 l 194 97 l 194 65 l 161 65 l 161 97 m 226 97 l 258 97 l 258 65 l 226 65 l 226 97 m 388 129 l 420 129 l 420 97 l 388 97 l 388 129 m 388 97 l 420 97 l 420 65 l 388 65 l 388 97 m 355 97 l 388 97 l 388 65 l 355 65 l 355 97 m 420 161 l 452 161 l 452 129 l 420 129 l 420 161 m 517 194 l 549 194 l 549 161 l 517 161 l 517 194 m 549 194 l 581 194 l 581 161 l 549 161 l 549 194 m 581 194 l 614 194 l 614 161 l 581 161 l 581 194 m 614 194 l 646 194 l 646 161 l 614 161 l 614 194 m 614 161 l 646 161 l 646 129 l 614 129 l 614 161 m 581 161 l 614 161 l 614 129 l 581 129 l 581 161 m 549 161 l 581 161 l 581 129 l 549 129 l 549 161 m 517 161 l 549 161 l 549 129 l 517 129 l 517 161 m 517 129 l 549 129 l 549 97 l 517 97 l 517 129 m 517 97 l 549 97 l 549 65 l 517 65 l 517 97 m 549 97 l 581 97 l 581 65 l 549 65 l 549 97 m 581 97 l 614 97 l 614 65 l 581 65 l 581 97 m 581 129 l 614 129 l 614 97 l 581 97 l 581 129 m 614 129 l 646 129 l 646 97 l 614 97 l 614 129 m 549 129 l 581 129 l 581 97 l 549 97 l 549 129 m 614 97 l 646 97 l 646 65 l 614 65 l 614 97 m 581 65 l 614 65 l 614 32 l 581 32 l 581 65 m 581 32 l 614 32 l 614 0 l 581 0 l 581 32 m 614 32 l 646 32 l 646 0 l 614 0 l 614 32 m 614 65 l 646 65 l 646 32 l 614 32 l 614 65 m 678 65 l 711 65 l 711 32 l 678 32 l 678 65 m 678 32 l 711 32 l 711 0 l 678 0 l 678 32 m 646 32 l 678 32 l 678 0 l 646 0 l 646 32 m 743 129 l 775 129 l 775 97 l 743 97 l 743 129 m 743 97 l 775 97 l 775 65 l 743 65 l 743 97 m 711 97 l 743 97 l 743 65 l 711 65 l 711 97 m 711 65 l 743 65 l 743 32 l 711 32 l 711 65 m 549 65 l 581 65 l 581 32 l 549 32 l 549 65 m 323 65 l 355 65 l 355 32 l 323 32 l 323 65 m 291 65 l 323 65 l 323 32 l 291 32 l 291 65 m 291 32 l 323 32 l 323 0 l 291 0 l 291 32 m 323 32 l 355 32 l 355 0 l 323 0 l 323 32 m 258 65 l 291 65 l 291 32 l 258 32 l 258 65 m 226 32 l 258 32 l 258 0 l 226 0 l 226 32 m 258 32 l 291 32 l 291 0 l 258 0 l 258 32 m 226 65 l 258 65 l 258 32 l 226 32 l 226 65 m 355 65 l 388 65 l 388 32 l 355 32 l 355 65 m 420 129 l 452 129 l 452 97 l 420 97 l 420 129 m 775 775 l 807 775 l 807 743 l 775 743 l 775 775 m 97 97 l 129 97 l 129 65 l 97 65 l 97 97 m 194 161 l 226 161 l 226 129 l 194 129 l 194 161 m 646 65 l 678 65 l 678 32 l 646 32 l 646 65 m 65 65 l 97 65 l 97 32 l 65 32 l 65 65 m 355 388 l 388 388 l 388 355 l 355 355 l 355 388 m 355 452 l 388 452 l 388 420 l 355 420 l 355 452 m 355 420 l 388 420 l 388 388 l 355 388 l 355 420 m 355 484 l 388 484 l 388 452 l 355 452 l 355 484 m 388 549 l 420 549 l 420 517 l 388 517 l 388 549 m 388 517 l 420 517 l 420 484 l 388 484 l 388 517 m 258 258 l 291 258 l 291 226 l 258 226 l 258 258 m 420 743 l 452 743 l 452 711 l 420 711 l 420 743 m 614 323 l 646 323 l 646 291 l 614 291 l 614 323 m 194 65 l 226 65 l 226 32 l 194 32 l 194 65 m 291 646 l 323 646 l 323 614 l 291 614 l 291 646 m 323 646 l 355 646 l 355 614 l 323 614 l 323 646 m 355 646 l 388 646 l 388 614 l 355 614 l 355 646 m 355 807 l 388 807 l 388 775 l 355 775 l 355 807 m 323 323 l 355 323 l 355 291 l 323 291 l 323 323 m 775 161 l 807 161 l 807 129 l 775 129 l 775 161 m 226 226 l 258 226 l 258 194 l 226 194 l 226 226 m 291 291 l 323 291 l 323 258 l 291 258 l 291 291 m 291 258 l 323 258 l 323 226 l 291 226 l 291 258 m 258 226 l 291 226 l 291 194 l 258 194 l 258 226 m 226 194 l 258 194 l 258 161 l 226 161 l 226 194 m 226 161 l 258 161 l 258 129 l 226 129 l 226 161 m 355 355 l 388 355 l 388 323 l 355 323 l 355 355 m 452 355 l 484 355 l 484 323 l 452 323 l 452 355 m 355 323 l 388 323 l 388 291 l 355 291 l 355 323 m 388 323 l 420 323 l 420 291 l 388 291 l 388 323 m 420 323 l 452 323 l 452 291 l 420 291 l 420 323 m 388 484 l 420 484 l 420 452 l 388 452 l 388 484 m 775 129 l 807 129 l 807 97 l 775 97 l 775 129 m 646 97 l 678 97 l 678 65 l 646 65 l 646 97 m 646 743 l 678 743 l 678 711 l 646 711 l 646 743 m 840 711 l 872 711 l 872 678 l 840 678 l 840 711 m 388 452 l 420 452 l 420 420 l 388 420 l 388 452 m 388 420 l 420 420 l 420 388 l 388 388 l 388 420 m 388 388 l 420 388 l 420 355 l 388 355 l 388 388 m 549 355 l 581 355 l 581 323 l 549 323 l 549 355 m 517 355 l 549 355 l 549 323 l 517 323 l 517 355 m 678 97 l 711 97 l 711 65 l 678 65 l 678 97 m 258 97 l 291 97 l 291 65 l 258 65 l 258 97 m 291 97 l 323 97 l 323 65 l 291 65 l 291 97 m 323 97 l 355 97 l 355 65 l 323 65 l 323 97 m 32 32 l 65 32 l 65 0 l 32 0 l 32 32 m 388 807 l 420 807 l 420 775 l 388 775 l 388 807 m 97 129 l 129 129 l 129 97 l 97 97 l 97 129 m 65 97 l 97 97 l 97 65 l 65 65 l 65 97 m 32 65 l 65 65 l 65 32 l 32 32 l 32 65 m 129 97 l 161 97 l 161 65 l 129 65 l 129 97 m 484 355 l 517 355 l 517 323 l 484 323 l 484 355 m 452 323 l 484 323 l 484 291 l 452 291 l 452 323 m 517 646 l 549 646 l 549 614 l 517 614 l 517 646 m 581 711 l 614 711 l 614 678 l 581 678 l 581 711 m 614 711 l 646 711 l 646 678 l 614 678 l 614 711 m 549 711 l 581 711 l 581 678 l 549 678 l 549 711 m 517 743 l 549 743 l 549 711 l 517 711 l 517 743 m 388 743 l 420 743 l 420 711 l 388 711 l 388 743 m 517 614 l 549 614 l 549 581 l 517 581 l 517 614 m 129 161 l 161 161 l 161 129 l 129 129 l 129 161 m 226 129 l 258 129 l 258 97 l 226 97 l 226 129 m 258 129 l 291 129 l 291 97 l 258 97 l 258 129 m 323 678 l 355 678 l 355 646 l 323 646 l 323 678 m 420 711 l 452 711 l 452 678 l 420 678 l 420 711 m 452 678 l 484 678 l 484 646 l 452 646 l 452 678 m 484 646 l 517 646 l 517 614 l 484 614 l 484 646 m 517 581 l 549 581 l 549 549 l 517 549 l 517 581 m 420 581 l 452 581 l 452 549 l 420 549 l 420 581 m 420 549 l 452 549 l 452 517 l 420 517 l 420 549 m 420 517 l 452 517 l 452 484 l 420 484 l 420 517 m 420 484 l 452 484 l 452 452 l 420 452 l 420 484 m 420 452 l 452 452 l 452 420 l 420 420 l 420 452 m 420 420 l 452 420 l 452 388 l 420 388 l 420 420 m 420 388 l 452 388 l 452 355 l 420 355 l 420 388 m 258 614 l 291 614 l 291 581 l 258 581 l 258 614 m 226 581 l 258 581 l 258 549 l 226 549 l 226 581 m 194 549 l 226 549 l 226 517 l 194 517 l 194 549 m 291 614 l 323 614 l 323 581 l 291 581 l 291 614 m 258 581 l 291 581 l 291 549 l 258 549 l 258 581 m 226 549 l 258 549 l 258 517 l 226 517 l 226 549 m 194 517 l 226 517 l 226 484 l 194 484 l 194 517 m 323 614 l 355 614 l 355 581 l 323 581 l 323 614 m 323 581 l 355 581 l 355 549 l 323 549 l 323 581 m 678 743 l 711 743 l 711 711 l 678 711 l 678 743 m 646 711 l 678 711 l 678 678 l 646 678 l 646 711 m 775 743 l 807 743 l 807 711 l 775 711 l 775 743 m 743 743 l 775 743 l 775 711 l 743 711 l 743 743 m 775 711 l 807 711 l 807 678 l 775 678 l 775 711 m 807 711 l 840 711 l 840 678 l 807 678 l 807 711 m 711 743 l 743 743 l 743 711 l 711 711 l 711 743 m 743 711 l 775 711 l 775 678 l 743 678 l 743 711 m 775 678 l 807 678 l 807 646 l 775 646 l 775 678 m 807 678 l 840 678 l 840 646 l 807 646 l 807 678 m 711 711 l 743 711 l 743 678 l 711 678 l 711 711 m 743 678 l 775 678 l 775 646 l 743 646 l 743 678 m 775 646 l 807 646 l 807 614 l 775 614 l 775 646 m 65 614 l 97 614 l 97 581 l 65 581 l 65 614 m 97 646 l 129 646 l 129 614 l 97 614 l 97 646 m 129 678 l 161 678 l 161 646 l 129 646 l 129 678 m 161 711 l 194 711 l 194 678 l 161 678 l 161 711 m 194 743 l 226 743 l 226 711 l 194 711 l 194 743 m 194 775 l 226 775 l 226 743 l 194 743 l 194 775 m 420 807 l 452 807 l 452 775 l 420 775 l 420 807 m 484 775 l 517 775 l 517 743 l 484 743 l 484 775 m 549 743 l 581 743 l 581 711 l 549 711 l 549 743 m 517 775 l 549 775 l 549 743 l 517 743 l 517 775 m 484 807 l 517 807 l 517 775 l 484 775 l 484 807 m 452 807 l 484 807 l 484 775 l 452 775 l 452 807 m 291 581 l 323 581 l 323 549 l 291 549 l 291 581 m 323 549 l 355 549 l 355 517 l 323 517 l 323 549 m 291 549 l 323 549 l 323 517 l 291 517 l 291 549 m 323 517 l 355 517 l 355 484 l 323 484 l 323 517 m 355 291 l 388 291 l 388 258 l 355 258 l 355 291 m 323 291 l 355 291 l 355 258 l 323 258 l 323 291 m 323 258 l 355 258 l 355 226 l 323 226 l 323 258 m 291 226 l 323 226 l 323 194 l 291 194 l 291 226 m 258 194 l 291 194 l 291 161 l 258 161 l 258 194 m 614 355 l 646 355 l 646 323 l 614 323 l 614 355 m 614 388 l 646 388 l 646 355 l 614 355 l 614 388 m 614 420 l 646 420 l 646 388 l 614 388 l 614 420 m 614 452 l 646 452 l 646 420 l 614 420 l 614 452 m 614 484 l 646 484 l 646 452 l 614 452 l 614 484 m 614 517 l 646 517 l 646 484 l 614 484 l 614 517 m 614 549 l 646 549 l 646 517 l 614 517 l 614 549 m 678 1034 l 678 1001 l 646 1001 l 646 1034 l 678 1034 m 646 1034 l 646 1001 l 614 1001 l 614 1034 l 646 1034 m 646 1001 l 646 969 l 614 969 l 614 1001 l 646 1001 m 678 1001 l 678 969 l 646 969 l 646 1001 l 678 1001 m 614 1001 l 614 969 l 581 969 l 581 1001 l 614 1001 m 614 969 l 614 937 l 581 937 l 581 969 l 614 969 m 646 969 l 646 937 l 614 937 l 614 969 l 646 969 m 581 969 l 581 937 l 549 937 l 549 969 l 581 969 m 581 937 l 581 904 l 549 904 l 549 937 l 581 937 m 614 937 l 614 904 l 581 904 l 581 937 l 614 937 m 549 937 l 549 904 l 517 904 l 517 937 l 549 937 m 549 904 l 549 872 l 517 872 l 517 904 l 549 904 m 581 904 l 581 872 l 549 872 l 549 904 l 581 904 m 517 937 l 517 904 l 484 904 l 484 937 l 517 937 m 517 904 l 517 872 l 484 872 l 484 904 l 517 904 m 549 969 l 549 937 l 517 937 l 517 969 l 549 969 m 581 1001 l 581 969 l 549 969 l 549 1001 l 581 1001 m 614 1034 l 614 1001 l 581 1001 l 581 1034 l 614 1034 z "},"":{"ha":904,"x_min":32,"x_max":872,"o":"m 97 678 l 129 678 l 129 646 l 97 646 l 97 678 m 65 646 l 97 646 l 97 614 l 65 614 l 65 646 m 129 711 l 161 711 l 161 678 l 129 678 l 129 711 m 161 743 l 194 743 l 194 711 l 161 711 l 161 743 m 226 807 l 258 807 l 258 775 l 226 775 l 226 807 m 226 775 l 258 775 l 258 743 l 226 743 l 226 775 m 291 807 l 323 807 l 323 775 l 291 775 l 291 807 m 291 775 l 323 775 l 323 743 l 291 743 l 291 775 m 258 775 l 291 775 l 291 743 l 258 743 l 258 775 m 258 807 l 291 807 l 291 775 l 258 775 l 258 807 m 323 807 l 355 807 l 355 775 l 323 775 l 323 807 m 355 775 l 388 775 l 388 743 l 355 743 l 355 775 m 323 775 l 355 775 l 355 743 l 323 743 l 323 775 m 420 775 l 452 775 l 452 743 l 420 743 l 420 775 m 388 775 l 420 775 l 420 743 l 388 743 l 388 775 m 484 743 l 517 743 l 517 711 l 484 711 l 484 743 m 484 711 l 517 711 l 517 678 l 484 678 l 484 711 m 484 678 l 517 678 l 517 646 l 484 646 l 484 678 m 452 711 l 484 711 l 484 678 l 452 678 l 452 711 m 452 743 l 484 743 l 484 711 l 452 711 l 452 743 m 452 775 l 484 775 l 484 743 l 452 743 l 452 775 m 678 775 l 711 775 l 711 743 l 678 743 l 678 775 m 711 807 l 743 807 l 743 775 l 711 775 l 711 807 m 743 807 l 775 807 l 775 775 l 743 775 l 743 807 m 743 775 l 775 775 l 775 743 l 743 743 l 743 775 m 711 775 l 743 775 l 743 743 l 711 743 l 711 775 m 807 743 l 840 743 l 840 711 l 807 711 l 807 743 m 517 711 l 549 711 l 549 678 l 517 678 l 517 711 m 517 678 l 549 678 l 549 646 l 517 646 l 517 678 m 549 678 l 581 678 l 581 646 l 549 646 l 549 678 m 581 678 l 614 678 l 614 646 l 581 646 l 581 678 m 614 678 l 646 678 l 646 646 l 614 646 l 614 678 m 614 646 l 646 646 l 646 614 l 614 614 l 614 646 m 581 646 l 614 646 l 614 614 l 581 614 l 581 646 m 549 646 l 581 646 l 581 614 l 549 614 l 549 646 m 388 614 l 420 614 l 420 581 l 388 581 l 388 614 m 388 581 l 420 581 l 420 549 l 388 549 l 388 581 m 549 614 l 581 614 l 581 581 l 549 581 l 549 614 m 581 614 l 614 614 l 614 581 l 581 581 l 581 614 m 614 614 l 646 614 l 646 581 l 614 581 l 614 614 m 614 581 l 646 581 l 646 549 l 614 549 l 614 581 m 581 549 l 614 549 l 614 517 l 581 517 l 581 549 m 549 549 l 581 549 l 581 517 l 549 517 l 549 549 m 581 581 l 614 581 l 614 549 l 581 549 l 581 581 m 549 581 l 581 581 l 581 549 l 549 549 l 549 581 m 517 517 l 549 517 l 549 484 l 517 484 l 517 517 m 517 549 l 549 549 l 549 517 l 517 517 l 517 549 m 549 517 l 581 517 l 581 484 l 549 484 l 549 517 m 581 517 l 614 517 l 614 484 l 581 484 l 581 517 m 355 614 l 388 614 l 388 581 l 355 581 l 355 614 m 355 581 l 388 581 l 388 549 l 355 549 l 355 581 m 355 549 l 388 549 l 388 517 l 355 517 l 355 549 m 355 517 l 388 517 l 388 484 l 355 484 l 355 517 m 388 355 l 420 355 l 420 323 l 388 323 l 388 355 m 420 355 l 452 355 l 452 323 l 420 323 l 420 355 m 517 484 l 549 484 l 549 452 l 517 452 l 517 484 m 517 452 l 549 452 l 549 420 l 517 420 l 517 452 m 517 420 l 549 420 l 549 388 l 517 388 l 517 420 m 517 388 l 549 388 l 549 355 l 517 355 l 517 388 m 549 484 l 581 484 l 581 452 l 549 452 l 549 484 m 549 452 l 581 452 l 581 420 l 549 420 l 549 452 m 549 420 l 581 420 l 581 388 l 549 388 l 549 420 m 549 388 l 581 388 l 581 355 l 549 355 l 549 388 m 517 323 l 549 323 l 549 291 l 517 291 l 517 323 m 549 323 l 581 323 l 581 291 l 549 291 l 549 323 m 581 355 l 614 355 l 614 323 l 581 323 l 581 355 m 581 388 l 614 388 l 614 355 l 581 355 l 581 388 m 581 420 l 614 420 l 614 388 l 581 388 l 581 420 m 581 452 l 614 452 l 614 420 l 581 420 l 581 452 m 581 484 l 614 484 l 614 452 l 581 452 l 581 484 m 581 323 l 614 323 l 614 291 l 581 291 l 581 323 m 614 291 l 646 291 l 646 258 l 614 258 l 614 291 m 614 258 l 646 258 l 646 226 l 614 226 l 614 258 m 581 258 l 614 258 l 614 226 l 581 226 l 581 258 m 549 258 l 581 258 l 581 226 l 549 226 l 549 258 m 517 258 l 549 258 l 549 226 l 517 226 l 517 258 m 517 291 l 549 291 l 549 258 l 517 258 l 517 291 m 549 291 l 581 291 l 581 258 l 549 258 l 549 291 m 581 291 l 614 291 l 614 258 l 581 258 l 581 291 m 194 194 l 226 194 l 226 161 l 194 161 l 194 194 m 161 161 l 194 161 l 194 129 l 161 129 l 161 161 m 129 129 l 161 129 l 161 97 l 129 97 l 129 129 m 517 226 l 549 226 l 549 194 l 517 194 l 517 226 m 549 226 l 581 226 l 581 194 l 549 194 l 549 226 m 581 226 l 614 226 l 614 194 l 581 194 l 581 226 m 614 226 l 646 226 l 646 194 l 614 194 l 614 226 m 161 129 l 194 129 l 194 97 l 161 97 l 161 129 m 194 129 l 226 129 l 226 97 l 194 97 l 194 129 m 194 97 l 226 97 l 226 65 l 194 65 l 194 97 m 161 97 l 194 97 l 194 65 l 161 65 l 161 97 m 226 97 l 258 97 l 258 65 l 226 65 l 226 97 m 388 129 l 420 129 l 420 97 l 388 97 l 388 129 m 388 97 l 420 97 l 420 65 l 388 65 l 388 97 m 355 97 l 388 97 l 388 65 l 355 65 l 355 97 m 420 161 l 452 161 l 452 129 l 420 129 l 420 161 m 517 194 l 549 194 l 549 161 l 517 161 l 517 194 m 549 194 l 581 194 l 581 161 l 549 161 l 549 194 m 581 194 l 614 194 l 614 161 l 581 161 l 581 194 m 614 194 l 646 194 l 646 161 l 614 161 l 614 194 m 614 161 l 646 161 l 646 129 l 614 129 l 614 161 m 581 161 l 614 161 l 614 129 l 581 129 l 581 161 m 549 161 l 581 161 l 581 129 l 549 129 l 549 161 m 517 161 l 549 161 l 549 129 l 517 129 l 517 161 m 517 129 l 549 129 l 549 97 l 517 97 l 517 129 m 517 97 l 549 97 l 549 65 l 517 65 l 517 97 m 549 97 l 581 97 l 581 65 l 549 65 l 549 97 m 581 97 l 614 97 l 614 65 l 581 65 l 581 97 m 581 129 l 614 129 l 614 97 l 581 97 l 581 129 m 614 129 l 646 129 l 646 97 l 614 97 l 614 129 m 549 129 l 581 129 l 581 97 l 549 97 l 549 129 m 614 97 l 646 97 l 646 65 l 614 65 l 614 97 m 581 65 l 614 65 l 614 32 l 581 32 l 581 65 m 581 32 l 614 32 l 614 0 l 581 0 l 581 32 m 614 32 l 646 32 l 646 0 l 614 0 l 614 32 m 614 65 l 646 65 l 646 32 l 614 32 l 614 65 m 678 65 l 711 65 l 711 32 l 678 32 l 678 65 m 678 32 l 711 32 l 711 0 l 678 0 l 678 32 m 646 32 l 678 32 l 678 0 l 646 0 l 646 32 m 743 129 l 775 129 l 775 97 l 743 97 l 743 129 m 743 97 l 775 97 l 775 65 l 743 65 l 743 97 m 711 97 l 743 97 l 743 65 l 711 65 l 711 97 m 711 65 l 743 65 l 743 32 l 711 32 l 711 65 m 549 65 l 581 65 l 581 32 l 549 32 l 549 65 m 323 65 l 355 65 l 355 32 l 323 32 l 323 65 m 291 65 l 323 65 l 323 32 l 291 32 l 291 65 m 291 32 l 323 32 l 323 0 l 291 0 l 291 32 m 323 32 l 355 32 l 355 0 l 323 0 l 323 32 m 258 65 l 291 65 l 291 32 l 258 32 l 258 65 m 226 32 l 258 32 l 258 0 l 226 0 l 226 32 m 258 32 l 291 32 l 291 0 l 258 0 l 258 32 m 226 65 l 258 65 l 258 32 l 226 32 l 226 65 m 355 65 l 388 65 l 388 32 l 355 32 l 355 65 m 420 129 l 452 129 l 452 97 l 420 97 l 420 129 m 775 775 l 807 775 l 807 743 l 775 743 l 775 775 m 97 97 l 129 97 l 129 65 l 97 65 l 97 97 m 194 161 l 226 161 l 226 129 l 194 129 l 194 161 m 646 65 l 678 65 l 678 32 l 646 32 l 646 65 m 65 65 l 97 65 l 97 32 l 65 32 l 65 65 m 355 388 l 388 388 l 388 355 l 355 355 l 355 388 m 355 452 l 388 452 l 388 420 l 355 420 l 355 452 m 355 420 l 388 420 l 388 388 l 355 388 l 355 420 m 355 484 l 388 484 l 388 452 l 355 452 l 355 484 m 388 549 l 420 549 l 420 517 l 388 517 l 388 549 m 388 517 l 420 517 l 420 484 l 388 484 l 388 517 m 258 258 l 291 258 l 291 226 l 258 226 l 258 258 m 420 743 l 452 743 l 452 711 l 420 711 l 420 743 m 614 323 l 646 323 l 646 291 l 614 291 l 614 323 m 194 65 l 226 65 l 226 32 l 194 32 l 194 65 m 291 646 l 323 646 l 323 614 l 291 614 l 291 646 m 323 646 l 355 646 l 355 614 l 323 614 l 323 646 m 355 646 l 388 646 l 388 614 l 355 614 l 355 646 m 355 807 l 388 807 l 388 775 l 355 775 l 355 807 m 323 323 l 355 323 l 355 291 l 323 291 l 323 323 m 775 161 l 807 161 l 807 129 l 775 129 l 775 161 m 226 226 l 258 226 l 258 194 l 226 194 l 226 226 m 291 291 l 323 291 l 323 258 l 291 258 l 291 291 m 291 258 l 323 258 l 323 226 l 291 226 l 291 258 m 258 226 l 291 226 l 291 194 l 258 194 l 258 226 m 226 194 l 258 194 l 258 161 l 226 161 l 226 194 m 226 161 l 258 161 l 258 129 l 226 129 l 226 161 m 355 355 l 388 355 l 388 323 l 355 323 l 355 355 m 452 355 l 484 355 l 484 323 l 452 323 l 452 355 m 355 323 l 388 323 l 388 291 l 355 291 l 355 323 m 388 323 l 420 323 l 420 291 l 388 291 l 388 323 m 420 323 l 452 323 l 452 291 l 420 291 l 420 323 m 388 484 l 420 484 l 420 452 l 388 452 l 388 484 m 775 129 l 807 129 l 807 97 l 775 97 l 775 129 m 646 97 l 678 97 l 678 65 l 646 65 l 646 97 m 646 743 l 678 743 l 678 711 l 646 711 l 646 743 m 840 711 l 872 711 l 872 678 l 840 678 l 840 711 m 388 452 l 420 452 l 420 420 l 388 420 l 388 452 m 388 420 l 420 420 l 420 388 l 388 388 l 388 420 m 388 388 l 420 388 l 420 355 l 388 355 l 388 388 m 549 355 l 581 355 l 581 323 l 549 323 l 549 355 m 517 355 l 549 355 l 549 323 l 517 323 l 517 355 m 678 97 l 711 97 l 711 65 l 678 65 l 678 97 m 258 97 l 291 97 l 291 65 l 258 65 l 258 97 m 291 97 l 323 97 l 323 65 l 291 65 l 291 97 m 323 97 l 355 97 l 355 65 l 323 65 l 323 97 m 32 32 l 65 32 l 65 0 l 32 0 l 32 32 m 388 807 l 420 807 l 420 775 l 388 775 l 388 807 m 97 129 l 129 129 l 129 97 l 97 97 l 97 129 m 65 97 l 97 97 l 97 65 l 65 65 l 65 97 m 32 65 l 65 65 l 65 32 l 32 32 l 32 65 m 129 97 l 161 97 l 161 65 l 129 65 l 129 97 m 484 355 l 517 355 l 517 323 l 484 323 l 484 355 m 452 323 l 484 323 l 484 291 l 452 291 l 452 323 m 517 646 l 549 646 l 549 614 l 517 614 l 517 646 m 581 711 l 614 711 l 614 678 l 581 678 l 581 711 m 614 711 l 646 711 l 646 678 l 614 678 l 614 711 m 549 711 l 581 711 l 581 678 l 549 678 l 549 711 m 517 743 l 549 743 l 549 711 l 517 711 l 517 743 m 388 743 l 420 743 l 420 711 l 388 711 l 388 743 m 517 614 l 549 614 l 549 581 l 517 581 l 517 614 m 129 161 l 161 161 l 161 129 l 129 129 l 129 161 m 226 129 l 258 129 l 258 97 l 226 97 l 226 129 m 258 129 l 291 129 l 291 97 l 258 97 l 258 129 m 323 678 l 355 678 l 355 646 l 323 646 l 323 678 m 420 711 l 452 711 l 452 678 l 420 678 l 420 711 m 452 678 l 484 678 l 484 646 l 452 646 l 452 678 m 484 646 l 517 646 l 517 614 l 484 614 l 484 646 m 517 581 l 549 581 l 549 549 l 517 549 l 517 581 m 420 581 l 452 581 l 452 549 l 420 549 l 420 581 m 420 549 l 452 549 l 452 517 l 420 517 l 420 549 m 420 517 l 452 517 l 452 484 l 420 484 l 420 517 m 420 484 l 452 484 l 452 452 l 420 452 l 420 484 m 420 452 l 452 452 l 452 420 l 420 420 l 420 452 m 420 420 l 452 420 l 452 388 l 420 388 l 420 420 m 420 388 l 452 388 l 452 355 l 420 355 l 420 388 m 258 614 l 291 614 l 291 581 l 258 581 l 258 614 m 226 581 l 258 581 l 258 549 l 226 549 l 226 581 m 194 549 l 226 549 l 226 517 l 194 517 l 194 549 m 291 614 l 323 614 l 323 581 l 291 581 l 291 614 m 258 581 l 291 581 l 291 549 l 258 549 l 258 581 m 226 549 l 258 549 l 258 517 l 226 517 l 226 549 m 194 517 l 226 517 l 226 484 l 194 484 l 194 517 m 323 614 l 355 614 l 355 581 l 323 581 l 323 614 m 323 581 l 355 581 l 355 549 l 323 549 l 323 581 m 678 743 l 711 743 l 711 711 l 678 711 l 678 743 m 646 711 l 678 711 l 678 678 l 646 678 l 646 711 m 775 743 l 807 743 l 807 711 l 775 711 l 775 743 m 743 743 l 775 743 l 775 711 l 743 711 l 743 743 m 775 711 l 807 711 l 807 678 l 775 678 l 775 711 m 807 711 l 840 711 l 840 678 l 807 678 l 807 711 m 711 743 l 743 743 l 743 711 l 711 711 l 711 743 m 743 711 l 775 711 l 775 678 l 743 678 l 743 711 m 775 678 l 807 678 l 807 646 l 775 646 l 775 678 m 807 678 l 840 678 l 840 646 l 807 646 l 807 678 m 711 711 l 743 711 l 743 678 l 711 678 l 711 711 m 743 678 l 775 678 l 775 646 l 743 646 l 743 678 m 775 646 l 807 646 l 807 614 l 775 614 l 775 646 m 65 614 l 97 614 l 97 581 l 65 581 l 65 614 m 97 646 l 129 646 l 129 614 l 97 614 l 97 646 m 129 678 l 161 678 l 161 646 l 129 646 l 129 678 m 161 711 l 194 711 l 194 678 l 161 678 l 161 711 m 194 743 l 226 743 l 226 711 l 194 711 l 194 743 m 194 775 l 226 775 l 226 743 l 194 743 l 194 775 m 420 807 l 452 807 l 452 775 l 420 775 l 420 807 m 484 775 l 517 775 l 517 743 l 484 743 l 484 775 m 549 743 l 581 743 l 581 711 l 549 711 l 549 743 m 517 775 l 549 775 l 549 743 l 517 743 l 517 775 m 484 807 l 517 807 l 517 775 l 484 775 l 484 807 m 452 807 l 484 807 l 484 775 l 452 775 l 452 807 m 291 581 l 323 581 l 323 549 l 291 549 l 291 581 m 323 549 l 355 549 l 355 517 l 323 517 l 323 549 m 291 549 l 323 549 l 323 517 l 291 517 l 291 549 m 323 517 l 355 517 l 355 484 l 323 484 l 323 517 m 355 291 l 388 291 l 388 258 l 355 258 l 355 291 m 323 291 l 355 291 l 355 258 l 323 258 l 323 291 m 323 258 l 355 258 l 355 226 l 323 226 l 323 258 m 291 226 l 323 226 l 323 194 l 291 194 l 291 226 m 258 194 l 291 194 l 291 161 l 258 161 l 258 194 m 614 355 l 646 355 l 646 323 l 614 323 l 614 355 m 614 388 l 646 388 l 646 355 l 614 355 l 614 388 m 614 420 l 646 420 l 646 388 l 614 388 l 614 420 m 614 452 l 646 452 l 646 420 l 614 420 l 614 452 m 614 484 l 646 484 l 646 452 l 614 452 l 614 484 m 614 517 l 646 517 l 646 484 l 614 484 l 614 517 m 614 549 l 646 549 l 646 517 l 614 517 l 614 549 m 581 904 l 581 937 l 614 937 l 614 904 l 581 904 m 549 904 l 549 937 l 581 937 l 581 904 l 549 904 m 549 872 l 549 904 l 581 904 l 581 872 l 549 872 m 581 872 l 581 904 l 614 904 l 614 872 l 581 872 m 517 904 l 517 937 l 549 937 l 549 904 l 517 904 m 484 937 l 484 969 l 517 969 l 517 937 l 484 937 m 517 937 l 517 969 l 549 969 l 549 937 l 517 937 m 484 969 l 484 1001 l 517 1001 l 517 969 l 484 969 m 614 872 l 614 904 l 646 904 l 646 872 l 614 872 m 614 904 l 614 937 l 646 937 l 646 904 l 614 904 m 646 904 l 646 937 l 678 937 l 678 904 l 646 904 m 646 937 l 646 969 l 678 969 l 678 937 l 646 937 m 614 937 l 614 969 l 646 969 l 646 937 l 614 937 m 678 937 l 678 969 l 711 969 l 711 937 l 678 937 m 678 969 l 678 1001 l 711 1001 l 711 969 l 678 969 m 646 969 l 646 1001 l 678 1001 l 678 969 l 646 969 m 517 872 l 517 904 l 549 904 l 549 872 l 517 872 m 484 904 l 484 937 l 517 937 l 517 904 l 484 904 m 452 969 l 452 1001 l 484 1001 l 484 969 l 452 969 m 452 937 l 452 969 l 484 969 l 484 937 l 452 937 m 678 904 l 678 937 l 711 937 l 711 904 l 678 904 m 581 937 l 581 969 l 614 969 l 614 937 l 581 937 m 452 904 l 452 937 l 484 937 l 484 904 l 452 904 m 420 937 l 420 969 l 452 969 l 452 937 l 420 937 m 420 969 l 420 1001 l 452 1001 l 452 969 l 420 969 m 711 937 l 711 969 l 743 969 l 743 937 l 711 937 m 711 969 l 711 1001 l 743 1001 l 743 969 l 711 969 m 549 969 l 581 969 l 581 937 l 549 937 l 549 969 m 420 1034 l 452 1034 l 452 1001 l 420 1001 l 420 1034 m 452 1034 l 484 1034 l 484 1001 l 452 1001 l 452 1034 m 678 1034 l 711 1034 l 711 1001 l 678 1001 l 678 1034 m 711 1034 l 743 1034 l 743 1001 l 711 1001 l 711 1034 m 646 1034 l 678 1034 l 678 1001 l 646 1001 l 646 1034 m 484 1034 l 517 1034 l 517 1001 l 484 1001 l 484 1034 z "},"":{"ha":904,"x_min":32,"x_max":872,"o":"m 97 678 l 129 678 l 129 646 l 97 646 l 97 678 m 65 646 l 97 646 l 97 614 l 65 614 l 65 646 m 129 711 l 161 711 l 161 678 l 129 678 l 129 711 m 161 743 l 194 743 l 194 711 l 161 711 l 161 743 m 226 807 l 258 807 l 258 775 l 226 775 l 226 807 m 226 775 l 258 775 l 258 743 l 226 743 l 226 775 m 291 807 l 323 807 l 323 775 l 291 775 l 291 807 m 291 775 l 323 775 l 323 743 l 291 743 l 291 775 m 258 775 l 291 775 l 291 743 l 258 743 l 258 775 m 258 807 l 291 807 l 291 775 l 258 775 l 258 807 m 323 807 l 355 807 l 355 775 l 323 775 l 323 807 m 355 775 l 388 775 l 388 743 l 355 743 l 355 775 m 323 775 l 355 775 l 355 743 l 323 743 l 323 775 m 420 775 l 452 775 l 452 743 l 420 743 l 420 775 m 388 775 l 420 775 l 420 743 l 388 743 l 388 775 m 484 743 l 517 743 l 517 711 l 484 711 l 484 743 m 484 711 l 517 711 l 517 678 l 484 678 l 484 711 m 484 678 l 517 678 l 517 646 l 484 646 l 484 678 m 452 711 l 484 711 l 484 678 l 452 678 l 452 711 m 452 743 l 484 743 l 484 711 l 452 711 l 452 743 m 452 775 l 484 775 l 484 743 l 452 743 l 452 775 m 678 775 l 711 775 l 711 743 l 678 743 l 678 775 m 711 807 l 743 807 l 743 775 l 711 775 l 711 807 m 743 807 l 775 807 l 775 775 l 743 775 l 743 807 m 743 775 l 775 775 l 775 743 l 743 743 l 743 775 m 711 775 l 743 775 l 743 743 l 711 743 l 711 775 m 807 743 l 840 743 l 840 711 l 807 711 l 807 743 m 517 711 l 549 711 l 549 678 l 517 678 l 517 711 m 517 678 l 549 678 l 549 646 l 517 646 l 517 678 m 549 678 l 581 678 l 581 646 l 549 646 l 549 678 m 581 678 l 614 678 l 614 646 l 581 646 l 581 678 m 614 678 l 646 678 l 646 646 l 614 646 l 614 678 m 614 646 l 646 646 l 646 614 l 614 614 l 614 646 m 581 646 l 614 646 l 614 614 l 581 614 l 581 646 m 549 646 l 581 646 l 581 614 l 549 614 l 549 646 m 388 614 l 420 614 l 420 581 l 388 581 l 388 614 m 388 581 l 420 581 l 420 549 l 388 549 l 388 581 m 549 614 l 581 614 l 581 581 l 549 581 l 549 614 m 581 614 l 614 614 l 614 581 l 581 581 l 581 614 m 614 614 l 646 614 l 646 581 l 614 581 l 614 614 m 614 581 l 646 581 l 646 549 l 614 549 l 614 581 m 581 549 l 614 549 l 614 517 l 581 517 l 581 549 m 549 549 l 581 549 l 581 517 l 549 517 l 549 549 m 581 581 l 614 581 l 614 549 l 581 549 l 581 581 m 549 581 l 581 581 l 581 549 l 549 549 l 549 581 m 517 517 l 549 517 l 549 484 l 517 484 l 517 517 m 517 549 l 549 549 l 549 517 l 517 517 l 517 549 m 549 517 l 581 517 l 581 484 l 549 484 l 549 517 m 581 517 l 614 517 l 614 484 l 581 484 l 581 517 m 355 614 l 388 614 l 388 581 l 355 581 l 355 614 m 355 581 l 388 581 l 388 549 l 355 549 l 355 581 m 355 549 l 388 549 l 388 517 l 355 517 l 355 549 m 355 517 l 388 517 l 388 484 l 355 484 l 355 517 m 388 355 l 420 355 l 420 323 l 388 323 l 388 355 m 420 355 l 452 355 l 452 323 l 420 323 l 420 355 m 517 484 l 549 484 l 549 452 l 517 452 l 517 484 m 517 452 l 549 452 l 549 420 l 517 420 l 517 452 m 517 420 l 549 420 l 549 388 l 517 388 l 517 420 m 517 388 l 549 388 l 549 355 l 517 355 l 517 388 m 549 484 l 581 484 l 581 452 l 549 452 l 549 484 m 549 452 l 581 452 l 581 420 l 549 420 l 549 452 m 549 420 l 581 420 l 581 388 l 549 388 l 549 420 m 549 388 l 581 388 l 581 355 l 549 355 l 549 388 m 517 323 l 549 323 l 549 291 l 517 291 l 517 323 m 549 323 l 581 323 l 581 291 l 549 291 l 549 323 m 581 355 l 614 355 l 614 323 l 581 323 l 581 355 m 581 388 l 614 388 l 614 355 l 581 355 l 581 388 m 581 420 l 614 420 l 614 388 l 581 388 l 581 420 m 581 452 l 614 452 l 614 420 l 581 420 l 581 452 m 581 484 l 614 484 l 614 452 l 581 452 l 581 484 m 581 323 l 614 323 l 614 291 l 581 291 l 581 323 m 614 291 l 646 291 l 646 258 l 614 258 l 614 291 m 614 258 l 646 258 l 646 226 l 614 226 l 614 258 m 581 258 l 614 258 l 614 226 l 581 226 l 581 258 m 549 258 l 581 258 l 581 226 l 549 226 l 549 258 m 517 258 l 549 258 l 549 226 l 517 226 l 517 258 m 517 291 l 549 291 l 549 258 l 517 258 l 517 291 m 549 291 l 581 291 l 581 258 l 549 258 l 549 291 m 581 291 l 614 291 l 614 258 l 581 258 l 581 291 m 194 194 l 226 194 l 226 161 l 194 161 l 194 194 m 161 161 l 194 161 l 194 129 l 161 129 l 161 161 m 129 129 l 161 129 l 161 97 l 129 97 l 129 129 m 517 226 l 549 226 l 549 194 l 517 194 l 517 226 m 549 226 l 581 226 l 581 194 l 549 194 l 549 226 m 581 226 l 614 226 l 614 194 l 581 194 l 581 226 m 614 226 l 646 226 l 646 194 l 614 194 l 614 226 m 161 129 l 194 129 l 194 97 l 161 97 l 161 129 m 194 129 l 226 129 l 226 97 l 194 97 l 194 129 m 194 97 l 226 97 l 226 65 l 194 65 l 194 97 m 161 97 l 194 97 l 194 65 l 161 65 l 161 97 m 226 97 l 258 97 l 258 65 l 226 65 l 226 97 m 388 129 l 420 129 l 420 97 l 388 97 l 388 129 m 388 97 l 420 97 l 420 65 l 388 65 l 388 97 m 355 97 l 388 97 l 388 65 l 355 65 l 355 97 m 420 161 l 452 161 l 452 129 l 420 129 l 420 161 m 517 194 l 549 194 l 549 161 l 517 161 l 517 194 m 549 194 l 581 194 l 581 161 l 549 161 l 549 194 m 581 194 l 614 194 l 614 161 l 581 161 l 581 194 m 614 194 l 646 194 l 646 161 l 614 161 l 614 194 m 614 161 l 646 161 l 646 129 l 614 129 l 614 161 m 581 161 l 614 161 l 614 129 l 581 129 l 581 161 m 549 161 l 581 161 l 581 129 l 549 129 l 549 161 m 517 161 l 549 161 l 549 129 l 517 129 l 517 161 m 517 129 l 549 129 l 549 97 l 517 97 l 517 129 m 517 97 l 549 97 l 549 65 l 517 65 l 517 97 m 549 97 l 581 97 l 581 65 l 549 65 l 549 97 m 581 97 l 614 97 l 614 65 l 581 65 l 581 97 m 581 129 l 614 129 l 614 97 l 581 97 l 581 129 m 614 129 l 646 129 l 646 97 l 614 97 l 614 129 m 549 129 l 581 129 l 581 97 l 549 97 l 549 129 m 614 97 l 646 97 l 646 65 l 614 65 l 614 97 m 581 65 l 614 65 l 614 32 l 581 32 l 581 65 m 581 32 l 614 32 l 614 0 l 581 0 l 581 32 m 614 32 l 646 32 l 646 0 l 614 0 l 614 32 m 614 65 l 646 65 l 646 32 l 614 32 l 614 65 m 678 65 l 711 65 l 711 32 l 678 32 l 678 65 m 678 32 l 711 32 l 711 0 l 678 0 l 678 32 m 646 32 l 678 32 l 678 0 l 646 0 l 646 32 m 743 129 l 775 129 l 775 97 l 743 97 l 743 129 m 743 97 l 775 97 l 775 65 l 743 65 l 743 97 m 711 97 l 743 97 l 743 65 l 711 65 l 711 97 m 711 65 l 743 65 l 743 32 l 711 32 l 711 65 m 549 65 l 581 65 l 581 32 l 549 32 l 549 65 m 323 65 l 355 65 l 355 32 l 323 32 l 323 65 m 291 65 l 323 65 l 323 32 l 291 32 l 291 65 m 291 32 l 323 32 l 323 0 l 291 0 l 291 32 m 323 32 l 355 32 l 355 0 l 323 0 l 323 32 m 258 65 l 291 65 l 291 32 l 258 32 l 258 65 m 226 32 l 258 32 l 258 0 l 226 0 l 226 32 m 258 32 l 291 32 l 291 0 l 258 0 l 258 32 m 226 65 l 258 65 l 258 32 l 226 32 l 226 65 m 355 65 l 388 65 l 388 32 l 355 32 l 355 65 m 420 129 l 452 129 l 452 97 l 420 97 l 420 129 m 775 775 l 807 775 l 807 743 l 775 743 l 775 775 m 97 97 l 129 97 l 129 65 l 97 65 l 97 97 m 194 161 l 226 161 l 226 129 l 194 129 l 194 161 m 646 65 l 678 65 l 678 32 l 646 32 l 646 65 m 65 65 l 97 65 l 97 32 l 65 32 l 65 65 m 355 388 l 388 388 l 388 355 l 355 355 l 355 388 m 355 452 l 388 452 l 388 420 l 355 420 l 355 452 m 355 420 l 388 420 l 388 388 l 355 388 l 355 420 m 355 484 l 388 484 l 388 452 l 355 452 l 355 484 m 388 549 l 420 549 l 420 517 l 388 517 l 388 549 m 388 517 l 420 517 l 420 484 l 388 484 l 388 517 m 258 258 l 291 258 l 291 226 l 258 226 l 258 258 m 420 743 l 452 743 l 452 711 l 420 711 l 420 743 m 614 323 l 646 323 l 646 291 l 614 291 l 614 323 m 194 65 l 226 65 l 226 32 l 194 32 l 194 65 m 291 646 l 323 646 l 323 614 l 291 614 l 291 646 m 323 646 l 355 646 l 355 614 l 323 614 l 323 646 m 355 646 l 388 646 l 388 614 l 355 614 l 355 646 m 355 807 l 388 807 l 388 775 l 355 775 l 355 807 m 323 323 l 355 323 l 355 291 l 323 291 l 323 323 m 775 161 l 807 161 l 807 129 l 775 129 l 775 161 m 226 226 l 258 226 l 258 194 l 226 194 l 226 226 m 291 291 l 323 291 l 323 258 l 291 258 l 291 291 m 291 258 l 323 258 l 323 226 l 291 226 l 291 258 m 258 226 l 291 226 l 291 194 l 258 194 l 258 226 m 226 194 l 258 194 l 258 161 l 226 161 l 226 194 m 226 161 l 258 161 l 258 129 l 226 129 l 226 161 m 355 355 l 388 355 l 388 323 l 355 323 l 355 355 m 452 355 l 484 355 l 484 323 l 452 323 l 452 355 m 355 323 l 388 323 l 388 291 l 355 291 l 355 323 m 388 323 l 420 323 l 420 291 l 388 291 l 388 323 m 420 323 l 452 323 l 452 291 l 420 291 l 420 323 m 388 484 l 420 484 l 420 452 l 388 452 l 388 484 m 775 129 l 807 129 l 807 97 l 775 97 l 775 129 m 646 97 l 678 97 l 678 65 l 646 65 l 646 97 m 646 743 l 678 743 l 678 711 l 646 711 l 646 743 m 840 711 l 872 711 l 872 678 l 840 678 l 840 711 m 388 452 l 420 452 l 420 420 l 388 420 l 388 452 m 388 420 l 420 420 l 420 388 l 388 388 l 388 420 m 388 388 l 420 388 l 420 355 l 388 355 l 388 388 m 549 355 l 581 355 l 581 323 l 549 323 l 549 355 m 517 355 l 549 355 l 549 323 l 517 323 l 517 355 m 678 97 l 711 97 l 711 65 l 678 65 l 678 97 m 258 97 l 291 97 l 291 65 l 258 65 l 258 97 m 291 97 l 323 97 l 323 65 l 291 65 l 291 97 m 323 97 l 355 97 l 355 65 l 323 65 l 323 97 m 32 32 l 65 32 l 65 0 l 32 0 l 32 32 m 388 807 l 420 807 l 420 775 l 388 775 l 388 807 m 97 129 l 129 129 l 129 97 l 97 97 l 97 129 m 65 97 l 97 97 l 97 65 l 65 65 l 65 97 m 32 65 l 65 65 l 65 32 l 32 32 l 32 65 m 129 97 l 161 97 l 161 65 l 129 65 l 129 97 m 484 355 l 517 355 l 517 323 l 484 323 l 484 355 m 452 323 l 484 323 l 484 291 l 452 291 l 452 323 m 517 646 l 549 646 l 549 614 l 517 614 l 517 646 m 581 711 l 614 711 l 614 678 l 581 678 l 581 711 m 614 711 l 646 711 l 646 678 l 614 678 l 614 711 m 549 711 l 581 711 l 581 678 l 549 678 l 549 711 m 517 743 l 549 743 l 549 711 l 517 711 l 517 743 m 388 743 l 420 743 l 420 711 l 388 711 l 388 743 m 517 614 l 549 614 l 549 581 l 517 581 l 517 614 m 129 161 l 161 161 l 161 129 l 129 129 l 129 161 m 226 129 l 258 129 l 258 97 l 226 97 l 226 129 m 258 129 l 291 129 l 291 97 l 258 97 l 258 129 m 323 678 l 355 678 l 355 646 l 323 646 l 323 678 m 420 711 l 452 711 l 452 678 l 420 678 l 420 711 m 452 678 l 484 678 l 484 646 l 452 646 l 452 678 m 484 646 l 517 646 l 517 614 l 484 614 l 484 646 m 517 581 l 549 581 l 549 549 l 517 549 l 517 581 m 420 581 l 452 581 l 452 549 l 420 549 l 420 581 m 420 549 l 452 549 l 452 517 l 420 517 l 420 549 m 420 517 l 452 517 l 452 484 l 420 484 l 420 517 m 420 484 l 452 484 l 452 452 l 420 452 l 420 484 m 420 452 l 452 452 l 452 420 l 420 420 l 420 452 m 420 420 l 452 420 l 452 388 l 420 388 l 420 420 m 420 388 l 452 388 l 452 355 l 420 355 l 420 388 m 258 614 l 291 614 l 291 581 l 258 581 l 258 614 m 226 581 l 258 581 l 258 549 l 226 549 l 226 581 m 194 549 l 226 549 l 226 517 l 194 517 l 194 549 m 291 614 l 323 614 l 323 581 l 291 581 l 291 614 m 258 581 l 291 581 l 291 549 l 258 549 l 258 581 m 226 549 l 258 549 l 258 517 l 226 517 l 226 549 m 194 517 l 226 517 l 226 484 l 194 484 l 194 517 m 323 614 l 355 614 l 355 581 l 323 581 l 323 614 m 323 581 l 355 581 l 355 549 l 323 549 l 323 581 m 678 743 l 711 743 l 711 711 l 678 711 l 678 743 m 646 711 l 678 711 l 678 678 l 646 678 l 646 711 m 775 743 l 807 743 l 807 711 l 775 711 l 775 743 m 743 743 l 775 743 l 775 711 l 743 711 l 743 743 m 775 711 l 807 711 l 807 678 l 775 678 l 775 711 m 807 711 l 840 711 l 840 678 l 807 678 l 807 711 m 711 743 l 743 743 l 743 711 l 711 711 l 711 743 m 743 711 l 775 711 l 775 678 l 743 678 l 743 711 m 775 678 l 807 678 l 807 646 l 775 646 l 775 678 m 807 678 l 840 678 l 840 646 l 807 646 l 807 678 m 711 711 l 743 711 l 743 678 l 711 678 l 711 711 m 743 678 l 775 678 l 775 646 l 743 646 l 743 678 m 775 646 l 807 646 l 807 614 l 775 614 l 775 646 m 65 614 l 97 614 l 97 581 l 65 581 l 65 614 m 97 646 l 129 646 l 129 614 l 97 614 l 97 646 m 129 678 l 161 678 l 161 646 l 129 646 l 129 678 m 161 711 l 194 711 l 194 678 l 161 678 l 161 711 m 194 743 l 226 743 l 226 711 l 194 711 l 194 743 m 194 775 l 226 775 l 226 743 l 194 743 l 194 775 m 420 807 l 452 807 l 452 775 l 420 775 l 420 807 m 484 775 l 517 775 l 517 743 l 484 743 l 484 775 m 549 743 l 581 743 l 581 711 l 549 711 l 549 743 m 517 775 l 549 775 l 549 743 l 517 743 l 517 775 m 484 807 l 517 807 l 517 775 l 484 775 l 484 807 m 452 807 l 484 807 l 484 775 l 452 775 l 452 807 m 291 581 l 323 581 l 323 549 l 291 549 l 291 581 m 323 549 l 355 549 l 355 517 l 323 517 l 323 549 m 291 549 l 323 549 l 323 517 l 291 517 l 291 549 m 323 517 l 355 517 l 355 484 l 323 484 l 323 517 m 355 291 l 388 291 l 388 258 l 355 258 l 355 291 m 323 291 l 355 291 l 355 258 l 323 258 l 323 291 m 323 258 l 355 258 l 355 226 l 323 226 l 323 258 m 291 226 l 323 226 l 323 194 l 291 194 l 291 226 m 258 194 l 291 194 l 291 161 l 258 161 l 258 194 m 614 355 l 646 355 l 646 323 l 614 323 l 614 355 m 614 388 l 646 388 l 646 355 l 614 355 l 614 388 m 614 420 l 646 420 l 646 388 l 614 388 l 614 420 m 614 452 l 646 452 l 646 420 l 614 420 l 614 452 m 614 484 l 646 484 l 646 452 l 614 452 l 614 484 m 614 517 l 646 517 l 646 484 l 614 484 l 614 517 m 614 549 l 646 549 l 646 517 l 614 517 l 614 549 m 581 969 l 614 969 l 614 937 l 581 937 l 581 969 m 549 969 l 581 969 l 581 937 l 549 937 l 549 969 m 549 1001 l 581 1001 l 581 969 l 549 969 l 549 1001 m 581 1001 l 614 1001 l 614 969 l 581 969 l 581 1001 m 517 969 l 549 969 l 549 937 l 517 937 l 517 969 m 484 937 l 517 937 l 517 904 l 484 904 l 484 937 m 517 937 l 549 937 l 549 904 l 517 904 l 517 937 m 484 904 l 517 904 l 517 872 l 484 872 l 484 904 m 614 1001 l 646 1001 l 646 969 l 614 969 l 614 1001 m 614 969 l 646 969 l 646 937 l 614 937 l 614 969 m 646 969 l 678 969 l 678 937 l 646 937 l 646 969 m 646 937 l 678 937 l 678 904 l 646 904 l 646 937 m 614 937 l 646 937 l 646 904 l 614 904 l 614 937 m 678 937 l 711 937 l 711 904 l 678 904 l 678 937 m 678 904 l 711 904 l 711 872 l 678 872 l 678 904 m 646 904 l 678 904 l 678 872 l 646 872 l 646 904 m 517 1001 l 549 1001 l 549 969 l 517 969 l 517 1001 m 484 969 l 517 969 l 517 937 l 484 937 l 484 969 m 452 904 l 484 904 l 484 872 l 452 872 l 452 904 m 452 937 l 484 937 l 484 904 l 452 904 l 452 937 m 549 1034 l 581 1034 l 581 1001 l 549 1001 l 549 1034 m 581 1034 l 614 1034 l 614 1001 l 581 1001 l 581 1034 m 678 969 l 711 969 l 711 937 l 678 937 l 678 969 m 646 1001 l 678 1001 l 678 969 l 646 969 l 646 1001 m 614 1034 l 646 1034 l 646 1001 l 614 1001 l 614 1034 m 517 1034 l 549 1034 l 549 1001 l 517 1001 l 517 1034 m 484 1001 l 517 1001 l 517 969 l 484 969 l 484 1001 m 452 969 l 484 969 l 484 937 l 452 937 l 452 969 m 420 937 l 452 937 l 452 904 l 420 904 l 420 937 m 420 904 l 452 904 l 452 872 l 420 872 l 420 904 m 711 937 l 743 937 l 743 904 l 711 904 l 711 937 m 711 904 l 743 904 l 743 872 l 711 872 l 711 904 m 549 1066 l 581 1066 l 581 1034 l 549 1034 l 549 1066 m 581 1066 l 614 1066 l 614 1034 l 581 1034 l 581 1066 z "},"":{"ha":904,"x_min":32,"x_max":872,"o":"m 97 678 l 129 678 l 129 646 l 97 646 l 97 678 m 65 646 l 97 646 l 97 614 l 65 614 l 65 646 m 129 711 l 161 711 l 161 678 l 129 678 l 129 711 m 161 743 l 194 743 l 194 711 l 161 711 l 161 743 m 226 807 l 258 807 l 258 775 l 226 775 l 226 807 m 226 775 l 258 775 l 258 743 l 226 743 l 226 775 m 291 807 l 323 807 l 323 775 l 291 775 l 291 807 m 291 775 l 323 775 l 323 743 l 291 743 l 291 775 m 258 775 l 291 775 l 291 743 l 258 743 l 258 775 m 258 807 l 291 807 l 291 775 l 258 775 l 258 807 m 323 807 l 355 807 l 355 775 l 323 775 l 323 807 m 355 775 l 388 775 l 388 743 l 355 743 l 355 775 m 323 775 l 355 775 l 355 743 l 323 743 l 323 775 m 420 775 l 452 775 l 452 743 l 420 743 l 420 775 m 388 775 l 420 775 l 420 743 l 388 743 l 388 775 m 484 743 l 517 743 l 517 711 l 484 711 l 484 743 m 484 711 l 517 711 l 517 678 l 484 678 l 484 711 m 484 678 l 517 678 l 517 646 l 484 646 l 484 678 m 452 711 l 484 711 l 484 678 l 452 678 l 452 711 m 452 743 l 484 743 l 484 711 l 452 711 l 452 743 m 452 775 l 484 775 l 484 743 l 452 743 l 452 775 m 678 775 l 711 775 l 711 743 l 678 743 l 678 775 m 711 807 l 743 807 l 743 775 l 711 775 l 711 807 m 743 807 l 775 807 l 775 775 l 743 775 l 743 807 m 743 775 l 775 775 l 775 743 l 743 743 l 743 775 m 711 775 l 743 775 l 743 743 l 711 743 l 711 775 m 807 743 l 840 743 l 840 711 l 807 711 l 807 743 m 517 711 l 549 711 l 549 678 l 517 678 l 517 711 m 517 678 l 549 678 l 549 646 l 517 646 l 517 678 m 549 678 l 581 678 l 581 646 l 549 646 l 549 678 m 581 678 l 614 678 l 614 646 l 581 646 l 581 678 m 614 678 l 646 678 l 646 646 l 614 646 l 614 678 m 614 646 l 646 646 l 646 614 l 614 614 l 614 646 m 581 646 l 614 646 l 614 614 l 581 614 l 581 646 m 549 646 l 581 646 l 581 614 l 549 614 l 549 646 m 388 614 l 420 614 l 420 581 l 388 581 l 388 614 m 388 581 l 420 581 l 420 549 l 388 549 l 388 581 m 549 614 l 581 614 l 581 581 l 549 581 l 549 614 m 581 614 l 614 614 l 614 581 l 581 581 l 581 614 m 614 614 l 646 614 l 646 581 l 614 581 l 614 614 m 614 581 l 646 581 l 646 549 l 614 549 l 614 581 m 581 549 l 614 549 l 614 517 l 581 517 l 581 549 m 549 549 l 581 549 l 581 517 l 549 517 l 549 549 m 581 581 l 614 581 l 614 549 l 581 549 l 581 581 m 549 581 l 581 581 l 581 549 l 549 549 l 549 581 m 517 517 l 549 517 l 549 484 l 517 484 l 517 517 m 517 549 l 549 549 l 549 517 l 517 517 l 517 549 m 549 517 l 581 517 l 581 484 l 549 484 l 549 517 m 581 517 l 614 517 l 614 484 l 581 484 l 581 517 m 355 614 l 388 614 l 388 581 l 355 581 l 355 614 m 355 581 l 388 581 l 388 549 l 355 549 l 355 581 m 355 549 l 388 549 l 388 517 l 355 517 l 355 549 m 355 517 l 388 517 l 388 484 l 355 484 l 355 517 m 388 355 l 420 355 l 420 323 l 388 323 l 388 355 m 420 355 l 452 355 l 452 323 l 420 323 l 420 355 m 517 484 l 549 484 l 549 452 l 517 452 l 517 484 m 517 452 l 549 452 l 549 420 l 517 420 l 517 452 m 517 420 l 549 420 l 549 388 l 517 388 l 517 420 m 517 388 l 549 388 l 549 355 l 517 355 l 517 388 m 549 484 l 581 484 l 581 452 l 549 452 l 549 484 m 549 452 l 581 452 l 581 420 l 549 420 l 549 452 m 549 420 l 581 420 l 581 388 l 549 388 l 549 420 m 549 388 l 581 388 l 581 355 l 549 355 l 549 388 m 517 323 l 549 323 l 549 291 l 517 291 l 517 323 m 549 323 l 581 323 l 581 291 l 549 291 l 549 323 m 581 355 l 614 355 l 614 323 l 581 323 l 581 355 m 581 388 l 614 388 l 614 355 l 581 355 l 581 388 m 581 420 l 614 420 l 614 388 l 581 388 l 581 420 m 581 452 l 614 452 l 614 420 l 581 420 l 581 452 m 581 484 l 614 484 l 614 452 l 581 452 l 581 484 m 581 323 l 614 323 l 614 291 l 581 291 l 581 323 m 614 291 l 646 291 l 646 258 l 614 258 l 614 291 m 614 258 l 646 258 l 646 226 l 614 226 l 614 258 m 581 258 l 614 258 l 614 226 l 581 226 l 581 258 m 549 258 l 581 258 l 581 226 l 549 226 l 549 258 m 517 258 l 549 258 l 549 226 l 517 226 l 517 258 m 517 291 l 549 291 l 549 258 l 517 258 l 517 291 m 549 291 l 581 291 l 581 258 l 549 258 l 549 291 m 581 291 l 614 291 l 614 258 l 581 258 l 581 291 m 194 194 l 226 194 l 226 161 l 194 161 l 194 194 m 161 161 l 194 161 l 194 129 l 161 129 l 161 161 m 129 129 l 161 129 l 161 97 l 129 97 l 129 129 m 517 226 l 549 226 l 549 194 l 517 194 l 517 226 m 549 226 l 581 226 l 581 194 l 549 194 l 549 226 m 581 226 l 614 226 l 614 194 l 581 194 l 581 226 m 614 226 l 646 226 l 646 194 l 614 194 l 614 226 m 161 129 l 194 129 l 194 97 l 161 97 l 161 129 m 194 129 l 226 129 l 226 97 l 194 97 l 194 129 m 194 97 l 226 97 l 226 65 l 194 65 l 194 97 m 161 97 l 194 97 l 194 65 l 161 65 l 161 97 m 226 97 l 258 97 l 258 65 l 226 65 l 226 97 m 388 129 l 420 129 l 420 97 l 388 97 l 388 129 m 388 97 l 420 97 l 420 65 l 388 65 l 388 97 m 355 97 l 388 97 l 388 65 l 355 65 l 355 97 m 420 161 l 452 161 l 452 129 l 420 129 l 420 161 m 517 194 l 549 194 l 549 161 l 517 161 l 517 194 m 549 194 l 581 194 l 581 161 l 549 161 l 549 194 m 581 194 l 614 194 l 614 161 l 581 161 l 581 194 m 614 194 l 646 194 l 646 161 l 614 161 l 614 194 m 614 161 l 646 161 l 646 129 l 614 129 l 614 161 m 581 161 l 614 161 l 614 129 l 581 129 l 581 161 m 549 161 l 581 161 l 581 129 l 549 129 l 549 161 m 517 161 l 549 161 l 549 129 l 517 129 l 517 161 m 517 129 l 549 129 l 549 97 l 517 97 l 517 129 m 517 97 l 549 97 l 549 65 l 517 65 l 517 97 m 549 97 l 581 97 l 581 65 l 549 65 l 549 97 m 581 97 l 614 97 l 614 65 l 581 65 l 581 97 m 581 129 l 614 129 l 614 97 l 581 97 l 581 129 m 614 129 l 646 129 l 646 97 l 614 97 l 614 129 m 549 129 l 581 129 l 581 97 l 549 97 l 549 129 m 614 97 l 646 97 l 646 65 l 614 65 l 614 97 m 581 65 l 614 65 l 614 32 l 581 32 l 581 65 m 581 32 l 614 32 l 614 0 l 581 0 l 581 32 m 614 32 l 646 32 l 646 0 l 614 0 l 614 32 m 614 65 l 646 65 l 646 32 l 614 32 l 614 65 m 678 65 l 711 65 l 711 32 l 678 32 l 678 65 m 678 32 l 711 32 l 711 0 l 678 0 l 678 32 m 646 32 l 678 32 l 678 0 l 646 0 l 646 32 m 743 129 l 775 129 l 775 97 l 743 97 l 743 129 m 743 97 l 775 97 l 775 65 l 743 65 l 743 97 m 711 97 l 743 97 l 743 65 l 711 65 l 711 97 m 711 65 l 743 65 l 743 32 l 711 32 l 711 65 m 549 65 l 581 65 l 581 32 l 549 32 l 549 65 m 323 65 l 355 65 l 355 32 l 323 32 l 323 65 m 291 65 l 323 65 l 323 32 l 291 32 l 291 65 m 291 32 l 323 32 l 323 0 l 291 0 l 291 32 m 323 32 l 355 32 l 355 0 l 323 0 l 323 32 m 258 65 l 291 65 l 291 32 l 258 32 l 258 65 m 226 32 l 258 32 l 258 0 l 226 0 l 226 32 m 258 32 l 291 32 l 291 0 l 258 0 l 258 32 m 226 65 l 258 65 l 258 32 l 226 32 l 226 65 m 355 65 l 388 65 l 388 32 l 355 32 l 355 65 m 420 129 l 452 129 l 452 97 l 420 97 l 420 129 m 775 775 l 807 775 l 807 743 l 775 743 l 775 775 m 97 97 l 129 97 l 129 65 l 97 65 l 97 97 m 194 161 l 226 161 l 226 129 l 194 129 l 194 161 m 646 65 l 678 65 l 678 32 l 646 32 l 646 65 m 65 65 l 97 65 l 97 32 l 65 32 l 65 65 m 355 388 l 388 388 l 388 355 l 355 355 l 355 388 m 355 452 l 388 452 l 388 420 l 355 420 l 355 452 m 355 420 l 388 420 l 388 388 l 355 388 l 355 420 m 355 484 l 388 484 l 388 452 l 355 452 l 355 484 m 388 549 l 420 549 l 420 517 l 388 517 l 388 549 m 388 517 l 420 517 l 420 484 l 388 484 l 388 517 m 258 258 l 291 258 l 291 226 l 258 226 l 258 258 m 420 743 l 452 743 l 452 711 l 420 711 l 420 743 m 614 323 l 646 323 l 646 291 l 614 291 l 614 323 m 194 65 l 226 65 l 226 32 l 194 32 l 194 65 m 291 646 l 323 646 l 323 614 l 291 614 l 291 646 m 323 646 l 355 646 l 355 614 l 323 614 l 323 646 m 355 646 l 388 646 l 388 614 l 355 614 l 355 646 m 355 807 l 388 807 l 388 775 l 355 775 l 355 807 m 323 323 l 355 323 l 355 291 l 323 291 l 323 323 m 775 161 l 807 161 l 807 129 l 775 129 l 775 161 m 226 226 l 258 226 l 258 194 l 226 194 l 226 226 m 291 291 l 323 291 l 323 258 l 291 258 l 291 291 m 291 258 l 323 258 l 323 226 l 291 226 l 291 258 m 258 226 l 291 226 l 291 194 l 258 194 l 258 226 m 226 194 l 258 194 l 258 161 l 226 161 l 226 194 m 226 161 l 258 161 l 258 129 l 226 129 l 226 161 m 355 355 l 388 355 l 388 323 l 355 323 l 355 355 m 452 355 l 484 355 l 484 323 l 452 323 l 452 355 m 355 323 l 388 323 l 388 291 l 355 291 l 355 323 m 388 323 l 420 323 l 420 291 l 388 291 l 388 323 m 420 323 l 452 323 l 452 291 l 420 291 l 420 323 m 388 484 l 420 484 l 420 452 l 388 452 l 388 484 m 775 129 l 807 129 l 807 97 l 775 97 l 775 129 m 646 97 l 678 97 l 678 65 l 646 65 l 646 97 m 646 743 l 678 743 l 678 711 l 646 711 l 646 743 m 840 711 l 872 711 l 872 678 l 840 678 l 840 711 m 388 452 l 420 452 l 420 420 l 388 420 l 388 452 m 388 420 l 420 420 l 420 388 l 388 388 l 388 420 m 388 388 l 420 388 l 420 355 l 388 355 l 388 388 m 549 355 l 581 355 l 581 323 l 549 323 l 549 355 m 517 355 l 549 355 l 549 323 l 517 323 l 517 355 m 678 97 l 711 97 l 711 65 l 678 65 l 678 97 m 258 97 l 291 97 l 291 65 l 258 65 l 258 97 m 291 97 l 323 97 l 323 65 l 291 65 l 291 97 m 323 97 l 355 97 l 355 65 l 323 65 l 323 97 m 32 32 l 65 32 l 65 0 l 32 0 l 32 32 m 388 807 l 420 807 l 420 775 l 388 775 l 388 807 m 97 129 l 129 129 l 129 97 l 97 97 l 97 129 m 65 97 l 97 97 l 97 65 l 65 65 l 65 97 m 32 65 l 65 65 l 65 32 l 32 32 l 32 65 m 129 97 l 161 97 l 161 65 l 129 65 l 129 97 m 484 355 l 517 355 l 517 323 l 484 323 l 484 355 m 452 323 l 484 323 l 484 291 l 452 291 l 452 323 m 517 646 l 549 646 l 549 614 l 517 614 l 517 646 m 581 711 l 614 711 l 614 678 l 581 678 l 581 711 m 614 711 l 646 711 l 646 678 l 614 678 l 614 711 m 549 711 l 581 711 l 581 678 l 549 678 l 549 711 m 517 743 l 549 743 l 549 711 l 517 711 l 517 743 m 388 743 l 420 743 l 420 711 l 388 711 l 388 743 m 517 614 l 549 614 l 549 581 l 517 581 l 517 614 m 129 161 l 161 161 l 161 129 l 129 129 l 129 161 m 226 129 l 258 129 l 258 97 l 226 97 l 226 129 m 258 129 l 291 129 l 291 97 l 258 97 l 258 129 m 323 678 l 355 678 l 355 646 l 323 646 l 323 678 m 420 711 l 452 711 l 452 678 l 420 678 l 420 711 m 452 678 l 484 678 l 484 646 l 452 646 l 452 678 m 484 646 l 517 646 l 517 614 l 484 614 l 484 646 m 517 581 l 549 581 l 549 549 l 517 549 l 517 581 m 420 581 l 452 581 l 452 549 l 420 549 l 420 581 m 420 549 l 452 549 l 452 517 l 420 517 l 420 549 m 420 517 l 452 517 l 452 484 l 420 484 l 420 517 m 420 484 l 452 484 l 452 452 l 420 452 l 420 484 m 420 452 l 452 452 l 452 420 l 420 420 l 420 452 m 420 420 l 452 420 l 452 388 l 420 388 l 420 420 m 420 388 l 452 388 l 452 355 l 420 355 l 420 388 m 258 614 l 291 614 l 291 581 l 258 581 l 258 614 m 226 581 l 258 581 l 258 549 l 226 549 l 226 581 m 194 549 l 226 549 l 226 517 l 194 517 l 194 549 m 291 614 l 323 614 l 323 581 l 291 581 l 291 614 m 258 581 l 291 581 l 291 549 l 258 549 l 258 581 m 226 549 l 258 549 l 258 517 l 226 517 l 226 549 m 194 517 l 226 517 l 226 484 l 194 484 l 194 517 m 323 614 l 355 614 l 355 581 l 323 581 l 323 614 m 323 581 l 355 581 l 355 549 l 323 549 l 323 581 m 678 743 l 711 743 l 711 711 l 678 711 l 678 743 m 646 711 l 678 711 l 678 678 l 646 678 l 646 711 m 775 743 l 807 743 l 807 711 l 775 711 l 775 743 m 743 743 l 775 743 l 775 711 l 743 711 l 743 743 m 775 711 l 807 711 l 807 678 l 775 678 l 775 711 m 807 711 l 840 711 l 840 678 l 807 678 l 807 711 m 711 743 l 743 743 l 743 711 l 711 711 l 711 743 m 743 711 l 775 711 l 775 678 l 743 678 l 743 711 m 775 678 l 807 678 l 807 646 l 775 646 l 775 678 m 807 678 l 840 678 l 840 646 l 807 646 l 807 678 m 711 711 l 743 711 l 743 678 l 711 678 l 711 711 m 743 678 l 775 678 l 775 646 l 743 646 l 743 678 m 775 646 l 807 646 l 807 614 l 775 614 l 775 646 m 65 614 l 97 614 l 97 581 l 65 581 l 65 614 m 97 646 l 129 646 l 129 614 l 97 614 l 97 646 m 129 678 l 161 678 l 161 646 l 129 646 l 129 678 m 161 711 l 194 711 l 194 678 l 161 678 l 161 711 m 194 743 l 226 743 l 226 711 l 194 711 l 194 743 m 194 775 l 226 775 l 226 743 l 194 743 l 194 775 m 420 807 l 452 807 l 452 775 l 420 775 l 420 807 m 484 775 l 517 775 l 517 743 l 484 743 l 484 775 m 549 743 l 581 743 l 581 711 l 549 711 l 549 743 m 517 775 l 549 775 l 549 743 l 517 743 l 517 775 m 484 807 l 517 807 l 517 775 l 484 775 l 484 807 m 452 807 l 484 807 l 484 775 l 452 775 l 452 807 m 291 581 l 323 581 l 323 549 l 291 549 l 291 581 m 323 549 l 355 549 l 355 517 l 323 517 l 323 549 m 291 549 l 323 549 l 323 517 l 291 517 l 291 549 m 323 517 l 355 517 l 355 484 l 323 484 l 323 517 m 355 291 l 388 291 l 388 258 l 355 258 l 355 291 m 323 291 l 355 291 l 355 258 l 323 258 l 323 291 m 323 258 l 355 258 l 355 226 l 323 226 l 323 258 m 291 226 l 323 226 l 323 194 l 291 194 l 291 226 m 258 194 l 291 194 l 291 161 l 258 161 l 258 194 m 614 355 l 646 355 l 646 323 l 614 323 l 614 355 m 614 388 l 646 388 l 646 355 l 614 355 l 614 388 m 614 420 l 646 420 l 646 388 l 614 388 l 614 420 m 614 452 l 646 452 l 646 420 l 614 420 l 614 452 m 614 484 l 646 484 l 646 452 l 614 452 l 614 484 m 614 517 l 646 517 l 646 484 l 614 484 l 614 517 m 614 549 l 646 549 l 646 517 l 614 517 l 614 549 m 420 1001 l 452 1001 l 452 969 l 420 969 l 420 1001 m 452 1001 l 484 1001 l 484 969 l 452 969 l 452 1001 m 452 969 l 484 969 l 484 937 l 452 937 l 452 969 m 420 969 l 452 969 l 452 937 l 420 937 l 420 969 m 484 1001 l 517 1001 l 517 969 l 484 969 l 484 1001 m 484 969 l 517 969 l 517 937 l 484 937 l 484 969 m 484 937 l 517 937 l 517 904 l 484 904 l 484 937 m 452 937 l 484 937 l 484 904 l 452 904 l 452 937 m 420 937 l 452 937 l 452 904 l 420 904 l 420 937 m 614 1001 l 646 1001 l 646 969 l 614 969 l 614 1001 m 614 969 l 646 969 l 646 937 l 614 937 l 614 969 m 614 937 l 646 937 l 646 904 l 614 904 l 614 937 m 646 937 l 678 937 l 678 904 l 646 904 l 646 937 m 678 969 l 711 969 l 711 937 l 678 937 l 678 969 m 678 1001 l 711 1001 l 711 969 l 678 969 l 678 1001 m 646 1001 l 678 1001 l 678 969 l 646 969 l 646 1001 m 646 969 l 678 969 l 678 937 l 646 937 l 646 969 m 678 937 l 711 937 l 711 904 l 678 904 l 678 937 m 420 904 l 452 904 l 452 872 l 420 872 l 420 904 m 452 904 l 484 904 l 484 872 l 452 872 l 452 904 m 484 904 l 517 904 l 517 872 l 484 872 l 484 904 m 517 1001 l 549 1001 l 549 969 l 517 969 l 517 1001 m 517 969 l 549 969 l 549 937 l 517 937 l 517 969 m 517 937 l 549 937 l 549 904 l 517 904 l 517 937 m 517 904 l 549 904 l 549 872 l 517 872 l 517 904 m 614 904 l 646 904 l 646 872 l 614 872 l 614 904 m 646 904 l 678 904 l 678 872 l 646 872 l 646 904 m 678 904 l 711 904 l 711 872 l 678 872 l 678 904 m 711 904 l 743 904 l 743 872 l 711 872 l 711 904 m 711 937 l 743 937 l 743 904 l 711 904 l 711 937 m 711 969 l 743 969 l 743 937 l 711 937 l 711 969 m 711 1001 l 743 1001 l 743 969 l 711 969 l 711 1001 z "},"":{"ha":904,"x_min":32,"x_max":872,"o":"m 97 678 l 129 678 l 129 646 l 97 646 l 97 678 m 65 646 l 97 646 l 97 614 l 65 614 l 65 646 m 129 711 l 161 711 l 161 678 l 129 678 l 129 711 m 161 743 l 194 743 l 194 711 l 161 711 l 161 743 m 226 807 l 258 807 l 258 775 l 226 775 l 226 807 m 226 775 l 258 775 l 258 743 l 226 743 l 226 775 m 291 807 l 323 807 l 323 775 l 291 775 l 291 807 m 291 775 l 323 775 l 323 743 l 291 743 l 291 775 m 258 775 l 291 775 l 291 743 l 258 743 l 258 775 m 258 807 l 291 807 l 291 775 l 258 775 l 258 807 m 323 807 l 355 807 l 355 775 l 323 775 l 323 807 m 355 775 l 388 775 l 388 743 l 355 743 l 355 775 m 323 775 l 355 775 l 355 743 l 323 743 l 323 775 m 420 775 l 452 775 l 452 743 l 420 743 l 420 775 m 388 775 l 420 775 l 420 743 l 388 743 l 388 775 m 484 743 l 517 743 l 517 711 l 484 711 l 484 743 m 484 711 l 517 711 l 517 678 l 484 678 l 484 711 m 484 678 l 517 678 l 517 646 l 484 646 l 484 678 m 452 711 l 484 711 l 484 678 l 452 678 l 452 711 m 452 743 l 484 743 l 484 711 l 452 711 l 452 743 m 452 775 l 484 775 l 484 743 l 452 743 l 452 775 m 678 775 l 711 775 l 711 743 l 678 743 l 678 775 m 711 807 l 743 807 l 743 775 l 711 775 l 711 807 m 743 807 l 775 807 l 775 775 l 743 775 l 743 807 m 743 775 l 775 775 l 775 743 l 743 743 l 743 775 m 711 775 l 743 775 l 743 743 l 711 743 l 711 775 m 807 743 l 840 743 l 840 711 l 807 711 l 807 743 m 517 711 l 549 711 l 549 678 l 517 678 l 517 711 m 517 678 l 549 678 l 549 646 l 517 646 l 517 678 m 549 678 l 581 678 l 581 646 l 549 646 l 549 678 m 581 678 l 614 678 l 614 646 l 581 646 l 581 678 m 614 678 l 646 678 l 646 646 l 614 646 l 614 678 m 614 646 l 646 646 l 646 614 l 614 614 l 614 646 m 581 646 l 614 646 l 614 614 l 581 614 l 581 646 m 549 646 l 581 646 l 581 614 l 549 614 l 549 646 m 388 614 l 420 614 l 420 581 l 388 581 l 388 614 m 388 581 l 420 581 l 420 549 l 388 549 l 388 581 m 549 614 l 581 614 l 581 581 l 549 581 l 549 614 m 581 614 l 614 614 l 614 581 l 581 581 l 581 614 m 614 614 l 646 614 l 646 581 l 614 581 l 614 614 m 614 581 l 646 581 l 646 549 l 614 549 l 614 581 m 581 549 l 614 549 l 614 517 l 581 517 l 581 549 m 549 549 l 581 549 l 581 517 l 549 517 l 549 549 m 581 581 l 614 581 l 614 549 l 581 549 l 581 581 m 549 581 l 581 581 l 581 549 l 549 549 l 549 581 m 517 517 l 549 517 l 549 484 l 517 484 l 517 517 m 517 549 l 549 549 l 549 517 l 517 517 l 517 549 m 549 517 l 581 517 l 581 484 l 549 484 l 549 517 m 581 517 l 614 517 l 614 484 l 581 484 l 581 517 m 355 614 l 388 614 l 388 581 l 355 581 l 355 614 m 355 581 l 388 581 l 388 549 l 355 549 l 355 581 m 355 549 l 388 549 l 388 517 l 355 517 l 355 549 m 355 517 l 388 517 l 388 484 l 355 484 l 355 517 m 388 355 l 420 355 l 420 323 l 388 323 l 388 355 m 420 355 l 452 355 l 452 323 l 420 323 l 420 355 m 517 484 l 549 484 l 549 452 l 517 452 l 517 484 m 517 452 l 549 452 l 549 420 l 517 420 l 517 452 m 517 420 l 549 420 l 549 388 l 517 388 l 517 420 m 517 388 l 549 388 l 549 355 l 517 355 l 517 388 m 549 484 l 581 484 l 581 452 l 549 452 l 549 484 m 549 452 l 581 452 l 581 420 l 549 420 l 549 452 m 549 420 l 581 420 l 581 388 l 549 388 l 549 420 m 549 388 l 581 388 l 581 355 l 549 355 l 549 388 m 517 323 l 549 323 l 549 291 l 517 291 l 517 323 m 549 323 l 581 323 l 581 291 l 549 291 l 549 323 m 581 355 l 614 355 l 614 323 l 581 323 l 581 355 m 581 388 l 614 388 l 614 355 l 581 355 l 581 388 m 581 420 l 614 420 l 614 388 l 581 388 l 581 420 m 581 452 l 614 452 l 614 420 l 581 420 l 581 452 m 581 484 l 614 484 l 614 452 l 581 452 l 581 484 m 581 323 l 614 323 l 614 291 l 581 291 l 581 323 m 614 291 l 646 291 l 646 258 l 614 258 l 614 291 m 614 258 l 646 258 l 646 226 l 614 226 l 614 258 m 581 258 l 614 258 l 614 226 l 581 226 l 581 258 m 549 258 l 581 258 l 581 226 l 549 226 l 549 258 m 517 258 l 549 258 l 549 226 l 517 226 l 517 258 m 517 291 l 549 291 l 549 258 l 517 258 l 517 291 m 549 291 l 581 291 l 581 258 l 549 258 l 549 291 m 581 291 l 614 291 l 614 258 l 581 258 l 581 291 m 194 194 l 226 194 l 226 161 l 194 161 l 194 194 m 161 161 l 194 161 l 194 129 l 161 129 l 161 161 m 129 129 l 161 129 l 161 97 l 129 97 l 129 129 m 517 226 l 549 226 l 549 194 l 517 194 l 517 226 m 549 226 l 581 226 l 581 194 l 549 194 l 549 226 m 581 226 l 614 226 l 614 194 l 581 194 l 581 226 m 614 226 l 646 226 l 646 194 l 614 194 l 614 226 m 161 129 l 194 129 l 194 97 l 161 97 l 161 129 m 194 129 l 226 129 l 226 97 l 194 97 l 194 129 m 194 97 l 226 97 l 226 65 l 194 65 l 194 97 m 161 97 l 194 97 l 194 65 l 161 65 l 161 97 m 226 97 l 258 97 l 258 65 l 226 65 l 226 97 m 388 129 l 420 129 l 420 97 l 388 97 l 388 129 m 388 97 l 420 97 l 420 65 l 388 65 l 388 97 m 355 97 l 388 97 l 388 65 l 355 65 l 355 97 m 420 161 l 452 161 l 452 129 l 420 129 l 420 161 m 517 194 l 549 194 l 549 161 l 517 161 l 517 194 m 549 194 l 581 194 l 581 161 l 549 161 l 549 194 m 581 194 l 614 194 l 614 161 l 581 161 l 581 194 m 614 194 l 646 194 l 646 161 l 614 161 l 614 194 m 614 161 l 646 161 l 646 129 l 614 129 l 614 161 m 581 161 l 614 161 l 614 129 l 581 129 l 581 161 m 549 161 l 581 161 l 581 129 l 549 129 l 549 161 m 517 161 l 549 161 l 549 129 l 517 129 l 517 161 m 517 129 l 549 129 l 549 97 l 517 97 l 517 129 m 517 97 l 549 97 l 549 65 l 517 65 l 517 97 m 549 97 l 581 97 l 581 65 l 549 65 l 549 97 m 581 97 l 614 97 l 614 65 l 581 65 l 581 97 m 581 129 l 614 129 l 614 97 l 581 97 l 581 129 m 614 129 l 646 129 l 646 97 l 614 97 l 614 129 m 549 129 l 581 129 l 581 97 l 549 97 l 549 129 m 614 97 l 646 97 l 646 65 l 614 65 l 614 97 m 581 65 l 614 65 l 614 32 l 581 32 l 581 65 m 581 32 l 614 32 l 614 0 l 581 0 l 581 32 m 614 32 l 646 32 l 646 0 l 614 0 l 614 32 m 614 65 l 646 65 l 646 32 l 614 32 l 614 65 m 678 65 l 711 65 l 711 32 l 678 32 l 678 65 m 678 32 l 711 32 l 711 0 l 678 0 l 678 32 m 646 32 l 678 32 l 678 0 l 646 0 l 646 32 m 743 129 l 775 129 l 775 97 l 743 97 l 743 129 m 743 97 l 775 97 l 775 65 l 743 65 l 743 97 m 711 97 l 743 97 l 743 65 l 711 65 l 711 97 m 711 65 l 743 65 l 743 32 l 711 32 l 711 65 m 549 65 l 581 65 l 581 32 l 549 32 l 549 65 m 323 65 l 355 65 l 355 32 l 323 32 l 323 65 m 291 65 l 323 65 l 323 32 l 291 32 l 291 65 m 291 32 l 323 32 l 323 0 l 291 0 l 291 32 m 323 32 l 355 32 l 355 0 l 323 0 l 323 32 m 258 65 l 291 65 l 291 32 l 258 32 l 258 65 m 226 32 l 258 32 l 258 0 l 226 0 l 226 32 m 258 32 l 291 32 l 291 0 l 258 0 l 258 32 m 226 65 l 258 65 l 258 32 l 226 32 l 226 65 m 355 65 l 388 65 l 388 32 l 355 32 l 355 65 m 420 129 l 452 129 l 452 97 l 420 97 l 420 129 m 775 775 l 807 775 l 807 743 l 775 743 l 775 775 m 97 97 l 129 97 l 129 65 l 97 65 l 97 97 m 194 161 l 226 161 l 226 129 l 194 129 l 194 161 m 646 65 l 678 65 l 678 32 l 646 32 l 646 65 m 65 65 l 97 65 l 97 32 l 65 32 l 65 65 m 355 388 l 388 388 l 388 355 l 355 355 l 355 388 m 355 452 l 388 452 l 388 420 l 355 420 l 355 452 m 355 420 l 388 420 l 388 388 l 355 388 l 355 420 m 355 484 l 388 484 l 388 452 l 355 452 l 355 484 m 388 549 l 420 549 l 420 517 l 388 517 l 388 549 m 388 517 l 420 517 l 420 484 l 388 484 l 388 517 m 258 258 l 291 258 l 291 226 l 258 226 l 258 258 m 420 743 l 452 743 l 452 711 l 420 711 l 420 743 m 614 323 l 646 323 l 646 291 l 614 291 l 614 323 m 194 65 l 226 65 l 226 32 l 194 32 l 194 65 m 291 646 l 323 646 l 323 614 l 291 614 l 291 646 m 323 646 l 355 646 l 355 614 l 323 614 l 323 646 m 355 646 l 388 646 l 388 614 l 355 614 l 355 646 m 355 807 l 388 807 l 388 775 l 355 775 l 355 807 m 323 323 l 355 323 l 355 291 l 323 291 l 323 323 m 775 161 l 807 161 l 807 129 l 775 129 l 775 161 m 226 226 l 258 226 l 258 194 l 226 194 l 226 226 m 291 291 l 323 291 l 323 258 l 291 258 l 291 291 m 291 258 l 323 258 l 323 226 l 291 226 l 291 258 m 258 226 l 291 226 l 291 194 l 258 194 l 258 226 m 226 194 l 258 194 l 258 161 l 226 161 l 226 194 m 226 161 l 258 161 l 258 129 l 226 129 l 226 161 m 355 355 l 388 355 l 388 323 l 355 323 l 355 355 m 452 355 l 484 355 l 484 323 l 452 323 l 452 355 m 355 323 l 388 323 l 388 291 l 355 291 l 355 323 m 388 323 l 420 323 l 420 291 l 388 291 l 388 323 m 420 323 l 452 323 l 452 291 l 420 291 l 420 323 m 388 484 l 420 484 l 420 452 l 388 452 l 388 484 m 775 129 l 807 129 l 807 97 l 775 97 l 775 129 m 646 97 l 678 97 l 678 65 l 646 65 l 646 97 m 646 743 l 678 743 l 678 711 l 646 711 l 646 743 m 840 711 l 872 711 l 872 678 l 840 678 l 840 711 m 388 452 l 420 452 l 420 420 l 388 420 l 388 452 m 388 420 l 420 420 l 420 388 l 388 388 l 388 420 m 388 388 l 420 388 l 420 355 l 388 355 l 388 388 m 549 355 l 581 355 l 581 323 l 549 323 l 549 355 m 517 355 l 549 355 l 549 323 l 517 323 l 517 355 m 678 97 l 711 97 l 711 65 l 678 65 l 678 97 m 258 97 l 291 97 l 291 65 l 258 65 l 258 97 m 291 97 l 323 97 l 323 65 l 291 65 l 291 97 m 323 97 l 355 97 l 355 65 l 323 65 l 323 97 m 32 32 l 65 32 l 65 0 l 32 0 l 32 32 m 388 807 l 420 807 l 420 775 l 388 775 l 388 807 m 97 129 l 129 129 l 129 97 l 97 97 l 97 129 m 65 97 l 97 97 l 97 65 l 65 65 l 65 97 m 32 65 l 65 65 l 65 32 l 32 32 l 32 65 m 129 97 l 161 97 l 161 65 l 129 65 l 129 97 m 484 355 l 517 355 l 517 323 l 484 323 l 484 355 m 452 323 l 484 323 l 484 291 l 452 291 l 452 323 m 517 646 l 549 646 l 549 614 l 517 614 l 517 646 m 581 711 l 614 711 l 614 678 l 581 678 l 581 711 m 614 711 l 646 711 l 646 678 l 614 678 l 614 711 m 549 711 l 581 711 l 581 678 l 549 678 l 549 711 m 517 743 l 549 743 l 549 711 l 517 711 l 517 743 m 388 743 l 420 743 l 420 711 l 388 711 l 388 743 m 517 614 l 549 614 l 549 581 l 517 581 l 517 614 m 129 161 l 161 161 l 161 129 l 129 129 l 129 161 m 226 129 l 258 129 l 258 97 l 226 97 l 226 129 m 258 129 l 291 129 l 291 97 l 258 97 l 258 129 m 323 678 l 355 678 l 355 646 l 323 646 l 323 678 m 420 711 l 452 711 l 452 678 l 420 678 l 420 711 m 452 678 l 484 678 l 484 646 l 452 646 l 452 678 m 484 646 l 517 646 l 517 614 l 484 614 l 484 646 m 517 581 l 549 581 l 549 549 l 517 549 l 517 581 m 420 581 l 452 581 l 452 549 l 420 549 l 420 581 m 420 549 l 452 549 l 452 517 l 420 517 l 420 549 m 420 517 l 452 517 l 452 484 l 420 484 l 420 517 m 420 484 l 452 484 l 452 452 l 420 452 l 420 484 m 420 452 l 452 452 l 452 420 l 420 420 l 420 452 m 420 420 l 452 420 l 452 388 l 420 388 l 420 420 m 420 388 l 452 388 l 452 355 l 420 355 l 420 388 m 258 614 l 291 614 l 291 581 l 258 581 l 258 614 m 226 581 l 258 581 l 258 549 l 226 549 l 226 581 m 194 549 l 226 549 l 226 517 l 194 517 l 194 549 m 291 614 l 323 614 l 323 581 l 291 581 l 291 614 m 258 581 l 291 581 l 291 549 l 258 549 l 258 581 m 226 549 l 258 549 l 258 517 l 226 517 l 226 549 m 194 517 l 226 517 l 226 484 l 194 484 l 194 517 m 323 614 l 355 614 l 355 581 l 323 581 l 323 614 m 323 581 l 355 581 l 355 549 l 323 549 l 323 581 m 678 743 l 711 743 l 711 711 l 678 711 l 678 743 m 646 711 l 678 711 l 678 678 l 646 678 l 646 711 m 775 743 l 807 743 l 807 711 l 775 711 l 775 743 m 743 743 l 775 743 l 775 711 l 743 711 l 743 743 m 775 711 l 807 711 l 807 678 l 775 678 l 775 711 m 807 711 l 840 711 l 840 678 l 807 678 l 807 711 m 711 743 l 743 743 l 743 711 l 711 711 l 711 743 m 743 711 l 775 711 l 775 678 l 743 678 l 743 711 m 775 678 l 807 678 l 807 646 l 775 646 l 775 678 m 807 678 l 840 678 l 840 646 l 807 646 l 807 678 m 711 711 l 743 711 l 743 678 l 711 678 l 711 711 m 743 678 l 775 678 l 775 646 l 743 646 l 743 678 m 775 646 l 807 646 l 807 614 l 775 614 l 775 646 m 65 614 l 97 614 l 97 581 l 65 581 l 65 614 m 97 646 l 129 646 l 129 614 l 97 614 l 97 646 m 129 678 l 161 678 l 161 646 l 129 646 l 129 678 m 161 711 l 194 711 l 194 678 l 161 678 l 161 711 m 194 743 l 226 743 l 226 711 l 194 711 l 194 743 m 194 775 l 226 775 l 226 743 l 194 743 l 194 775 m 420 807 l 452 807 l 452 775 l 420 775 l 420 807 m 484 775 l 517 775 l 517 743 l 484 743 l 484 775 m 549 743 l 581 743 l 581 711 l 549 711 l 549 743 m 517 775 l 549 775 l 549 743 l 517 743 l 517 775 m 484 807 l 517 807 l 517 775 l 484 775 l 484 807 m 452 807 l 484 807 l 484 775 l 452 775 l 452 807 m 291 581 l 323 581 l 323 549 l 291 549 l 291 581 m 323 549 l 355 549 l 355 517 l 323 517 l 323 549 m 291 549 l 323 549 l 323 517 l 291 517 l 291 549 m 323 517 l 355 517 l 355 484 l 323 484 l 323 517 m 355 291 l 388 291 l 388 258 l 355 258 l 355 291 m 323 291 l 355 291 l 355 258 l 323 258 l 323 291 m 323 258 l 355 258 l 355 226 l 323 226 l 323 258 m 291 226 l 323 226 l 323 194 l 291 194 l 291 226 m 258 194 l 291 194 l 291 161 l 258 161 l 258 194 m 614 355 l 646 355 l 646 323 l 614 323 l 614 355 m 614 388 l 646 388 l 646 355 l 614 355 l 614 388 m 614 420 l 646 420 l 646 388 l 614 388 l 614 420 m 614 452 l 646 452 l 646 420 l 614 420 l 614 452 m 614 484 l 646 484 l 646 452 l 614 452 l 614 484 m 614 517 l 646 517 l 646 484 l 614 484 l 614 517 m 614 549 l 646 549 l 646 517 l 614 517 l 614 549 m 484 1034 l 517 1034 l 517 1001 l 484 1001 l 484 1034 m 517 1034 l 549 1034 l 549 1001 l 517 1001 l 517 1034 m 517 1001 l 549 1001 l 549 969 l 517 969 l 517 1001 m 484 1001 l 517 1001 l 517 969 l 484 969 l 484 1001 m 549 1001 l 581 1001 l 581 969 l 549 969 l 549 1001 m 549 969 l 581 969 l 581 937 l 549 937 l 549 969 m 517 969 l 549 969 l 549 937 l 517 937 l 517 969 m 581 969 l 614 969 l 614 937 l 581 937 l 581 969 m 581 937 l 614 937 l 614 904 l 581 904 l 581 937 m 549 937 l 581 937 l 581 904 l 549 904 l 549 937 m 614 937 l 646 937 l 646 904 l 614 904 l 614 937 m 614 904 l 646 904 l 646 872 l 614 872 l 614 904 m 581 904 l 614 904 l 614 872 l 581 872 l 581 904 m 646 937 l 678 937 l 678 904 l 646 904 l 646 937 m 646 904 l 678 904 l 678 872 l 646 872 l 646 904 m 614 969 l 646 969 l 646 937 l 614 937 l 614 969 m 581 1001 l 614 1001 l 614 969 l 581 969 l 581 1001 m 549 1034 l 581 1034 l 581 1001 l 549 1001 l 549 1034 z "},"":{"ha":904,"x_min":32,"x_max":872,"o":"m 97 678 l 129 678 l 129 646 l 97 646 l 97 678 m 65 646 l 97 646 l 97 614 l 65 614 l 65 646 m 129 711 l 161 711 l 161 678 l 129 678 l 129 711 m 161 743 l 194 743 l 194 711 l 161 711 l 161 743 m 226 807 l 258 807 l 258 775 l 226 775 l 226 807 m 226 775 l 258 775 l 258 743 l 226 743 l 226 775 m 291 807 l 323 807 l 323 775 l 291 775 l 291 807 m 291 775 l 323 775 l 323 743 l 291 743 l 291 775 m 258 775 l 291 775 l 291 743 l 258 743 l 258 775 m 258 807 l 291 807 l 291 775 l 258 775 l 258 807 m 323 807 l 355 807 l 355 775 l 323 775 l 323 807 m 355 775 l 388 775 l 388 743 l 355 743 l 355 775 m 323 775 l 355 775 l 355 743 l 323 743 l 323 775 m 420 775 l 452 775 l 452 743 l 420 743 l 420 775 m 388 775 l 420 775 l 420 743 l 388 743 l 388 775 m 484 743 l 517 743 l 517 711 l 484 711 l 484 743 m 484 711 l 517 711 l 517 678 l 484 678 l 484 711 m 484 678 l 517 678 l 517 646 l 484 646 l 484 678 m 452 711 l 484 711 l 484 678 l 452 678 l 452 711 m 452 743 l 484 743 l 484 711 l 452 711 l 452 743 m 452 775 l 484 775 l 484 743 l 452 743 l 452 775 m 678 775 l 711 775 l 711 743 l 678 743 l 678 775 m 711 807 l 743 807 l 743 775 l 711 775 l 711 807 m 743 807 l 775 807 l 775 775 l 743 775 l 743 807 m 743 775 l 775 775 l 775 743 l 743 743 l 743 775 m 711 775 l 743 775 l 743 743 l 711 743 l 711 775 m 807 743 l 840 743 l 840 711 l 807 711 l 807 743 m 517 711 l 549 711 l 549 678 l 517 678 l 517 711 m 517 678 l 549 678 l 549 646 l 517 646 l 517 678 m 549 678 l 581 678 l 581 646 l 549 646 l 549 678 m 581 678 l 614 678 l 614 646 l 581 646 l 581 678 m 614 678 l 646 678 l 646 646 l 614 646 l 614 678 m 614 646 l 646 646 l 646 614 l 614 614 l 614 646 m 581 646 l 614 646 l 614 614 l 581 614 l 581 646 m 549 646 l 581 646 l 581 614 l 549 614 l 549 646 m 388 614 l 420 614 l 420 581 l 388 581 l 388 614 m 388 581 l 420 581 l 420 549 l 388 549 l 388 581 m 549 614 l 581 614 l 581 581 l 549 581 l 549 614 m 581 614 l 614 614 l 614 581 l 581 581 l 581 614 m 614 614 l 646 614 l 646 581 l 614 581 l 614 614 m 614 581 l 646 581 l 646 549 l 614 549 l 614 581 m 581 549 l 614 549 l 614 517 l 581 517 l 581 549 m 549 549 l 581 549 l 581 517 l 549 517 l 549 549 m 581 581 l 614 581 l 614 549 l 581 549 l 581 581 m 549 581 l 581 581 l 581 549 l 549 549 l 549 581 m 517 517 l 549 517 l 549 484 l 517 484 l 517 517 m 517 549 l 549 549 l 549 517 l 517 517 l 517 549 m 549 517 l 581 517 l 581 484 l 549 484 l 549 517 m 581 517 l 614 517 l 614 484 l 581 484 l 581 517 m 355 614 l 388 614 l 388 581 l 355 581 l 355 614 m 355 581 l 388 581 l 388 549 l 355 549 l 355 581 m 355 549 l 388 549 l 388 517 l 355 517 l 355 549 m 355 517 l 388 517 l 388 484 l 355 484 l 355 517 m 388 355 l 420 355 l 420 323 l 388 323 l 388 355 m 420 355 l 452 355 l 452 323 l 420 323 l 420 355 m 517 484 l 549 484 l 549 452 l 517 452 l 517 484 m 517 452 l 549 452 l 549 420 l 517 420 l 517 452 m 517 420 l 549 420 l 549 388 l 517 388 l 517 420 m 517 388 l 549 388 l 549 355 l 517 355 l 517 388 m 549 484 l 581 484 l 581 452 l 549 452 l 549 484 m 549 452 l 581 452 l 581 420 l 549 420 l 549 452 m 549 420 l 581 420 l 581 388 l 549 388 l 549 420 m 549 388 l 581 388 l 581 355 l 549 355 l 549 388 m 517 323 l 549 323 l 549 291 l 517 291 l 517 323 m 549 323 l 581 323 l 581 291 l 549 291 l 549 323 m 581 355 l 614 355 l 614 323 l 581 323 l 581 355 m 581 388 l 614 388 l 614 355 l 581 355 l 581 388 m 581 420 l 614 420 l 614 388 l 581 388 l 581 420 m 581 452 l 614 452 l 614 420 l 581 420 l 581 452 m 581 484 l 614 484 l 614 452 l 581 452 l 581 484 m 581 323 l 614 323 l 614 291 l 581 291 l 581 323 m 614 291 l 646 291 l 646 258 l 614 258 l 614 291 m 614 258 l 646 258 l 646 226 l 614 226 l 614 258 m 581 258 l 614 258 l 614 226 l 581 226 l 581 258 m 549 258 l 581 258 l 581 226 l 549 226 l 549 258 m 517 258 l 549 258 l 549 226 l 517 226 l 517 258 m 517 291 l 549 291 l 549 258 l 517 258 l 517 291 m 549 291 l 581 291 l 581 258 l 549 258 l 549 291 m 581 291 l 614 291 l 614 258 l 581 258 l 581 291 m 194 194 l 226 194 l 226 161 l 194 161 l 194 194 m 161 161 l 194 161 l 194 129 l 161 129 l 161 161 m 129 129 l 161 129 l 161 97 l 129 97 l 129 129 m 517 226 l 549 226 l 549 194 l 517 194 l 517 226 m 549 226 l 581 226 l 581 194 l 549 194 l 549 226 m 581 226 l 614 226 l 614 194 l 581 194 l 581 226 m 614 226 l 646 226 l 646 194 l 614 194 l 614 226 m 161 129 l 194 129 l 194 97 l 161 97 l 161 129 m 194 129 l 226 129 l 226 97 l 194 97 l 194 129 m 194 97 l 226 97 l 226 65 l 194 65 l 194 97 m 161 97 l 194 97 l 194 65 l 161 65 l 161 97 m 226 97 l 258 97 l 258 65 l 226 65 l 226 97 m 388 129 l 420 129 l 420 97 l 388 97 l 388 129 m 388 97 l 420 97 l 420 65 l 388 65 l 388 97 m 355 97 l 388 97 l 388 65 l 355 65 l 355 97 m 420 161 l 452 161 l 452 129 l 420 129 l 420 161 m 517 194 l 549 194 l 549 161 l 517 161 l 517 194 m 549 194 l 581 194 l 581 161 l 549 161 l 549 194 m 581 194 l 614 194 l 614 161 l 581 161 l 581 194 m 614 194 l 646 194 l 646 161 l 614 161 l 614 194 m 614 161 l 646 161 l 646 129 l 614 129 l 614 161 m 581 161 l 614 161 l 614 129 l 581 129 l 581 161 m 549 161 l 581 161 l 581 129 l 549 129 l 549 161 m 517 161 l 549 161 l 549 129 l 517 129 l 517 161 m 517 129 l 549 129 l 549 97 l 517 97 l 517 129 m 517 97 l 549 97 l 549 65 l 517 65 l 517 97 m 549 97 l 581 97 l 581 65 l 549 65 l 549 97 m 581 97 l 614 97 l 614 65 l 581 65 l 581 97 m 581 129 l 614 129 l 614 97 l 581 97 l 581 129 m 614 129 l 646 129 l 646 97 l 614 97 l 614 129 m 549 129 l 581 129 l 581 97 l 549 97 l 549 129 m 614 97 l 646 97 l 646 65 l 614 65 l 614 97 m 581 65 l 614 65 l 614 32 l 581 32 l 581 65 m 581 32 l 614 32 l 614 0 l 581 0 l 581 32 m 614 32 l 646 32 l 646 0 l 614 0 l 614 32 m 614 65 l 646 65 l 646 32 l 614 32 l 614 65 m 678 65 l 711 65 l 711 32 l 678 32 l 678 65 m 678 32 l 711 32 l 711 0 l 678 0 l 678 32 m 646 32 l 678 32 l 678 0 l 646 0 l 646 32 m 743 129 l 775 129 l 775 97 l 743 97 l 743 129 m 743 97 l 775 97 l 775 65 l 743 65 l 743 97 m 711 97 l 743 97 l 743 65 l 711 65 l 711 97 m 711 65 l 743 65 l 743 32 l 711 32 l 711 65 m 549 65 l 581 65 l 581 32 l 549 32 l 549 65 m 323 65 l 355 65 l 355 32 l 323 32 l 323 65 m 291 65 l 323 65 l 323 32 l 291 32 l 291 65 m 291 32 l 323 32 l 323 0 l 291 0 l 291 32 m 323 32 l 355 32 l 355 0 l 323 0 l 323 32 m 258 65 l 291 65 l 291 32 l 258 32 l 258 65 m 226 32 l 258 32 l 258 0 l 226 0 l 226 32 m 258 32 l 291 32 l 291 0 l 258 0 l 258 32 m 226 65 l 258 65 l 258 32 l 226 32 l 226 65 m 355 65 l 388 65 l 388 32 l 355 32 l 355 65 m 420 129 l 452 129 l 452 97 l 420 97 l 420 129 m 775 775 l 807 775 l 807 743 l 775 743 l 775 775 m 97 97 l 129 97 l 129 65 l 97 65 l 97 97 m 194 161 l 226 161 l 226 129 l 194 129 l 194 161 m 646 65 l 678 65 l 678 32 l 646 32 l 646 65 m 65 65 l 97 65 l 97 32 l 65 32 l 65 65 m 355 388 l 388 388 l 388 355 l 355 355 l 355 388 m 355 452 l 388 452 l 388 420 l 355 420 l 355 452 m 355 420 l 388 420 l 388 388 l 355 388 l 355 420 m 355 484 l 388 484 l 388 452 l 355 452 l 355 484 m 388 549 l 420 549 l 420 517 l 388 517 l 388 549 m 388 517 l 420 517 l 420 484 l 388 484 l 388 517 m 258 258 l 291 258 l 291 226 l 258 226 l 258 258 m 420 743 l 452 743 l 452 711 l 420 711 l 420 743 m 614 323 l 646 323 l 646 291 l 614 291 l 614 323 m 194 65 l 226 65 l 226 32 l 194 32 l 194 65 m 291 646 l 323 646 l 323 614 l 291 614 l 291 646 m 323 646 l 355 646 l 355 614 l 323 614 l 323 646 m 355 646 l 388 646 l 388 614 l 355 614 l 355 646 m 355 807 l 388 807 l 388 775 l 355 775 l 355 807 m 323 323 l 355 323 l 355 291 l 323 291 l 323 323 m 775 161 l 807 161 l 807 129 l 775 129 l 775 161 m 226 226 l 258 226 l 258 194 l 226 194 l 226 226 m 291 291 l 323 291 l 323 258 l 291 258 l 291 291 m 291 258 l 323 258 l 323 226 l 291 226 l 291 258 m 258 226 l 291 226 l 291 194 l 258 194 l 258 226 m 226 194 l 258 194 l 258 161 l 226 161 l 226 194 m 226 161 l 258 161 l 258 129 l 226 129 l 226 161 m 355 355 l 388 355 l 388 323 l 355 323 l 355 355 m 452 355 l 484 355 l 484 323 l 452 323 l 452 355 m 355 323 l 388 323 l 388 291 l 355 291 l 355 323 m 388 323 l 420 323 l 420 291 l 388 291 l 388 323 m 420 323 l 452 323 l 452 291 l 420 291 l 420 323 m 388 484 l 420 484 l 420 452 l 388 452 l 388 484 m 775 129 l 807 129 l 807 97 l 775 97 l 775 129 m 646 97 l 678 97 l 678 65 l 646 65 l 646 97 m 646 743 l 678 743 l 678 711 l 646 711 l 646 743 m 840 711 l 872 711 l 872 678 l 840 678 l 840 711 m 388 452 l 420 452 l 420 420 l 388 420 l 388 452 m 388 420 l 420 420 l 420 388 l 388 388 l 388 420 m 388 388 l 420 388 l 420 355 l 388 355 l 388 388 m 549 355 l 581 355 l 581 323 l 549 323 l 549 355 m 517 355 l 549 355 l 549 323 l 517 323 l 517 355 m 678 97 l 711 97 l 711 65 l 678 65 l 678 97 m 258 97 l 291 97 l 291 65 l 258 65 l 258 97 m 291 97 l 323 97 l 323 65 l 291 65 l 291 97 m 323 97 l 355 97 l 355 65 l 323 65 l 323 97 m 32 32 l 65 32 l 65 0 l 32 0 l 32 32 m 388 807 l 420 807 l 420 775 l 388 775 l 388 807 m 97 129 l 129 129 l 129 97 l 97 97 l 97 129 m 65 97 l 97 97 l 97 65 l 65 65 l 65 97 m 32 65 l 65 65 l 65 32 l 32 32 l 32 65 m 129 97 l 161 97 l 161 65 l 129 65 l 129 97 m 484 355 l 517 355 l 517 323 l 484 323 l 484 355 m 452 323 l 484 323 l 484 291 l 452 291 l 452 323 m 517 646 l 549 646 l 549 614 l 517 614 l 517 646 m 581 711 l 614 711 l 614 678 l 581 678 l 581 711 m 614 711 l 646 711 l 646 678 l 614 678 l 614 711 m 549 711 l 581 711 l 581 678 l 549 678 l 549 711 m 517 743 l 549 743 l 549 711 l 517 711 l 517 743 m 388 743 l 420 743 l 420 711 l 388 711 l 388 743 m 517 614 l 549 614 l 549 581 l 517 581 l 517 614 m 129 161 l 161 161 l 161 129 l 129 129 l 129 161 m 226 129 l 258 129 l 258 97 l 226 97 l 226 129 m 258 129 l 291 129 l 291 97 l 258 97 l 258 129 m 323 678 l 355 678 l 355 646 l 323 646 l 323 678 m 420 711 l 452 711 l 452 678 l 420 678 l 420 711 m 452 678 l 484 678 l 484 646 l 452 646 l 452 678 m 484 646 l 517 646 l 517 614 l 484 614 l 484 646 m 517 581 l 549 581 l 549 549 l 517 549 l 517 581 m 420 581 l 452 581 l 452 549 l 420 549 l 420 581 m 420 549 l 452 549 l 452 517 l 420 517 l 420 549 m 420 517 l 452 517 l 452 484 l 420 484 l 420 517 m 420 484 l 452 484 l 452 452 l 420 452 l 420 484 m 420 452 l 452 452 l 452 420 l 420 420 l 420 452 m 420 420 l 452 420 l 452 388 l 420 388 l 420 420 m 420 388 l 452 388 l 452 355 l 420 355 l 420 388 m 258 614 l 291 614 l 291 581 l 258 581 l 258 614 m 226 581 l 258 581 l 258 549 l 226 549 l 226 581 m 194 549 l 226 549 l 226 517 l 194 517 l 194 549 m 291 614 l 323 614 l 323 581 l 291 581 l 291 614 m 258 581 l 291 581 l 291 549 l 258 549 l 258 581 m 226 549 l 258 549 l 258 517 l 226 517 l 226 549 m 194 517 l 226 517 l 226 484 l 194 484 l 194 517 m 323 614 l 355 614 l 355 581 l 323 581 l 323 614 m 323 581 l 355 581 l 355 549 l 323 549 l 323 581 m 678 743 l 711 743 l 711 711 l 678 711 l 678 743 m 646 711 l 678 711 l 678 678 l 646 678 l 646 711 m 775 743 l 807 743 l 807 711 l 775 711 l 775 743 m 743 743 l 775 743 l 775 711 l 743 711 l 743 743 m 775 711 l 807 711 l 807 678 l 775 678 l 775 711 m 807 711 l 840 711 l 840 678 l 807 678 l 807 711 m 711 743 l 743 743 l 743 711 l 711 711 l 711 743 m 743 711 l 775 711 l 775 678 l 743 678 l 743 711 m 775 678 l 807 678 l 807 646 l 775 646 l 775 678 m 807 678 l 840 678 l 840 646 l 807 646 l 807 678 m 711 711 l 743 711 l 743 678 l 711 678 l 711 711 m 743 678 l 775 678 l 775 646 l 743 646 l 743 678 m 775 646 l 807 646 l 807 614 l 775 614 l 775 646 m 65 614 l 97 614 l 97 581 l 65 581 l 65 614 m 97 646 l 129 646 l 129 614 l 97 614 l 97 646 m 129 678 l 161 678 l 161 646 l 129 646 l 129 678 m 161 711 l 194 711 l 194 678 l 161 678 l 161 711 m 194 743 l 226 743 l 226 711 l 194 711 l 194 743 m 194 775 l 226 775 l 226 743 l 194 743 l 194 775 m 420 807 l 452 807 l 452 775 l 420 775 l 420 807 m 484 775 l 517 775 l 517 743 l 484 743 l 484 775 m 549 743 l 581 743 l 581 711 l 549 711 l 549 743 m 517 775 l 549 775 l 549 743 l 517 743 l 517 775 m 484 807 l 517 807 l 517 775 l 484 775 l 484 807 m 452 807 l 484 807 l 484 775 l 452 775 l 452 807 m 291 581 l 323 581 l 323 549 l 291 549 l 291 581 m 323 549 l 355 549 l 355 517 l 323 517 l 323 549 m 291 549 l 323 549 l 323 517 l 291 517 l 291 549 m 323 517 l 355 517 l 355 484 l 323 484 l 323 517 m 355 291 l 388 291 l 388 258 l 355 258 l 355 291 m 323 291 l 355 291 l 355 258 l 323 258 l 323 291 m 323 258 l 355 258 l 355 226 l 323 226 l 323 258 m 291 226 l 323 226 l 323 194 l 291 194 l 291 226 m 258 194 l 291 194 l 291 161 l 258 161 l 258 194 m 614 355 l 646 355 l 646 323 l 614 323 l 614 355 m 614 388 l 646 388 l 646 355 l 614 355 l 614 388 m 614 420 l 646 420 l 646 388 l 614 388 l 614 420 m 614 452 l 646 452 l 646 420 l 614 420 l 614 452 m 614 484 l 646 484 l 646 452 l 614 452 l 614 484 m 614 517 l 646 517 l 646 484 l 614 484 l 614 517 m 614 549 l 646 549 l 646 517 l 614 517 l 614 549 m 484 904 l 517 904 l 517 872 l 484 872 l 484 904 m 517 904 l 549 904 l 549 872 l 517 872 l 517 904 m 549 904 l 581 904 l 581 872 l 549 872 l 549 904 m 581 904 l 614 904 l 614 872 l 581 872 l 581 904 m 614 904 l 646 904 l 646 872 l 614 872 l 614 904 m 614 937 l 646 937 l 646 904 l 614 904 l 614 937 m 646 937 l 678 937 l 678 904 l 646 904 l 646 937 m 646 904 l 678 904 l 678 872 l 646 872 l 646 904 m 484 969 l 517 969 l 517 937 l 484 937 l 484 969 m 517 969 l 549 969 l 549 937 l 517 937 l 517 969 m 549 969 l 581 969 l 581 937 l 549 937 l 549 969 m 581 969 l 614 969 l 614 937 l 581 937 l 581 969 m 614 969 l 646 969 l 646 937 l 614 937 l 614 969 m 646 969 l 678 969 l 678 937 l 646 937 l 646 969 m 581 937 l 614 937 l 614 904 l 581 904 l 581 937 m 549 937 l 581 937 l 581 904 l 549 904 l 549 937 m 517 937 l 549 937 l 549 904 l 517 904 l 517 937 m 484 937 l 517 937 l 517 904 l 484 904 l 484 937 z "},"":{"ha":904,"x_min":32,"x_max":872,"o":"m 97 678 l 129 678 l 129 646 l 97 646 l 97 678 m 65 646 l 97 646 l 97 614 l 65 614 l 65 646 m 129 711 l 161 711 l 161 678 l 129 678 l 129 711 m 161 743 l 194 743 l 194 711 l 161 711 l 161 743 m 226 807 l 258 807 l 258 775 l 226 775 l 226 807 m 226 775 l 258 775 l 258 743 l 226 743 l 226 775 m 291 807 l 323 807 l 323 775 l 291 775 l 291 807 m 291 775 l 323 775 l 323 743 l 291 743 l 291 775 m 258 775 l 291 775 l 291 743 l 258 743 l 258 775 m 258 807 l 291 807 l 291 775 l 258 775 l 258 807 m 323 807 l 355 807 l 355 775 l 323 775 l 323 807 m 355 775 l 388 775 l 388 743 l 355 743 l 355 775 m 323 775 l 355 775 l 355 743 l 323 743 l 323 775 m 420 775 l 452 775 l 452 743 l 420 743 l 420 775 m 388 775 l 420 775 l 420 743 l 388 743 l 388 775 m 484 743 l 517 743 l 517 711 l 484 711 l 484 743 m 484 711 l 517 711 l 517 678 l 484 678 l 484 711 m 484 678 l 517 678 l 517 646 l 484 646 l 484 678 m 452 711 l 484 711 l 484 678 l 452 678 l 452 711 m 452 743 l 484 743 l 484 711 l 452 711 l 452 743 m 452 775 l 484 775 l 484 743 l 452 743 l 452 775 m 678 775 l 711 775 l 711 743 l 678 743 l 678 775 m 711 807 l 743 807 l 743 775 l 711 775 l 711 807 m 743 807 l 775 807 l 775 775 l 743 775 l 743 807 m 743 775 l 775 775 l 775 743 l 743 743 l 743 775 m 711 775 l 743 775 l 743 743 l 711 743 l 711 775 m 807 743 l 840 743 l 840 711 l 807 711 l 807 743 m 517 711 l 549 711 l 549 678 l 517 678 l 517 711 m 517 678 l 549 678 l 549 646 l 517 646 l 517 678 m 549 678 l 581 678 l 581 646 l 549 646 l 549 678 m 581 678 l 614 678 l 614 646 l 581 646 l 581 678 m 614 678 l 646 678 l 646 646 l 614 646 l 614 678 m 614 646 l 646 646 l 646 614 l 614 614 l 614 646 m 581 646 l 614 646 l 614 614 l 581 614 l 581 646 m 549 646 l 581 646 l 581 614 l 549 614 l 549 646 m 388 614 l 420 614 l 420 581 l 388 581 l 388 614 m 388 581 l 420 581 l 420 549 l 388 549 l 388 581 m 549 614 l 581 614 l 581 581 l 549 581 l 549 614 m 581 614 l 614 614 l 614 581 l 581 581 l 581 614 m 614 614 l 646 614 l 646 581 l 614 581 l 614 614 m 614 581 l 646 581 l 646 549 l 614 549 l 614 581 m 581 549 l 614 549 l 614 517 l 581 517 l 581 549 m 549 549 l 581 549 l 581 517 l 549 517 l 549 549 m 581 581 l 614 581 l 614 549 l 581 549 l 581 581 m 549 581 l 581 581 l 581 549 l 549 549 l 549 581 m 517 517 l 549 517 l 549 484 l 517 484 l 517 517 m 517 549 l 549 549 l 549 517 l 517 517 l 517 549 m 549 517 l 581 517 l 581 484 l 549 484 l 549 517 m 581 517 l 614 517 l 614 484 l 581 484 l 581 517 m 355 614 l 388 614 l 388 581 l 355 581 l 355 614 m 355 581 l 388 581 l 388 549 l 355 549 l 355 581 m 355 549 l 388 549 l 388 517 l 355 517 l 355 549 m 355 517 l 388 517 l 388 484 l 355 484 l 355 517 m 388 355 l 420 355 l 420 323 l 388 323 l 388 355 m 420 355 l 452 355 l 452 323 l 420 323 l 420 355 m 517 484 l 549 484 l 549 452 l 517 452 l 517 484 m 517 452 l 549 452 l 549 420 l 517 420 l 517 452 m 517 420 l 549 420 l 549 388 l 517 388 l 517 420 m 517 388 l 549 388 l 549 355 l 517 355 l 517 388 m 549 484 l 581 484 l 581 452 l 549 452 l 549 484 m 549 452 l 581 452 l 581 420 l 549 420 l 549 452 m 549 420 l 581 420 l 581 388 l 549 388 l 549 420 m 549 388 l 581 388 l 581 355 l 549 355 l 549 388 m 517 323 l 549 323 l 549 291 l 517 291 l 517 323 m 549 323 l 581 323 l 581 291 l 549 291 l 549 323 m 581 355 l 614 355 l 614 323 l 581 323 l 581 355 m 581 388 l 614 388 l 614 355 l 581 355 l 581 388 m 581 420 l 614 420 l 614 388 l 581 388 l 581 420 m 581 452 l 614 452 l 614 420 l 581 420 l 581 452 m 581 484 l 614 484 l 614 452 l 581 452 l 581 484 m 581 323 l 614 323 l 614 291 l 581 291 l 581 323 m 614 291 l 646 291 l 646 258 l 614 258 l 614 291 m 614 258 l 646 258 l 646 226 l 614 226 l 614 258 m 581 258 l 614 258 l 614 226 l 581 226 l 581 258 m 549 258 l 581 258 l 581 226 l 549 226 l 549 258 m 517 258 l 549 258 l 549 226 l 517 226 l 517 258 m 517 291 l 549 291 l 549 258 l 517 258 l 517 291 m 549 291 l 581 291 l 581 258 l 549 258 l 549 291 m 581 291 l 614 291 l 614 258 l 581 258 l 581 291 m 194 194 l 226 194 l 226 161 l 194 161 l 194 194 m 161 161 l 194 161 l 194 129 l 161 129 l 161 161 m 129 129 l 161 129 l 161 97 l 129 97 l 129 129 m 517 226 l 549 226 l 549 194 l 517 194 l 517 226 m 549 226 l 581 226 l 581 194 l 549 194 l 549 226 m 581 226 l 614 226 l 614 194 l 581 194 l 581 226 m 614 226 l 646 226 l 646 194 l 614 194 l 614 226 m 161 129 l 194 129 l 194 97 l 161 97 l 161 129 m 194 129 l 226 129 l 226 97 l 194 97 l 194 129 m 194 97 l 226 97 l 226 65 l 194 65 l 194 97 m 161 97 l 194 97 l 194 65 l 161 65 l 161 97 m 226 97 l 258 97 l 258 65 l 226 65 l 226 97 m 388 129 l 420 129 l 420 97 l 388 97 l 388 129 m 388 97 l 420 97 l 420 65 l 388 65 l 388 97 m 355 97 l 388 97 l 388 65 l 355 65 l 355 97 m 420 161 l 452 161 l 452 129 l 420 129 l 420 161 m 517 194 l 549 194 l 549 161 l 517 161 l 517 194 m 549 194 l 581 194 l 581 161 l 549 161 l 549 194 m 581 194 l 614 194 l 614 161 l 581 161 l 581 194 m 614 194 l 646 194 l 646 161 l 614 161 l 614 194 m 614 161 l 646 161 l 646 129 l 614 129 l 614 161 m 581 161 l 614 161 l 614 129 l 581 129 l 581 161 m 549 161 l 581 161 l 581 129 l 549 129 l 549 161 m 517 161 l 549 161 l 549 129 l 517 129 l 517 161 m 517 129 l 549 129 l 549 97 l 517 97 l 517 129 m 517 97 l 549 97 l 549 65 l 517 65 l 517 97 m 549 97 l 581 97 l 581 65 l 549 65 l 549 97 m 581 97 l 614 97 l 614 65 l 581 65 l 581 97 m 581 129 l 614 129 l 614 97 l 581 97 l 581 129 m 614 129 l 646 129 l 646 97 l 614 97 l 614 129 m 549 129 l 581 129 l 581 97 l 549 97 l 549 129 m 614 97 l 646 97 l 646 65 l 614 65 l 614 97 m 581 65 l 614 65 l 614 32 l 581 32 l 581 65 m 581 32 l 614 32 l 614 0 l 581 0 l 581 32 m 614 32 l 646 32 l 646 0 l 614 0 l 614 32 m 614 65 l 646 65 l 646 32 l 614 32 l 614 65 m 678 65 l 711 65 l 711 32 l 678 32 l 678 65 m 678 32 l 711 32 l 711 0 l 678 0 l 678 32 m 646 32 l 678 32 l 678 0 l 646 0 l 646 32 m 743 129 l 775 129 l 775 97 l 743 97 l 743 129 m 743 97 l 775 97 l 775 65 l 743 65 l 743 97 m 711 97 l 743 97 l 743 65 l 711 65 l 711 97 m 711 65 l 743 65 l 743 32 l 711 32 l 711 65 m 549 65 l 581 65 l 581 32 l 549 32 l 549 65 m 323 65 l 355 65 l 355 32 l 323 32 l 323 65 m 291 65 l 323 65 l 323 32 l 291 32 l 291 65 m 291 32 l 323 32 l 323 0 l 291 0 l 291 32 m 323 32 l 355 32 l 355 0 l 323 0 l 323 32 m 258 65 l 291 65 l 291 32 l 258 32 l 258 65 m 226 32 l 258 32 l 258 0 l 226 0 l 226 32 m 258 32 l 291 32 l 291 0 l 258 0 l 258 32 m 226 65 l 258 65 l 258 32 l 226 32 l 226 65 m 355 65 l 388 65 l 388 32 l 355 32 l 355 65 m 420 129 l 452 129 l 452 97 l 420 97 l 420 129 m 775 775 l 807 775 l 807 743 l 775 743 l 775 775 m 97 97 l 129 97 l 129 65 l 97 65 l 97 97 m 194 161 l 226 161 l 226 129 l 194 129 l 194 161 m 646 65 l 678 65 l 678 32 l 646 32 l 646 65 m 65 65 l 97 65 l 97 32 l 65 32 l 65 65 m 355 388 l 388 388 l 388 355 l 355 355 l 355 388 m 355 452 l 388 452 l 388 420 l 355 420 l 355 452 m 355 420 l 388 420 l 388 388 l 355 388 l 355 420 m 355 484 l 388 484 l 388 452 l 355 452 l 355 484 m 388 549 l 420 549 l 420 517 l 388 517 l 388 549 m 388 517 l 420 517 l 420 484 l 388 484 l 388 517 m 258 258 l 291 258 l 291 226 l 258 226 l 258 258 m 420 743 l 452 743 l 452 711 l 420 711 l 420 743 m 614 323 l 646 323 l 646 291 l 614 291 l 614 323 m 194 65 l 226 65 l 226 32 l 194 32 l 194 65 m 291 646 l 323 646 l 323 614 l 291 614 l 291 646 m 323 646 l 355 646 l 355 614 l 323 614 l 323 646 m 355 646 l 388 646 l 388 614 l 355 614 l 355 646 m 355 807 l 388 807 l 388 775 l 355 775 l 355 807 m 323 323 l 355 323 l 355 291 l 323 291 l 323 323 m 775 161 l 807 161 l 807 129 l 775 129 l 775 161 m 226 226 l 258 226 l 258 194 l 226 194 l 226 226 m 291 291 l 323 291 l 323 258 l 291 258 l 291 291 m 291 258 l 323 258 l 323 226 l 291 226 l 291 258 m 258 226 l 291 226 l 291 194 l 258 194 l 258 226 m 226 194 l 258 194 l 258 161 l 226 161 l 226 194 m 226 161 l 258 161 l 258 129 l 226 129 l 226 161 m 355 355 l 388 355 l 388 323 l 355 323 l 355 355 m 452 355 l 484 355 l 484 323 l 452 323 l 452 355 m 355 323 l 388 323 l 388 291 l 355 291 l 355 323 m 388 323 l 420 323 l 420 291 l 388 291 l 388 323 m 420 323 l 452 323 l 452 291 l 420 291 l 420 323 m 388 484 l 420 484 l 420 452 l 388 452 l 388 484 m 775 129 l 807 129 l 807 97 l 775 97 l 775 129 m 646 97 l 678 97 l 678 65 l 646 65 l 646 97 m 646 743 l 678 743 l 678 711 l 646 711 l 646 743 m 840 711 l 872 711 l 872 678 l 840 678 l 840 711 m 388 452 l 420 452 l 420 420 l 388 420 l 388 452 m 388 420 l 420 420 l 420 388 l 388 388 l 388 420 m 388 388 l 420 388 l 420 355 l 388 355 l 388 388 m 549 355 l 581 355 l 581 323 l 549 323 l 549 355 m 517 355 l 549 355 l 549 323 l 517 323 l 517 355 m 678 97 l 711 97 l 711 65 l 678 65 l 678 97 m 258 97 l 291 97 l 291 65 l 258 65 l 258 97 m 291 97 l 323 97 l 323 65 l 291 65 l 291 97 m 323 97 l 355 97 l 355 65 l 323 65 l 323 97 m 32 32 l 65 32 l 65 0 l 32 0 l 32 32 m 388 807 l 420 807 l 420 775 l 388 775 l 388 807 m 97 129 l 129 129 l 129 97 l 97 97 l 97 129 m 65 97 l 97 97 l 97 65 l 65 65 l 65 97 m 32 65 l 65 65 l 65 32 l 32 32 l 32 65 m 129 97 l 161 97 l 161 65 l 129 65 l 129 97 m 484 355 l 517 355 l 517 323 l 484 323 l 484 355 m 452 323 l 484 323 l 484 291 l 452 291 l 452 323 m 517 646 l 549 646 l 549 614 l 517 614 l 517 646 m 581 711 l 614 711 l 614 678 l 581 678 l 581 711 m 614 711 l 646 711 l 646 678 l 614 678 l 614 711 m 549 711 l 581 711 l 581 678 l 549 678 l 549 711 m 517 743 l 549 743 l 549 711 l 517 711 l 517 743 m 388 743 l 420 743 l 420 711 l 388 711 l 388 743 m 517 614 l 549 614 l 549 581 l 517 581 l 517 614 m 129 161 l 161 161 l 161 129 l 129 129 l 129 161 m 226 129 l 258 129 l 258 97 l 226 97 l 226 129 m 258 129 l 291 129 l 291 97 l 258 97 l 258 129 m 323 678 l 355 678 l 355 646 l 323 646 l 323 678 m 420 711 l 452 711 l 452 678 l 420 678 l 420 711 m 452 678 l 484 678 l 484 646 l 452 646 l 452 678 m 484 646 l 517 646 l 517 614 l 484 614 l 484 646 m 517 581 l 549 581 l 549 549 l 517 549 l 517 581 m 420 581 l 452 581 l 452 549 l 420 549 l 420 581 m 420 549 l 452 549 l 452 517 l 420 517 l 420 549 m 420 517 l 452 517 l 452 484 l 420 484 l 420 517 m 420 484 l 452 484 l 452 452 l 420 452 l 420 484 m 420 452 l 452 452 l 452 420 l 420 420 l 420 452 m 420 420 l 452 420 l 452 388 l 420 388 l 420 420 m 420 388 l 452 388 l 452 355 l 420 355 l 420 388 m 258 614 l 291 614 l 291 581 l 258 581 l 258 614 m 226 581 l 258 581 l 258 549 l 226 549 l 226 581 m 194 549 l 226 549 l 226 517 l 194 517 l 194 549 m 291 614 l 323 614 l 323 581 l 291 581 l 291 614 m 258 581 l 291 581 l 291 549 l 258 549 l 258 581 m 226 549 l 258 549 l 258 517 l 226 517 l 226 549 m 194 517 l 226 517 l 226 484 l 194 484 l 194 517 m 323 614 l 355 614 l 355 581 l 323 581 l 323 614 m 323 581 l 355 581 l 355 549 l 323 549 l 323 581 m 678 743 l 711 743 l 711 711 l 678 711 l 678 743 m 646 711 l 678 711 l 678 678 l 646 678 l 646 711 m 775 743 l 807 743 l 807 711 l 775 711 l 775 743 m 743 743 l 775 743 l 775 711 l 743 711 l 743 743 m 775 711 l 807 711 l 807 678 l 775 678 l 775 711 m 807 711 l 840 711 l 840 678 l 807 678 l 807 711 m 711 743 l 743 743 l 743 711 l 711 711 l 711 743 m 743 711 l 775 711 l 775 678 l 743 678 l 743 711 m 775 678 l 807 678 l 807 646 l 775 646 l 775 678 m 807 678 l 840 678 l 840 646 l 807 646 l 807 678 m 711 711 l 743 711 l 743 678 l 711 678 l 711 711 m 743 678 l 775 678 l 775 646 l 743 646 l 743 678 m 775 646 l 807 646 l 807 614 l 775 614 l 775 646 m 65 614 l 97 614 l 97 581 l 65 581 l 65 614 m 97 646 l 129 646 l 129 614 l 97 614 l 97 646 m 129 678 l 161 678 l 161 646 l 129 646 l 129 678 m 161 711 l 194 711 l 194 678 l 161 678 l 161 711 m 194 743 l 226 743 l 226 711 l 194 711 l 194 743 m 194 775 l 226 775 l 226 743 l 194 743 l 194 775 m 420 807 l 452 807 l 452 775 l 420 775 l 420 807 m 484 775 l 517 775 l 517 743 l 484 743 l 484 775 m 549 743 l 581 743 l 581 711 l 549 711 l 549 743 m 517 775 l 549 775 l 549 743 l 517 743 l 517 775 m 484 807 l 517 807 l 517 775 l 484 775 l 484 807 m 452 807 l 484 807 l 484 775 l 452 775 l 452 807 m 291 581 l 323 581 l 323 549 l 291 549 l 291 581 m 323 549 l 355 549 l 355 517 l 323 517 l 323 549 m 291 549 l 323 549 l 323 517 l 291 517 l 291 549 m 323 517 l 355 517 l 355 484 l 323 484 l 323 517 m 355 291 l 388 291 l 388 258 l 355 258 l 355 291 m 323 291 l 355 291 l 355 258 l 323 258 l 323 291 m 323 258 l 355 258 l 355 226 l 323 226 l 323 258 m 291 226 l 323 226 l 323 194 l 291 194 l 291 226 m 258 194 l 291 194 l 291 161 l 258 161 l 258 194 m 614 355 l 646 355 l 646 323 l 614 323 l 614 355 m 614 388 l 646 388 l 646 355 l 614 355 l 614 388 m 614 420 l 646 420 l 646 388 l 614 388 l 614 420 m 614 452 l 646 452 l 646 420 l 614 420 l 614 452 m 614 484 l 646 484 l 646 452 l 614 452 l 614 484 m 614 517 l 646 517 l 646 484 l 614 484 l 614 517 m 614 549 l 646 549 l 646 517 l 614 517 l 614 549 m 646 0 l 646 -32 l 614 -32 l 614 0 l 646 0 m 614 0 l 614 -32 l 581 -32 l 581 0 l 614 0 m 614 -32 l 614 -65 l 581 -65 l 581 -32 l 614 -32 m 549 -97 l 549 -129 l 517 -129 l 517 -97 l 549 -97 m 581 -129 l 581 -161 l 549 -161 l 549 -129 l 581 -129 m 614 -129 l 614 -161 l 581 -161 l 581 -129 l 614 -129 m 646 -161 l 646 -194 l 614 -194 l 614 -161 l 646 -161 m 614 -161 l 614 -194 l 581 -194 l 581 -161 l 614 -161 m 549 -65 l 549 -97 l 517 -97 l 517 -65 l 549 -65 m 581 -97 l 581 -129 l 549 -129 l 549 -97 l 581 -97 m 581 -65 l 581 -97 l 549 -97 l 549 -65 l 581 -65 m 581 -32 l 581 -65 l 549 -65 l 549 -32 l 581 -32 m 614 -97 l 614 -129 l 581 -129 l 581 -97 l 614 -97 m 646 -97 l 646 -129 l 614 -129 l 614 -97 l 646 -97 m 646 -129 l 646 -161 l 614 -161 l 614 -129 l 646 -129 m 678 -129 l 678 -161 l 646 -161 l 646 -129 l 678 -129 m 678 -161 l 678 -194 l 646 -194 l 646 -161 l 678 -161 m 678 -97 l 678 -129 l 646 -129 l 646 -97 l 678 -97 z "},"":{"ha":904,"x_min":32,"x_max":872,"o":"m 97 678 l 129 678 l 129 646 l 97 646 l 97 678 m 65 646 l 97 646 l 97 614 l 65 614 l 65 646 m 129 711 l 161 711 l 161 678 l 129 678 l 129 711 m 161 743 l 194 743 l 194 711 l 161 711 l 161 743 m 226 807 l 258 807 l 258 775 l 226 775 l 226 807 m 226 775 l 258 775 l 258 743 l 226 743 l 226 775 m 291 807 l 323 807 l 323 775 l 291 775 l 291 807 m 291 775 l 323 775 l 323 743 l 291 743 l 291 775 m 258 775 l 291 775 l 291 743 l 258 743 l 258 775 m 258 807 l 291 807 l 291 775 l 258 775 l 258 807 m 323 807 l 355 807 l 355 775 l 323 775 l 323 807 m 355 775 l 388 775 l 388 743 l 355 743 l 355 775 m 323 775 l 355 775 l 355 743 l 323 743 l 323 775 m 420 775 l 452 775 l 452 743 l 420 743 l 420 775 m 388 775 l 420 775 l 420 743 l 388 743 l 388 775 m 484 743 l 517 743 l 517 711 l 484 711 l 484 743 m 484 711 l 517 711 l 517 678 l 484 678 l 484 711 m 484 678 l 517 678 l 517 646 l 484 646 l 484 678 m 452 711 l 484 711 l 484 678 l 452 678 l 452 711 m 452 743 l 484 743 l 484 711 l 452 711 l 452 743 m 452 775 l 484 775 l 484 743 l 452 743 l 452 775 m 678 775 l 711 775 l 711 743 l 678 743 l 678 775 m 711 807 l 743 807 l 743 775 l 711 775 l 711 807 m 743 807 l 775 807 l 775 775 l 743 775 l 743 807 m 743 775 l 775 775 l 775 743 l 743 743 l 743 775 m 711 775 l 743 775 l 743 743 l 711 743 l 711 775 m 807 743 l 840 743 l 840 711 l 807 711 l 807 743 m 517 711 l 549 711 l 549 678 l 517 678 l 517 711 m 517 678 l 549 678 l 549 646 l 517 646 l 517 678 m 549 678 l 581 678 l 581 646 l 549 646 l 549 678 m 581 678 l 614 678 l 614 646 l 581 646 l 581 678 m 614 678 l 646 678 l 646 646 l 614 646 l 614 678 m 614 646 l 646 646 l 646 614 l 614 614 l 614 646 m 581 646 l 614 646 l 614 614 l 581 614 l 581 646 m 549 646 l 581 646 l 581 614 l 549 614 l 549 646 m 388 614 l 420 614 l 420 581 l 388 581 l 388 614 m 388 581 l 420 581 l 420 549 l 388 549 l 388 581 m 549 614 l 581 614 l 581 581 l 549 581 l 549 614 m 581 614 l 614 614 l 614 581 l 581 581 l 581 614 m 614 614 l 646 614 l 646 581 l 614 581 l 614 614 m 614 581 l 646 581 l 646 549 l 614 549 l 614 581 m 581 549 l 614 549 l 614 517 l 581 517 l 581 549 m 549 549 l 581 549 l 581 517 l 549 517 l 549 549 m 581 581 l 614 581 l 614 549 l 581 549 l 581 581 m 549 581 l 581 581 l 581 549 l 549 549 l 549 581 m 517 517 l 549 517 l 549 484 l 517 484 l 517 517 m 517 549 l 549 549 l 549 517 l 517 517 l 517 549 m 549 517 l 581 517 l 581 484 l 549 484 l 549 517 m 581 517 l 614 517 l 614 484 l 581 484 l 581 517 m 355 614 l 388 614 l 388 581 l 355 581 l 355 614 m 355 581 l 388 581 l 388 549 l 355 549 l 355 581 m 355 549 l 388 549 l 388 517 l 355 517 l 355 549 m 355 517 l 388 517 l 388 484 l 355 484 l 355 517 m 388 355 l 420 355 l 420 323 l 388 323 l 388 355 m 420 355 l 452 355 l 452 323 l 420 323 l 420 355 m 517 484 l 549 484 l 549 452 l 517 452 l 517 484 m 517 452 l 549 452 l 549 420 l 517 420 l 517 452 m 517 420 l 549 420 l 549 388 l 517 388 l 517 420 m 517 388 l 549 388 l 549 355 l 517 355 l 517 388 m 549 484 l 581 484 l 581 452 l 549 452 l 549 484 m 549 452 l 581 452 l 581 420 l 549 420 l 549 452 m 549 420 l 581 420 l 581 388 l 549 388 l 549 420 m 549 388 l 581 388 l 581 355 l 549 355 l 549 388 m 517 323 l 549 323 l 549 291 l 517 291 l 517 323 m 549 323 l 581 323 l 581 291 l 549 291 l 549 323 m 581 355 l 614 355 l 614 323 l 581 323 l 581 355 m 581 388 l 614 388 l 614 355 l 581 355 l 581 388 m 581 420 l 614 420 l 614 388 l 581 388 l 581 420 m 581 452 l 614 452 l 614 420 l 581 420 l 581 452 m 581 484 l 614 484 l 614 452 l 581 452 l 581 484 m 581 323 l 614 323 l 614 291 l 581 291 l 581 323 m 614 291 l 646 291 l 646 258 l 614 258 l 614 291 m 614 258 l 646 258 l 646 226 l 614 226 l 614 258 m 581 258 l 614 258 l 614 226 l 581 226 l 581 258 m 549 258 l 581 258 l 581 226 l 549 226 l 549 258 m 517 258 l 549 258 l 549 226 l 517 226 l 517 258 m 517 291 l 549 291 l 549 258 l 517 258 l 517 291 m 549 291 l 581 291 l 581 258 l 549 258 l 549 291 m 581 291 l 614 291 l 614 258 l 581 258 l 581 291 m 194 194 l 226 194 l 226 161 l 194 161 l 194 194 m 161 161 l 194 161 l 194 129 l 161 129 l 161 161 m 129 129 l 161 129 l 161 97 l 129 97 l 129 129 m 517 226 l 549 226 l 549 194 l 517 194 l 517 226 m 549 226 l 581 226 l 581 194 l 549 194 l 549 226 m 581 226 l 614 226 l 614 194 l 581 194 l 581 226 m 614 226 l 646 226 l 646 194 l 614 194 l 614 226 m 161 129 l 194 129 l 194 97 l 161 97 l 161 129 m 194 129 l 226 129 l 226 97 l 194 97 l 194 129 m 194 97 l 226 97 l 226 65 l 194 65 l 194 97 m 161 97 l 194 97 l 194 65 l 161 65 l 161 97 m 226 97 l 258 97 l 258 65 l 226 65 l 226 97 m 388 129 l 420 129 l 420 97 l 388 97 l 388 129 m 388 97 l 420 97 l 420 65 l 388 65 l 388 97 m 355 97 l 388 97 l 388 65 l 355 65 l 355 97 m 420 161 l 452 161 l 452 129 l 420 129 l 420 161 m 517 194 l 549 194 l 549 161 l 517 161 l 517 194 m 549 194 l 581 194 l 581 161 l 549 161 l 549 194 m 581 194 l 614 194 l 614 161 l 581 161 l 581 194 m 614 194 l 646 194 l 646 161 l 614 161 l 614 194 m 614 161 l 646 161 l 646 129 l 614 129 l 614 161 m 581 161 l 614 161 l 614 129 l 581 129 l 581 161 m 549 161 l 581 161 l 581 129 l 549 129 l 549 161 m 517 161 l 549 161 l 549 129 l 517 129 l 517 161 m 517 129 l 549 129 l 549 97 l 517 97 l 517 129 m 517 97 l 549 97 l 549 65 l 517 65 l 517 97 m 549 97 l 581 97 l 581 65 l 549 65 l 549 97 m 581 97 l 614 97 l 614 65 l 581 65 l 581 97 m 581 129 l 614 129 l 614 97 l 581 97 l 581 129 m 614 129 l 646 129 l 646 97 l 614 97 l 614 129 m 549 129 l 581 129 l 581 97 l 549 97 l 549 129 m 614 97 l 646 97 l 646 65 l 614 65 l 614 97 m 581 65 l 614 65 l 614 32 l 581 32 l 581 65 m 581 32 l 614 32 l 614 0 l 581 0 l 581 32 m 614 32 l 646 32 l 646 0 l 614 0 l 614 32 m 614 65 l 646 65 l 646 32 l 614 32 l 614 65 m 678 65 l 711 65 l 711 32 l 678 32 l 678 65 m 678 32 l 711 32 l 711 0 l 678 0 l 678 32 m 646 32 l 678 32 l 678 0 l 646 0 l 646 32 m 743 129 l 775 129 l 775 97 l 743 97 l 743 129 m 743 97 l 775 97 l 775 65 l 743 65 l 743 97 m 711 97 l 743 97 l 743 65 l 711 65 l 711 97 m 711 65 l 743 65 l 743 32 l 711 32 l 711 65 m 549 65 l 581 65 l 581 32 l 549 32 l 549 65 m 323 65 l 355 65 l 355 32 l 323 32 l 323 65 m 291 65 l 323 65 l 323 32 l 291 32 l 291 65 m 291 32 l 323 32 l 323 0 l 291 0 l 291 32 m 323 32 l 355 32 l 355 0 l 323 0 l 323 32 m 258 65 l 291 65 l 291 32 l 258 32 l 258 65 m 226 32 l 258 32 l 258 0 l 226 0 l 226 32 m 258 32 l 291 32 l 291 0 l 258 0 l 258 32 m 226 65 l 258 65 l 258 32 l 226 32 l 226 65 m 355 65 l 388 65 l 388 32 l 355 32 l 355 65 m 420 129 l 452 129 l 452 97 l 420 97 l 420 129 m 775 775 l 807 775 l 807 743 l 775 743 l 775 775 m 97 97 l 129 97 l 129 65 l 97 65 l 97 97 m 194 161 l 226 161 l 226 129 l 194 129 l 194 161 m 646 65 l 678 65 l 678 32 l 646 32 l 646 65 m 65 65 l 97 65 l 97 32 l 65 32 l 65 65 m 355 388 l 388 388 l 388 355 l 355 355 l 355 388 m 355 452 l 388 452 l 388 420 l 355 420 l 355 452 m 355 420 l 388 420 l 388 388 l 355 388 l 355 420 m 355 484 l 388 484 l 388 452 l 355 452 l 355 484 m 388 549 l 420 549 l 420 517 l 388 517 l 388 549 m 388 517 l 420 517 l 420 484 l 388 484 l 388 517 m 258 258 l 291 258 l 291 226 l 258 226 l 258 258 m 420 743 l 452 743 l 452 711 l 420 711 l 420 743 m 614 323 l 646 323 l 646 291 l 614 291 l 614 323 m 194 65 l 226 65 l 226 32 l 194 32 l 194 65 m 291 646 l 323 646 l 323 614 l 291 614 l 291 646 m 323 646 l 355 646 l 355 614 l 323 614 l 323 646 m 355 646 l 388 646 l 388 614 l 355 614 l 355 646 m 355 807 l 388 807 l 388 775 l 355 775 l 355 807 m 323 323 l 355 323 l 355 291 l 323 291 l 323 323 m 775 161 l 807 161 l 807 129 l 775 129 l 775 161 m 226 226 l 258 226 l 258 194 l 226 194 l 226 226 m 291 291 l 323 291 l 323 258 l 291 258 l 291 291 m 291 258 l 323 258 l 323 226 l 291 226 l 291 258 m 258 226 l 291 226 l 291 194 l 258 194 l 258 226 m 226 194 l 258 194 l 258 161 l 226 161 l 226 194 m 226 161 l 258 161 l 258 129 l 226 129 l 226 161 m 355 355 l 388 355 l 388 323 l 355 323 l 355 355 m 452 355 l 484 355 l 484 323 l 452 323 l 452 355 m 355 323 l 388 323 l 388 291 l 355 291 l 355 323 m 388 323 l 420 323 l 420 291 l 388 291 l 388 323 m 420 323 l 452 323 l 452 291 l 420 291 l 420 323 m 388 484 l 420 484 l 420 452 l 388 452 l 388 484 m 775 129 l 807 129 l 807 97 l 775 97 l 775 129 m 646 97 l 678 97 l 678 65 l 646 65 l 646 97 m 646 743 l 678 743 l 678 711 l 646 711 l 646 743 m 840 711 l 872 711 l 872 678 l 840 678 l 840 711 m 388 452 l 420 452 l 420 420 l 388 420 l 388 452 m 388 420 l 420 420 l 420 388 l 388 388 l 388 420 m 388 388 l 420 388 l 420 355 l 388 355 l 388 388 m 549 355 l 581 355 l 581 323 l 549 323 l 549 355 m 517 355 l 549 355 l 549 323 l 517 323 l 517 355 m 678 97 l 711 97 l 711 65 l 678 65 l 678 97 m 258 97 l 291 97 l 291 65 l 258 65 l 258 97 m 291 97 l 323 97 l 323 65 l 291 65 l 291 97 m 323 97 l 355 97 l 355 65 l 323 65 l 323 97 m 32 32 l 65 32 l 65 0 l 32 0 l 32 32 m 388 807 l 420 807 l 420 775 l 388 775 l 388 807 m 97 129 l 129 129 l 129 97 l 97 97 l 97 129 m 65 97 l 97 97 l 97 65 l 65 65 l 65 97 m 32 65 l 65 65 l 65 32 l 32 32 l 32 65 m 129 97 l 161 97 l 161 65 l 129 65 l 129 97 m 484 355 l 517 355 l 517 323 l 484 323 l 484 355 m 452 323 l 484 323 l 484 291 l 452 291 l 452 323 m 517 646 l 549 646 l 549 614 l 517 614 l 517 646 m 581 711 l 614 711 l 614 678 l 581 678 l 581 711 m 614 711 l 646 711 l 646 678 l 614 678 l 614 711 m 549 711 l 581 711 l 581 678 l 549 678 l 549 711 m 517 743 l 549 743 l 549 711 l 517 711 l 517 743 m 388 743 l 420 743 l 420 711 l 388 711 l 388 743 m 517 614 l 549 614 l 549 581 l 517 581 l 517 614 m 129 161 l 161 161 l 161 129 l 129 129 l 129 161 m 226 129 l 258 129 l 258 97 l 226 97 l 226 129 m 258 129 l 291 129 l 291 97 l 258 97 l 258 129 m 323 678 l 355 678 l 355 646 l 323 646 l 323 678 m 420 711 l 452 711 l 452 678 l 420 678 l 420 711 m 452 678 l 484 678 l 484 646 l 452 646 l 452 678 m 484 646 l 517 646 l 517 614 l 484 614 l 484 646 m 517 581 l 549 581 l 549 549 l 517 549 l 517 581 m 420 581 l 452 581 l 452 549 l 420 549 l 420 581 m 420 549 l 452 549 l 452 517 l 420 517 l 420 549 m 420 517 l 452 517 l 452 484 l 420 484 l 420 517 m 420 484 l 452 484 l 452 452 l 420 452 l 420 484 m 420 452 l 452 452 l 452 420 l 420 420 l 420 452 m 420 420 l 452 420 l 452 388 l 420 388 l 420 420 m 420 388 l 452 388 l 452 355 l 420 355 l 420 388 m 258 614 l 291 614 l 291 581 l 258 581 l 258 614 m 226 581 l 258 581 l 258 549 l 226 549 l 226 581 m 194 549 l 226 549 l 226 517 l 194 517 l 194 549 m 291 614 l 323 614 l 323 581 l 291 581 l 291 614 m 258 581 l 291 581 l 291 549 l 258 549 l 258 581 m 226 549 l 258 549 l 258 517 l 226 517 l 226 549 m 194 517 l 226 517 l 226 484 l 194 484 l 194 517 m 323 614 l 355 614 l 355 581 l 323 581 l 323 614 m 323 581 l 355 581 l 355 549 l 323 549 l 323 581 m 678 743 l 711 743 l 711 711 l 678 711 l 678 743 m 646 711 l 678 711 l 678 678 l 646 678 l 646 711 m 775 743 l 807 743 l 807 711 l 775 711 l 775 743 m 743 743 l 775 743 l 775 711 l 743 711 l 743 743 m 775 711 l 807 711 l 807 678 l 775 678 l 775 711 m 807 711 l 840 711 l 840 678 l 807 678 l 807 711 m 711 743 l 743 743 l 743 711 l 711 711 l 711 743 m 743 711 l 775 711 l 775 678 l 743 678 l 743 711 m 775 678 l 807 678 l 807 646 l 775 646 l 775 678 m 807 678 l 840 678 l 840 646 l 807 646 l 807 678 m 711 711 l 743 711 l 743 678 l 711 678 l 711 711 m 743 678 l 775 678 l 775 646 l 743 646 l 743 678 m 775 646 l 807 646 l 807 614 l 775 614 l 775 646 m 65 614 l 97 614 l 97 581 l 65 581 l 65 614 m 97 646 l 129 646 l 129 614 l 97 614 l 97 646 m 129 678 l 161 678 l 161 646 l 129 646 l 129 678 m 161 711 l 194 711 l 194 678 l 161 678 l 161 711 m 194 743 l 226 743 l 226 711 l 194 711 l 194 743 m 194 775 l 226 775 l 226 743 l 194 743 l 194 775 m 420 807 l 452 807 l 452 775 l 420 775 l 420 807 m 484 775 l 517 775 l 517 743 l 484 743 l 484 775 m 549 743 l 581 743 l 581 711 l 549 711 l 549 743 m 517 775 l 549 775 l 549 743 l 517 743 l 517 775 m 484 807 l 517 807 l 517 775 l 484 775 l 484 807 m 452 807 l 484 807 l 484 775 l 452 775 l 452 807 m 291 581 l 323 581 l 323 549 l 291 549 l 291 581 m 323 549 l 355 549 l 355 517 l 323 517 l 323 549 m 291 549 l 323 549 l 323 517 l 291 517 l 291 549 m 323 517 l 355 517 l 355 484 l 323 484 l 323 517 m 355 291 l 388 291 l 388 258 l 355 258 l 355 291 m 323 291 l 355 291 l 355 258 l 323 258 l 323 291 m 323 258 l 355 258 l 355 226 l 323 226 l 323 258 m 291 226 l 323 226 l 323 194 l 291 194 l 291 226 m 258 194 l 291 194 l 291 161 l 258 161 l 258 194 m 614 355 l 646 355 l 646 323 l 614 323 l 614 355 m 614 388 l 646 388 l 646 355 l 614 355 l 614 388 m 614 420 l 646 420 l 646 388 l 614 388 l 614 420 m 614 452 l 646 452 l 646 420 l 614 420 l 614 452 m 614 484 l 646 484 l 646 452 l 614 452 l 614 484 m 614 517 l 646 517 l 646 484 l 614 484 l 614 517 m 614 549 l 646 549 l 646 517 l 614 517 l 614 549 m 549 904 l 581 904 l 581 872 l 549 872 l 549 904 m 549 937 l 581 937 l 581 904 l 549 904 l 549 937 m 581 937 l 614 937 l 614 904 l 581 904 l 581 937 m 581 904 l 614 904 l 614 872 l 581 872 l 581 904 m 549 969 l 581 969 l 581 937 l 549 937 l 549 969 m 484 969 l 517 969 l 517 937 l 484 937 l 484 969 m 517 969 l 549 969 l 549 937 l 517 937 l 517 969 m 549 1098 l 581 1098 l 581 1066 l 549 1066 l 549 1098 m 549 1066 l 581 1066 l 581 1034 l 549 1034 l 549 1066 m 581 1098 l 614 1098 l 614 1066 l 581 1066 l 581 1098 m 581 1066 l 614 1066 l 614 1034 l 581 1034 l 581 1066 m 581 1034 l 614 1034 l 614 1001 l 581 1001 l 581 1034 m 646 969 l 678 969 l 678 937 l 646 937 l 646 969 m 646 1001 l 678 1001 l 678 969 l 646 969 l 646 1001 m 646 1034 l 678 1034 l 678 1001 l 646 1001 l 646 1034 m 614 1034 l 646 1034 l 646 1001 l 614 1001 l 614 1034 m 614 1001 l 646 1001 l 646 969 l 614 969 l 614 1001 m 517 1034 l 549 1034 l 549 1001 l 517 1001 l 517 1034 m 484 1034 l 517 1034 l 517 1001 l 484 1001 l 484 1034 m 484 1001 l 517 1001 l 517 969 l 484 969 l 484 1001 m 517 1001 l 549 1001 l 549 969 l 517 969 l 517 1001 m 517 1066 l 549 1066 l 549 1034 l 517 1034 l 517 1066 m 614 1066 l 646 1066 l 646 1034 l 614 1034 l 614 1066 m 517 937 l 549 937 l 549 904 l 517 904 l 517 937 m 614 937 l 646 937 l 646 904 l 614 904 l 614 937 m 614 969 l 646 969 l 646 937 l 614 937 l 614 969 z "},"":{"ha":904,"x_min":32,"x_max":872,"o":"m 97 678 l 129 678 l 129 646 l 97 646 l 97 678 m 65 646 l 97 646 l 97 614 l 65 614 l 65 646 m 129 711 l 161 711 l 161 678 l 129 678 l 129 711 m 161 743 l 194 743 l 194 711 l 161 711 l 161 743 m 226 807 l 258 807 l 258 775 l 226 775 l 226 807 m 226 775 l 258 775 l 258 743 l 226 743 l 226 775 m 291 807 l 323 807 l 323 775 l 291 775 l 291 807 m 291 775 l 323 775 l 323 743 l 291 743 l 291 775 m 258 775 l 291 775 l 291 743 l 258 743 l 258 775 m 258 807 l 291 807 l 291 775 l 258 775 l 258 807 m 323 807 l 355 807 l 355 775 l 323 775 l 323 807 m 355 775 l 388 775 l 388 743 l 355 743 l 355 775 m 323 775 l 355 775 l 355 743 l 323 743 l 323 775 m 420 775 l 452 775 l 452 743 l 420 743 l 420 775 m 388 775 l 420 775 l 420 743 l 388 743 l 388 775 m 484 743 l 517 743 l 517 711 l 484 711 l 484 743 m 484 711 l 517 711 l 517 678 l 484 678 l 484 711 m 484 678 l 517 678 l 517 646 l 484 646 l 484 678 m 452 711 l 484 711 l 484 678 l 452 678 l 452 711 m 452 743 l 484 743 l 484 711 l 452 711 l 452 743 m 452 775 l 484 775 l 484 743 l 452 743 l 452 775 m 678 775 l 711 775 l 711 743 l 678 743 l 678 775 m 711 807 l 743 807 l 743 775 l 711 775 l 711 807 m 743 807 l 775 807 l 775 775 l 743 775 l 743 807 m 743 775 l 775 775 l 775 743 l 743 743 l 743 775 m 711 775 l 743 775 l 743 743 l 711 743 l 711 775 m 807 743 l 840 743 l 840 711 l 807 711 l 807 743 m 517 711 l 549 711 l 549 678 l 517 678 l 517 711 m 517 678 l 549 678 l 549 646 l 517 646 l 517 678 m 549 678 l 581 678 l 581 646 l 549 646 l 549 678 m 581 678 l 614 678 l 614 646 l 581 646 l 581 678 m 614 678 l 646 678 l 646 646 l 614 646 l 614 678 m 614 646 l 646 646 l 646 614 l 614 614 l 614 646 m 581 646 l 614 646 l 614 614 l 581 614 l 581 646 m 549 646 l 581 646 l 581 614 l 549 614 l 549 646 m 388 614 l 420 614 l 420 581 l 388 581 l 388 614 m 388 581 l 420 581 l 420 549 l 388 549 l 388 581 m 549 614 l 581 614 l 581 581 l 549 581 l 549 614 m 581 614 l 614 614 l 614 581 l 581 581 l 581 614 m 614 614 l 646 614 l 646 581 l 614 581 l 614 614 m 614 581 l 646 581 l 646 549 l 614 549 l 614 581 m 581 549 l 614 549 l 614 517 l 581 517 l 581 549 m 549 549 l 581 549 l 581 517 l 549 517 l 549 549 m 581 581 l 614 581 l 614 549 l 581 549 l 581 581 m 549 581 l 581 581 l 581 549 l 549 549 l 549 581 m 517 517 l 549 517 l 549 484 l 517 484 l 517 517 m 517 549 l 549 549 l 549 517 l 517 517 l 517 549 m 549 517 l 581 517 l 581 484 l 549 484 l 549 517 m 581 517 l 614 517 l 614 484 l 581 484 l 581 517 m 355 614 l 388 614 l 388 581 l 355 581 l 355 614 m 355 581 l 388 581 l 388 549 l 355 549 l 355 581 m 355 549 l 388 549 l 388 517 l 355 517 l 355 549 m 355 517 l 388 517 l 388 484 l 355 484 l 355 517 m 388 355 l 420 355 l 420 323 l 388 323 l 388 355 m 420 355 l 452 355 l 452 323 l 420 323 l 420 355 m 517 484 l 549 484 l 549 452 l 517 452 l 517 484 m 517 452 l 549 452 l 549 420 l 517 420 l 517 452 m 517 420 l 549 420 l 549 388 l 517 388 l 517 420 m 517 388 l 549 388 l 549 355 l 517 355 l 517 388 m 549 484 l 581 484 l 581 452 l 549 452 l 549 484 m 549 452 l 581 452 l 581 420 l 549 420 l 549 452 m 549 420 l 581 420 l 581 388 l 549 388 l 549 420 m 549 388 l 581 388 l 581 355 l 549 355 l 549 388 m 517 323 l 549 323 l 549 291 l 517 291 l 517 323 m 549 323 l 581 323 l 581 291 l 549 291 l 549 323 m 581 355 l 614 355 l 614 323 l 581 323 l 581 355 m 581 388 l 614 388 l 614 355 l 581 355 l 581 388 m 581 420 l 614 420 l 614 388 l 581 388 l 581 420 m 581 452 l 614 452 l 614 420 l 581 420 l 581 452 m 581 484 l 614 484 l 614 452 l 581 452 l 581 484 m 581 323 l 614 323 l 614 291 l 581 291 l 581 323 m 614 291 l 646 291 l 646 258 l 614 258 l 614 291 m 614 258 l 646 258 l 646 226 l 614 226 l 614 258 m 581 258 l 614 258 l 614 226 l 581 226 l 581 258 m 549 258 l 581 258 l 581 226 l 549 226 l 549 258 m 517 258 l 549 258 l 549 226 l 517 226 l 517 258 m 517 291 l 549 291 l 549 258 l 517 258 l 517 291 m 549 291 l 581 291 l 581 258 l 549 258 l 549 291 m 581 291 l 614 291 l 614 258 l 581 258 l 581 291 m 194 194 l 226 194 l 226 161 l 194 161 l 194 194 m 161 161 l 194 161 l 194 129 l 161 129 l 161 161 m 129 129 l 161 129 l 161 97 l 129 97 l 129 129 m 517 226 l 549 226 l 549 194 l 517 194 l 517 226 m 549 226 l 581 226 l 581 194 l 549 194 l 549 226 m 581 226 l 614 226 l 614 194 l 581 194 l 581 226 m 614 226 l 646 226 l 646 194 l 614 194 l 614 226 m 161 129 l 194 129 l 194 97 l 161 97 l 161 129 m 194 129 l 226 129 l 226 97 l 194 97 l 194 129 m 194 97 l 226 97 l 226 65 l 194 65 l 194 97 m 161 97 l 194 97 l 194 65 l 161 65 l 161 97 m 226 97 l 258 97 l 258 65 l 226 65 l 226 97 m 388 129 l 420 129 l 420 97 l 388 97 l 388 129 m 388 97 l 420 97 l 420 65 l 388 65 l 388 97 m 355 97 l 388 97 l 388 65 l 355 65 l 355 97 m 420 161 l 452 161 l 452 129 l 420 129 l 420 161 m 517 194 l 549 194 l 549 161 l 517 161 l 517 194 m 549 194 l 581 194 l 581 161 l 549 161 l 549 194 m 581 194 l 614 194 l 614 161 l 581 161 l 581 194 m 614 194 l 646 194 l 646 161 l 614 161 l 614 194 m 614 161 l 646 161 l 646 129 l 614 129 l 614 161 m 581 161 l 614 161 l 614 129 l 581 129 l 581 161 m 549 161 l 581 161 l 581 129 l 549 129 l 549 161 m 517 161 l 549 161 l 549 129 l 517 129 l 517 161 m 517 129 l 549 129 l 549 97 l 517 97 l 517 129 m 517 97 l 549 97 l 549 65 l 517 65 l 517 97 m 549 97 l 581 97 l 581 65 l 549 65 l 549 97 m 581 97 l 614 97 l 614 65 l 581 65 l 581 97 m 581 129 l 614 129 l 614 97 l 581 97 l 581 129 m 614 129 l 646 129 l 646 97 l 614 97 l 614 129 m 549 129 l 581 129 l 581 97 l 549 97 l 549 129 m 614 97 l 646 97 l 646 65 l 614 65 l 614 97 m 581 65 l 614 65 l 614 32 l 581 32 l 581 65 m 581 32 l 614 32 l 614 0 l 581 0 l 581 32 m 614 32 l 646 32 l 646 0 l 614 0 l 614 32 m 614 65 l 646 65 l 646 32 l 614 32 l 614 65 m 678 65 l 711 65 l 711 32 l 678 32 l 678 65 m 678 32 l 711 32 l 711 0 l 678 0 l 678 32 m 646 32 l 678 32 l 678 0 l 646 0 l 646 32 m 743 129 l 775 129 l 775 97 l 743 97 l 743 129 m 743 97 l 775 97 l 775 65 l 743 65 l 743 97 m 711 97 l 743 97 l 743 65 l 711 65 l 711 97 m 711 65 l 743 65 l 743 32 l 711 32 l 711 65 m 549 65 l 581 65 l 581 32 l 549 32 l 549 65 m 323 65 l 355 65 l 355 32 l 323 32 l 323 65 m 291 65 l 323 65 l 323 32 l 291 32 l 291 65 m 291 32 l 323 32 l 323 0 l 291 0 l 291 32 m 323 32 l 355 32 l 355 0 l 323 0 l 323 32 m 258 65 l 291 65 l 291 32 l 258 32 l 258 65 m 226 32 l 258 32 l 258 0 l 226 0 l 226 32 m 258 32 l 291 32 l 291 0 l 258 0 l 258 32 m 226 65 l 258 65 l 258 32 l 226 32 l 226 65 m 355 65 l 388 65 l 388 32 l 355 32 l 355 65 m 420 129 l 452 129 l 452 97 l 420 97 l 420 129 m 775 775 l 807 775 l 807 743 l 775 743 l 775 775 m 97 97 l 129 97 l 129 65 l 97 65 l 97 97 m 194 161 l 226 161 l 226 129 l 194 129 l 194 161 m 646 65 l 678 65 l 678 32 l 646 32 l 646 65 m 65 65 l 97 65 l 97 32 l 65 32 l 65 65 m 355 388 l 388 388 l 388 355 l 355 355 l 355 388 m 355 452 l 388 452 l 388 420 l 355 420 l 355 452 m 355 420 l 388 420 l 388 388 l 355 388 l 355 420 m 355 484 l 388 484 l 388 452 l 355 452 l 355 484 m 388 549 l 420 549 l 420 517 l 388 517 l 388 549 m 388 517 l 420 517 l 420 484 l 388 484 l 388 517 m 258 258 l 291 258 l 291 226 l 258 226 l 258 258 m 420 743 l 452 743 l 452 711 l 420 711 l 420 743 m 614 323 l 646 323 l 646 291 l 614 291 l 614 323 m 194 65 l 226 65 l 226 32 l 194 32 l 194 65 m 291 646 l 323 646 l 323 614 l 291 614 l 291 646 m 323 646 l 355 646 l 355 614 l 323 614 l 323 646 m 355 646 l 388 646 l 388 614 l 355 614 l 355 646 m 355 807 l 388 807 l 388 775 l 355 775 l 355 807 m 323 323 l 355 323 l 355 291 l 323 291 l 323 323 m 775 161 l 807 161 l 807 129 l 775 129 l 775 161 m 226 226 l 258 226 l 258 194 l 226 194 l 226 226 m 291 291 l 323 291 l 323 258 l 291 258 l 291 291 m 291 258 l 323 258 l 323 226 l 291 226 l 291 258 m 258 226 l 291 226 l 291 194 l 258 194 l 258 226 m 226 194 l 258 194 l 258 161 l 226 161 l 226 194 m 226 161 l 258 161 l 258 129 l 226 129 l 226 161 m 355 355 l 388 355 l 388 323 l 355 323 l 355 355 m 452 355 l 484 355 l 484 323 l 452 323 l 452 355 m 355 323 l 388 323 l 388 291 l 355 291 l 355 323 m 388 323 l 420 323 l 420 291 l 388 291 l 388 323 m 420 323 l 452 323 l 452 291 l 420 291 l 420 323 m 388 484 l 420 484 l 420 452 l 388 452 l 388 484 m 775 129 l 807 129 l 807 97 l 775 97 l 775 129 m 646 97 l 678 97 l 678 65 l 646 65 l 646 97 m 646 743 l 678 743 l 678 711 l 646 711 l 646 743 m 840 711 l 872 711 l 872 678 l 840 678 l 840 711 m 388 452 l 420 452 l 420 420 l 388 420 l 388 452 m 388 420 l 420 420 l 420 388 l 388 388 l 388 420 m 388 388 l 420 388 l 420 355 l 388 355 l 388 388 m 549 355 l 581 355 l 581 323 l 549 323 l 549 355 m 517 355 l 549 355 l 549 323 l 517 323 l 517 355 m 678 97 l 711 97 l 711 65 l 678 65 l 678 97 m 258 97 l 291 97 l 291 65 l 258 65 l 258 97 m 291 97 l 323 97 l 323 65 l 291 65 l 291 97 m 323 97 l 355 97 l 355 65 l 323 65 l 323 97 m 32 32 l 65 32 l 65 0 l 32 0 l 32 32 m 388 807 l 420 807 l 420 775 l 388 775 l 388 807 m 97 129 l 129 129 l 129 97 l 97 97 l 97 129 m 65 97 l 97 97 l 97 65 l 65 65 l 65 97 m 32 65 l 65 65 l 65 32 l 32 32 l 32 65 m 129 97 l 161 97 l 161 65 l 129 65 l 129 97 m 484 355 l 517 355 l 517 323 l 484 323 l 484 355 m 452 323 l 484 323 l 484 291 l 452 291 l 452 323 m 517 646 l 549 646 l 549 614 l 517 614 l 517 646 m 581 711 l 614 711 l 614 678 l 581 678 l 581 711 m 614 711 l 646 711 l 646 678 l 614 678 l 614 711 m 549 711 l 581 711 l 581 678 l 549 678 l 549 711 m 517 743 l 549 743 l 549 711 l 517 711 l 517 743 m 388 743 l 420 743 l 420 711 l 388 711 l 388 743 m 517 614 l 549 614 l 549 581 l 517 581 l 517 614 m 129 161 l 161 161 l 161 129 l 129 129 l 129 161 m 226 129 l 258 129 l 258 97 l 226 97 l 226 129 m 258 129 l 291 129 l 291 97 l 258 97 l 258 129 m 323 678 l 355 678 l 355 646 l 323 646 l 323 678 m 420 711 l 452 711 l 452 678 l 420 678 l 420 711 m 452 678 l 484 678 l 484 646 l 452 646 l 452 678 m 484 646 l 517 646 l 517 614 l 484 614 l 484 646 m 517 581 l 549 581 l 549 549 l 517 549 l 517 581 m 420 581 l 452 581 l 452 549 l 420 549 l 420 581 m 420 549 l 452 549 l 452 517 l 420 517 l 420 549 m 420 517 l 452 517 l 452 484 l 420 484 l 420 517 m 420 484 l 452 484 l 452 452 l 420 452 l 420 484 m 420 452 l 452 452 l 452 420 l 420 420 l 420 452 m 420 420 l 452 420 l 452 388 l 420 388 l 420 420 m 420 388 l 452 388 l 452 355 l 420 355 l 420 388 m 258 614 l 291 614 l 291 581 l 258 581 l 258 614 m 226 581 l 258 581 l 258 549 l 226 549 l 226 581 m 194 549 l 226 549 l 226 517 l 194 517 l 194 549 m 291 614 l 323 614 l 323 581 l 291 581 l 291 614 m 258 581 l 291 581 l 291 549 l 258 549 l 258 581 m 226 549 l 258 549 l 258 517 l 226 517 l 226 549 m 194 517 l 226 517 l 226 484 l 194 484 l 194 517 m 323 614 l 355 614 l 355 581 l 323 581 l 323 614 m 323 581 l 355 581 l 355 549 l 323 549 l 323 581 m 678 743 l 711 743 l 711 711 l 678 711 l 678 743 m 646 711 l 678 711 l 678 678 l 646 678 l 646 711 m 775 743 l 807 743 l 807 711 l 775 711 l 775 743 m 743 743 l 775 743 l 775 711 l 743 711 l 743 743 m 775 711 l 807 711 l 807 678 l 775 678 l 775 711 m 807 711 l 840 711 l 840 678 l 807 678 l 807 711 m 711 743 l 743 743 l 743 711 l 711 711 l 711 743 m 743 711 l 775 711 l 775 678 l 743 678 l 743 711 m 775 678 l 807 678 l 807 646 l 775 646 l 775 678 m 807 678 l 840 678 l 840 646 l 807 646 l 807 678 m 711 711 l 743 711 l 743 678 l 711 678 l 711 711 m 743 678 l 775 678 l 775 646 l 743 646 l 743 678 m 775 646 l 807 646 l 807 614 l 775 614 l 775 646 m 65 614 l 97 614 l 97 581 l 65 581 l 65 614 m 97 646 l 129 646 l 129 614 l 97 614 l 97 646 m 129 678 l 161 678 l 161 646 l 129 646 l 129 678 m 161 711 l 194 711 l 194 678 l 161 678 l 161 711 m 194 743 l 226 743 l 226 711 l 194 711 l 194 743 m 194 775 l 226 775 l 226 743 l 194 743 l 194 775 m 420 807 l 452 807 l 452 775 l 420 775 l 420 807 m 484 775 l 517 775 l 517 743 l 484 743 l 484 775 m 549 743 l 581 743 l 581 711 l 549 711 l 549 743 m 517 775 l 549 775 l 549 743 l 517 743 l 517 775 m 484 807 l 517 807 l 517 775 l 484 775 l 484 807 m 452 807 l 484 807 l 484 775 l 452 775 l 452 807 m 291 581 l 323 581 l 323 549 l 291 549 l 291 581 m 323 549 l 355 549 l 355 517 l 323 517 l 323 549 m 291 549 l 323 549 l 323 517 l 291 517 l 291 549 m 323 517 l 355 517 l 355 484 l 323 484 l 323 517 m 355 291 l 388 291 l 388 258 l 355 258 l 355 291 m 323 291 l 355 291 l 355 258 l 323 258 l 323 291 m 323 258 l 355 258 l 355 226 l 323 226 l 323 258 m 291 226 l 323 226 l 323 194 l 291 194 l 291 226 m 258 194 l 291 194 l 291 161 l 258 161 l 258 194 m 614 355 l 646 355 l 646 323 l 614 323 l 614 355 m 614 388 l 646 388 l 646 355 l 614 355 l 614 388 m 614 420 l 646 420 l 646 388 l 614 388 l 614 420 m 614 452 l 646 452 l 646 420 l 614 420 l 614 452 m 614 484 l 646 484 l 646 452 l 614 452 l 614 484 m 614 517 l 646 517 l 646 484 l 614 484 l 614 517 m 614 549 l 646 549 l 646 517 l 614 517 l 614 549 m 517 1001 l 549 1001 l 549 969 l 517 969 l 517 1001 m 549 1001 l 581 1001 l 581 969 l 549 969 l 549 1001 m 581 1001 l 614 1001 l 614 969 l 581 969 l 581 1001 m 549 969 l 581 969 l 581 937 l 549 937 l 549 969 m 581 969 l 614 969 l 614 937 l 581 937 l 581 969 m 614 969 l 646 969 l 646 937 l 614 937 l 614 969 m 581 937 l 614 937 l 614 904 l 581 904 l 581 937 m 614 937 l 646 937 l 646 904 l 614 904 l 614 937 m 549 937 l 581 937 l 581 904 l 549 904 l 549 937 m 484 969 l 517 969 l 517 937 l 484 937 l 484 969 m 452 937 l 484 937 l 484 904 l 452 904 l 452 937 m 581 904 l 614 904 l 614 872 l 581 872 l 581 904 m 614 904 l 646 904 l 646 872 l 614 872 l 614 904 m 646 904 l 678 904 l 678 872 l 646 872 l 646 904 m 678 937 l 711 937 l 711 904 l 678 904 l 678 937 m 711 969 l 743 969 l 743 937 l 711 937 l 711 969 m 517 969 l 549 969 l 549 937 l 517 937 l 517 969 m 484 937 l 517 937 l 517 904 l 484 904 l 484 937 m 646 937 l 678 937 l 678 904 l 646 904 l 646 937 m 678 969 l 711 969 l 711 937 l 678 937 l 678 969 z "}}}
